<svg id="Layer_1" data-name="Layer 1" xmlns="http://www.w3.org/2000/svg" viewBox="0 0 909 825"><defs><style>.cls-1,.cls-5{fill:none;}.cls-2{fill:#0d74b1;}.cls-3{fill:#785ca4;}.cls-4{fill:#3cbfbd;}.cls-5{stroke:#231f20;stroke-miterlimit:10;stroke-width:11.7px;}.cls-6{fill:#231f20;}</style></defs><title>Icon_Baires_Dev_F</title><path class="cls-1" d="M304.3,270.67a28,28,0,0,0-32,40.67,28,28,0,0,0,24.39,14.29,28,28,0,0,0,7.57-55Z"/><path class="cls-2" d="M333.73,336.94a53.5,53.5,0,0,0,10-12.63l10.6,3,7-25-10.6-3a53.38,53.38,0,0,0-1.94-16l9.62-5.41-12.73-22.66-9.62,5.4a53.58,53.58,0,0,0-12.62-10l3-10.6-25-7-3,10.6a54.86,54.86,0,0,0-16,1.95L277,236l-22.67,12.73,5.41,9.63a53.26,53.26,0,0,0-10,12.62l-10.6-3-7,25,10.6,3a53.56,53.56,0,0,0,1.94,16l-9.63,5.4L247.81,340l9.62-5.41a53.51,53.51,0,0,0,12.63,10l-3,10.6,25,7,3-10.6a53.71,53.71,0,0,0,16-1.94l5.4,9.62,22.66-12.73Zm-4.53-30.19a33.68,33.68,0,0,1-41.57,23.35,33.75,33.75,0,0,1-23.35-41.57,33.71,33.71,0,1,1,64.92,18.21Z"/><path class="cls-2" d="M305.85,265.16a33.73,33.73,0,1,0,23.35,41.58A33.69,33.69,0,0,0,305.85,265.16Zm17.85,40a28,28,0,0,1-34.52,19.39,28,28,0,0,1-19.39-34.51A28,28,0,1,1,323.7,305.2Z"/><path class="cls-3" d="M420.55,404.1l7.65-4.31-10.58-18.84-7.66,4.3a42.57,42.57,0,0,0-9.28-7.31l2.37-8.43-20.81-5.85-2.37,8.45a42.23,42.23,0,0,0-11.75,1.42l-4.3-7.66L345,376.44l4.31,7.67a42.48,42.48,0,0,0-7.32,9.28L333.53,391l-5.83,20.82,8.44,2.37a42.16,42.16,0,0,0,1.42,11.73l-7.66,4.31,10.59,18.83,7.65-4.3a42.66,42.66,0,0,0,9.29,7.32l-2.37,8.44,20.81,5.83,2.37-8.44A42.79,42.79,0,0,0,390,456.51l4.3,7.66,18.83-10.59-4.29-7.66a42.45,42.45,0,0,0,7.32-9.29l8.44,2.37,5.83-20.81L422,415.83A42.34,42.34,0,0,0,420.55,404.1Zm-15.47,18.22A27,27,0,0,1,371.75,441,27.06,27.06,0,0,1,353,407.71,27,27,0,0,1,386.36,389a27.06,27.06,0,0,1,18.73,33.35Z"/><path class="cls-4" d="M469.38,322.33a32.12,32.12,0,0,0-.93-7.67l5.78-3.25-8.52-15.16-5.78,3.24a31.58,31.58,0,0,0-6.07-4.78l1.79-6.37-16.75-4.7L437.13,290a32.11,32.11,0,0,0-7.67.94l-3.24-5.78L411,293.69l3.25,5.78a31.89,31.89,0,0,0-4.78,6.07l-6.37-1.79-4.7,16.75,6.37,1.78a31.87,31.87,0,0,0,.93,7.67L400,333.2l8.53,15.16,5.78-3.24a31.81,31.81,0,0,0,6.07,4.79l-1.79,6.37,16.75,4.7,1.79-6.37a32.12,32.12,0,0,0,7.67-.94l3.24,5.79,15.16-8.53-3.24-5.77a32.07,32.07,0,0,0,4.78-6.08l6.37,1.8,4.7-16.75ZM437.1,334.22A11.91,11.91,0,1,1,449,322.31,11.93,11.93,0,0,1,437.1,334.22Z"/><rect class="cls-5" x="203.8" y="198.77" width="501.41" height="369.75" rx="14.46" ry="14.46"/><line class="cls-5" x1="659.68" y1="499.81" x2="705.2" y2="499.81"/><line class="cls-5" x1="203.8" y1="499.81" x2="501.81" y2="499.81"/><line class="cls-5" x1="327.95" y1="626.23" x2="581.05" y2="626.23"/><line class="cls-5" x1="391.82" y1="568.53" x2="391.82" y2="626.23"/><line class="cls-5" x1="517.18" y1="568.53" x2="517.18" y2="626.23"/><line class="cls-5" x1="653.56" y1="446.85" x2="507.93" y2="446.85"/><line class="cls-5" x1="567.36" y1="491.95" x2="594.13" y2="491.95"/><line class="cls-5" x1="653.58" y1="288.94" x2="507.96" y2="288.94"/><rect class="cls-5" x="501.81" y="243.88" width="157.87" height="293.18" rx="21.93" ry="21.93"/><path class="cls-6" d="M305.29,266.38A33.73,33.73,0,1,0,328.65,308,33.69,33.69,0,0,0,305.29,266.38Zm17.85,40a28,28,0,0,1-34.52,19.39,28,28,0,0,1-19.39-34.51,28,28,0,1,1,53.91,15.12Z"/><path class="cls-6" d="M333.18,338.15a53.5,53.5,0,0,0,10-12.63l10.6,3,7-25-10.6-3a53.38,53.38,0,0,0-1.94-16l9.62-5.41L345.1,256.45l-9.62,5.4a53.58,53.58,0,0,0-12.62-10l3-10.6-25-7-3,10.6a54.86,54.86,0,0,0-16,1.95l-5.41-9.62-22.67,12.73,5.41,9.63a53.26,53.26,0,0,0-10,12.62l-10.6-3-7,25,10.6,3a53.56,53.56,0,0,0,1.94,16l-9.63,5.4,12.74,22.67,9.62-5.41a53.51,53.51,0,0,0,12.63,10l-3,10.6,25,7,3-10.6a53.71,53.71,0,0,0,16-1.94l5.4,9.62,22.66-12.73Zm-82.91-24.48A48,48,0,0,1,248,295.28l.17-2.34-9.54-2.68,3.93-14,9.55,2.68,1.07-2.09a47.8,47.8,0,0,1,11.45-14.54l1.77-1.53-4.87-8.67L274.26,245l4.87,8.67,2.23-.72a47.82,47.82,0,0,1,18.38-2.24l2.33.18,2.68-9.55,14,3.93-2.68,9.55,2.09,1.07a47.73,47.73,0,0,1,14.53,11.45l1.53,1.78,8.67-4.87L350,276.93l-8.68,4.88.72,2.23a47.83,47.83,0,0,1,2.24,18.38l-.17,2.33,9.54,2.67-3.93,14-9.55-2.68-1.07,2.09a47.8,47.8,0,0,1-11.46,14.54l-1.77,1.53,4.87,8.67-12.69,7.13L313.23,344l-2.23.72A47.74,47.74,0,0,1,292.62,347l-2.33-.17-2.68,9.55-14-3.93,2.68-9.55-2.08-1.07a48,48,0,0,1-14.55-11.46l-1.53-1.77-8.67,4.87-7.13-12.69"/><path class="cls-6" d="M424.63,321.75a11.91,11.91,0,1,0,11.91-11.92A11.93,11.93,0,0,0,424.63,321.75Zm11.91-6.2a6.19,6.19,0,1,1-6.19,6.2A6.2,6.2,0,0,1,436.54,315.56Z"/><path class="cls-6" d="M424,439.33l5.83-20.81-8.44-2.37A42.34,42.34,0,0,0,420,404.43l7.65-4.31-10.58-18.84-7.66,4.3a42.57,42.57,0,0,0-9.28-7.31l2.37-8.43L381.69,364l-2.37,8.45a42.23,42.23,0,0,0-11.75,1.42l-4.3-7.66-18.84,10.58,4.31,7.67a42.48,42.48,0,0,0-7.32,9.28L333,391.34l-5.83,20.82,8.44,2.37A42.16,42.16,0,0,0,337,426.26l-7.66,4.31,10.59,18.83,7.65-4.3a42.66,42.66,0,0,0,9.29,7.32l-2.37,8.44,20.81,5.83,2.37-8.44a42.79,42.79,0,0,0,11.74-1.42l4.3,7.66,18.83-10.59-4.29-7.66a42.45,42.45,0,0,0,7.32-9.29Zm-12.4-7a36.85,36.85,0,0,1-8.83,11.2L401,445l3.76,6.7-8.86,5-3.76-6.7-2.23.72a36.78,36.78,0,0,1-14.17,1.71l-2.33-.17-2.07,7.38-9.8-2.75,2.07-7.38-2.09-1.07a36.93,36.93,0,0,1-11.21-8.83l-1.53-1.77-6.69,3.76-5-8.87,6.7-3.77-.72-2.23a36.91,36.91,0,0,1-1.71-14.16l.18-2.34-7.38-2.07,2.74-9.8,7.38,2.08,1.07-2.09a36.75,36.75,0,0,1,8.83-11.2l1.77-1.53-3.77-6.7,8.87-5,3.76,6.7,2.23-.73a36.72,36.72,0,0,1,14.17-1.72l2.33.17,2.07-7.38,9.79,2.75-2.07,7.37,2.09,1.07a37.08,37.08,0,0,1,11.2,8.83l1.53,1.77,6.7-3.76,5,8.87-6.7,3.77.72,2.23a36.74,36.74,0,0,1,1.72,14.16l-.18,2.33,7.38,2.07-2.75,9.79-7.37-2.07Z"/><path class="cls-6" d="M385.8,389.3a27,27,0,0,0-30.86,39.28,26.84,26.84,0,0,0,16.25,12.79,27,27,0,0,0,33.34-18.73A27.06,27.06,0,0,0,385.8,389.3ZM399,421.1a21.31,21.31,0,0,1-26.29,14.76A21.33,21.33,0,0,1,358,409.59,21.39,21.39,0,0,1,378.5,394,21.34,21.34,0,0,1,399,421.1Z"/><path class="cls-6" d="M425.65,284.61l-15.16,8.52,3.25,5.78a31.9,31.9,0,0,0-4.78,6.07l-6.37-1.79-4.7,16.75,6.37,1.78a31.87,31.87,0,0,0,.93,7.67l-5.78,3.25,8.53,15.16,5.78-3.24a31.81,31.81,0,0,0,6.07,4.79L418,355.71l16.75,4.7,1.79-6.37a32.12,32.12,0,0,0,7.67-.94l3.24,5.79,15.16-8.53-3.24-5.77a32.07,32.07,0,0,0,4.78-6.08l6.37,1.8,4.7-16.75-6.37-1.78a32.12,32.12,0,0,0-.93-7.67l5.78-3.25-8.52-15.16-5.78,3.24a31.58,31.58,0,0,0-6.07-4.78l1.79-6.37-16.75-4.7-1.78,6.36a32.11,32.11,0,0,0-7.67.94Zm12.85,10.63,2.33.18,1.48-5.28,5.73,1.61L446.56,297l2.09,1.07a26.29,26.29,0,0,1,8,6.3l1.53,1.78,4.8-2.7,2.91,5.19-4.8,2.7.72,2.23A26.41,26.41,0,0,1,463,323.71l-.17,2.33,5.28,1.48-1.61,5.73-5.28-1.49-1.07,2.09a26.47,26.47,0,0,1-6.31,8l-1.77,1.53,2.69,4.8-5.18,2.91-2.69-4.81-2.23.72a26.55,26.55,0,0,1-10.11,1.23l-2.33-.17-1.49,5.28L425,351.75l1.48-5.28-2.08-1.07a26.36,26.36,0,0,1-8-6.31l-1.53-1.77-4.8,2.7-2.91-5.19,4.8-2.7-.72-2.23A26.35,26.35,0,0,1,410,319.79l.18-2.34L404.94,316l1.61-5.73,5.28,1.48,1.07-2.09a26.14,26.14,0,0,1,6.3-8l1.77-1.53-2.7-4.8,5.19-2.91,2.7,4.8,2.23-.73A26.63,26.63,0,0,1,438.5,295.25Z"/></svg>