<?xml version="1.0" encoding="utf-8"?>
<!-- Generator: Adobe Illustrator 24.1.2, SVG Export Plug-In . SVG Version: 6.00 Build 0)  -->
<svg version="1.1" id="Layer_1" xmlns="http://www.w3.org/2000/svg" xmlns:xlink="http://www.w3.org/1999/xlink" x="0px" y="0px"
	 viewBox="0 0 909 825" style="enable-background:new 0 0 909 825;" xml:space="preserve">
<style type="text/css">
	.st0{fill:#FFFFFF;}
	.st1{fill:none;}
	.st2{fill:#0D74B1;}
	.st3{fill:#785CA4;}
	.st4{fill:#3CBFBD;}
	.st5{fill:none;stroke:#231F20;stroke-width:11.7;stroke-miterlimit:10;}
	.st6{fill:#231F20;}
</style>
<rect x="209.2" y="202" class="st0" width="492" height="362.1"/>
<path class="st1" d="M304.3,270.7c-14.9-4.2-30.3,4.5-34.5,19.4c-2,7.2-1.1,14.8,2.5,21.3c5,8.8,14.3,14.3,24.4,14.3
	c15.5,0.1,28.1-12.4,28.2-27.8C324.9,285.1,316.5,274,304.3,270.7L304.3,270.7z"/>
<path class="st2" d="M333.7,336.9c4-3.7,7.3-7.9,10-12.6l10.6,3l7-25l-10.6-3c0.2-5.4-0.5-10.8-1.9-16l9.6-5.4l-12.7-22.7l-9.6,5.4
	c-3.7-4-7.9-7.3-12.6-10l3-10.6l-25-7l-3,10.6c-5.4-0.1-10.8,0.5-16,1.9L277,236l-22.7,12.7l5.4,9.6c-4,3.7-7.3,7.9-10,12.6l-10.6-3
	l-7,25l10.6,3c-0.2,5.4,0.5,10.8,1.9,16l-9.6,5.4l12.8,22.6l9.6-5.4c3.7,4,7.9,7.3,12.6,10l-3,10.6l25,7l3-10.6
	c5.4,0.2,10.8-0.5,16-1.9l5.4,9.6l22.7-12.7L333.7,336.9z M329.2,306.8c-5,17.9-23.6,28.4-41.5,23.4c0,0,0,0-0.1,0
	c-17.9-5-28.4-23.6-23.4-41.6c5-17.9,23.6-28.4,41.6-23.4C323.8,270.2,334.2,288.8,329.2,306.8L329.2,306.8L329.2,306.8z"/>
<path class="st2" d="M305.9,265.2c-17.9-5-36.6,5.4-41.6,23.3c-5,17.9,5.4,36.6,23.3,41.6s36.6-5.4,41.6-23.3c0,0,0,0,0,0
	C334.2,288.8,323.8,270.2,305.9,265.2C305.9,265.2,305.9,265.2,305.9,265.2z M323.7,305.2c-4.2,14.9-19.6,23.6-34.5,19.4
	c-14.9-4.2-23.6-19.6-19.4-34.5c4.2-14.9,19.6-23.6,34.5-19.4S327.9,290.3,323.7,305.2L323.7,305.2z"/>
<path class="st3" d="M420.5,404.1l7.6-4.3L417.6,381l-7.7,4.3c-2.7-2.9-5.9-5.3-9.3-7.3l2.4-8.4l-20.8-5.9l-2.4,8.5
	c-4-0.1-7.9,0.4-11.8,1.4l-4.3-7.7L345,376.4l4.3,7.7c-2.9,2.7-5.3,5.9-7.3,9.3l-8.5-2.4l-5.8,20.8l8.4,2.4c-0.1,4,0.4,7.9,1.4,11.7
	l-7.7,4.3l10.6,18.8l7.6-4.3c2.7,2.9,5.9,5.3,9.3,7.3l-2.4,8.4l20.8,5.8l2.4-8.4c4,0.1,7.9-0.4,11.8-1.4l4.3,7.7l18.8-10.6l-4.3-7.7
	c2.9-2.7,5.3-5.9,7.3-9.3l8.4,2.4l5.8-20.8l-8.4-2.4C422.1,411.9,421.6,407.9,420.5,404.1z M405.1,422.3
	c-4,14.4-18.9,22.7-33.3,18.7c0,0,0,0,0,0c-14.4-4-22.7-18.9-18.8-33.3c4-14.4,18.9-22.7,33.3-18.7c0,0,0.1,0,0.1,0
	C400.7,393,409.1,408,405.1,422.3L405.1,422.3z"/>
<path class="st4" d="M469.4,322.3c0-2.6-0.3-5.2-0.9-7.7l5.8-3.3l-8.5-15.2l-5.8,3.2c-1.8-1.8-3.9-3.4-6.1-4.8l1.8-6.4l-16.8-4.7
	l-1.8,6.4c-2.6,0-5.2,0.3-7.7,0.9l-3.2-5.8l-15.2,8.5l3.3,5.8c-1.8,1.8-3.4,3.9-4.8,6.1l-6.4-1.8l-4.7,16.8l6.4,1.8
	c0,2.6,0.3,5.2,0.9,7.7l-5.7,3.3l8.5,15.2l5.8-3.2c1.8,1.8,3.9,3.4,6.1,4.8l-1.8,6.4l16.8,4.7l1.8-6.4c2.6,0,5.2-0.3,7.7-0.9
	l3.2,5.8l15.2-8.5l-3.2-5.8c1.8-1.8,3.4-3.9,4.8-6.1l6.4,1.8l4.7-16.8L469.4,322.3z M437.1,334.2c-6.6,0-11.9-5.3-11.9-11.9
	c0-6.6,5.3-11.9,11.9-11.9c6.6,0,11.9,5.3,11.9,11.9c0,0,0,0,0,0C449,328.9,443.7,334.2,437.1,334.2z"/>
<path class="st5" d="M218.3,198.8h472.5c8,0,14.5,6.5,14.5,14.5v340.8c0,8-6.5,14.5-14.5,14.5H218.3c-8,0-14.5-6.5-14.5-14.5V213.2
	C203.8,205.2,210.3,198.8,218.3,198.8z"/>
<line class="st5" x1="659.7" y1="499.8" x2="705.2" y2="499.8"/>
<line class="st5" x1="203.8" y1="499.8" x2="501.8" y2="499.8"/>
<line class="st5" x1="328" y1="626.2" x2="581" y2="626.2"/>
<line class="st5" x1="391.8" y1="568.5" x2="391.8" y2="626.2"/>
<line class="st5" x1="517.2" y1="568.5" x2="517.2" y2="626.2"/>
<line class="st5" x1="653.6" y1="446.9" x2="507.9" y2="446.9"/>
<line class="st5" x1="567.4" y1="492" x2="594.1" y2="492"/>
<line class="st5" x1="653.6" y1="288.9" x2="508" y2="288.9"/>
<path class="st5" d="M523.7,243.9h114c12.1,0,21.9,9.8,21.9,21.9v249.3c0,12.1-9.8,21.9-21.9,21.9h-114c-12.1,0-21.9-9.8-21.9-21.9
	V265.8C501.8,253.7,511.6,243.9,523.7,243.9z"/>
<path class="st6" d="M305.3,266.4c-17.9-5-36.6,5.4-41.6,23.4s5.4,36.6,23.4,41.6c17.9,5,36.5-5.4,41.6-23.3
	c5.1-17.9-5.3-36.5-23.2-41.6C305.4,266.4,305.3,266.4,305.3,266.4z M323.1,306.4c-4.2,14.9-19.6,23.6-34.5,19.4
	c-14.9-4.2-23.6-19.6-19.4-34.5c3.9-15,19.2-23.9,34.2-20c15,3.9,23.9,19.2,20,34.2C323.3,305.7,323.2,306,323.1,306.4L323.1,306.4z
	"/>
<path class="st6" d="M333.2,338.1c4-3.7,7.3-7.9,10-12.6l10.6,3l7-25l-10.6-3c0.2-5.4-0.5-10.8-1.9-16l9.6-5.4l-12.8-22.7l-9.6,5.4
	c-3.7-4-7.9-7.3-12.6-10l3-10.6l-25-7l-3,10.6c-5.4-0.1-10.8,0.5-16,1.9l-5.4-9.6l-22.7,12.7l5.4,9.6c-4,3.7-7.3,7.9-10,12.6
	l-10.6-3l-7,25l10.6,3c-0.2,5.4,0.5,10.8,1.9,16l-9.6,5.4l12.7,22.7l9.6-5.4c3.7,4,7.9,7.3,12.6,10l-3,10.6l25,7l3-10.6
	c5.4,0.2,10.8-0.5,16-1.9l5.4,9.6l22.7-12.7L333.2,338.1z M250.3,313.7c-1.9-5.9-2.7-12.2-2.3-18.4l0.2-2.3l-9.5-2.7l3.9-14l9.6,2.7
	l1.1-2.1c2.8-5.5,6.7-10.5,11.4-14.5l1.8-1.5l-4.9-8.7l12.7-7.1l4.9,8.7l2.2-0.7c5.9-1.9,12.2-2.7,18.4-2.2l2.3,0.2l2.7-9.6l14,3.9
	l-2.7,9.6l2.1,1.1c5.5,2.8,10.5,6.7,14.5,11.5l1.5,1.8l8.7-4.9l7.1,12.7l-8.7,4.9l0.7,2.2c1.9,5.9,2.7,12.2,2.2,18.4l-0.2,2.3
	l9.5,2.7l-3.9,14l-9.5-2.7l-1.1,2.1c-2.8,5.5-6.7,10.5-11.5,14.5l-1.8,1.5l4.9,8.7l-12.7,7.1l-4.8-8.7l-2.2,0.7
	c-5.9,2-12.2,2.7-18.4,2.3l-2.3-0.2l-2.7,9.5l-14-3.9l2.7-9.5l-2.1-1.1c-5.5-2.8-10.5-6.7-14.5-11.5l-1.5-1.8l-8.7,4.9l-7.1-12.7"/>
<path class="st6" d="M424.6,321.8c0,6.6,5.3,11.9,11.9,11.9c6.6,0,11.9-5.3,11.9-11.9c0-6.6-5.3-11.9-11.9-11.9
	C430,309.8,424.6,315.2,424.6,321.8z M436.5,315.5c3.4,0,6.2,2.8,6.2,6.2c0,3.4-2.8,6.2-6.2,6.2c-3.4,0-6.2-2.8-6.2-6.2
	C430.4,318.3,433.1,315.6,436.5,315.5L436.5,315.5z"/>
<path class="st6" d="M424,439.3l5.8-20.8l-8.4-2.4c0.1-4-0.4-7.9-1.4-11.7l7.6-4.3l-10.6-18.8l-7.7,4.3c-2.7-2.9-5.9-5.3-9.3-7.3
	l2.4-8.4l-20.8-5.8l-2.4,8.5c-4-0.1-7.9,0.4-11.8,1.4l-4.3-7.7l-18.8,10.6l4.3,7.7c-2.9,2.7-5.3,5.9-7.3,9.3l-8.4-2.4l-5.8,20.8
	l8.4,2.4c-0.1,4,0.4,7.9,1.4,11.7l-7.7,4.3l10.6,18.8l7.6-4.3c2.7,2.9,5.9,5.3,9.3,7.3l-2.4,8.4l20.8,5.8l2.4-8.4
	c4,0.1,7.9-0.4,11.7-1.4l4.3,7.7l18.8-10.6l-4.3-7.7c2.9-2.7,5.3-5.9,7.3-9.3L424,439.3z M411.6,432.3c-2.2,4.3-5.2,8.1-8.8,11.2
	L401,445l3.8,6.7l-8.9,5l-3.8-6.7l-2.2,0.7c-4.6,1.5-9.4,2.1-14.2,1.7l-2.3-0.2l-2.1,7.4l-9.8-2.8l2.1-7.4l-2.1-1.1
	c-4.3-2.2-8.1-5.2-11.2-8.8l-1.5-1.8l-6.7,3.8l-5-8.9l6.7-3.8l-0.7-2.2c-1.5-4.6-2.1-9.4-1.7-14.2l0.2-2.3l-7.4-2.1l2.7-9.8l7.4,2.1
	l1.1-2.1c2.2-4.3,5.2-8.1,8.8-11.2l1.8-1.5l-3.8-6.7l8.9-5l3.8,6.7l2.2-0.7c4.6-1.5,9.4-2.1,14.2-1.7l2.3,0.2l2.1-7.4l9.8,2.8
	l-2.1,7.4l2.1,1.1c4.3,2.2,8.1,5.2,11.2,8.8l1.5,1.8l6.7-3.8l5,8.9l-6.7,3.8l0.7,2.2c1.5,4.6,2.1,9.4,1.7,14.2l-0.2,2.3l7.4,2.1
	l-2.8,9.8l-7.4-2.1L411.6,432.3z"/>
<path class="st6" d="M385.8,389.3c-14.3-4.1-29.3,4.3-33.3,18.6c-2,6.9-1.1,14.4,2.5,20.7c3.5,6.3,9.3,10.9,16.3,12.8
	c14.4,4,29.3-4.3,33.3-18.7c0,0,0-0.1,0-0.1C408.6,408.3,400.2,393.3,385.8,389.3z M399,421.1c-3.2,11.3-14.9,17.9-26.3,14.8
	c0,0,0,0,0,0c-11.3-3.2-17.9-15-14.7-26.3c2.6-9.2,11-15.6,20.5-15.6c11.8,0,21.3,9.6,21.3,21.4C399.8,417.3,399.5,419.2,399,421.1z
	"/>
<path class="st6" d="M425.6,284.6l-15.2,8.5l3.3,5.8c-1.8,1.8-3.4,3.9-4.8,6.1l-6.4-1.8l-4.7,16.8l6.4,1.8c0,2.6,0.3,5.2,0.9,7.7
	l-5.8,3.3l8.5,15.2l5.8-3.2c1.8,1.8,3.9,3.4,6.1,4.8l-1.8,6.4l16.8,4.7l1.8-6.4c2.6,0,5.2-0.3,7.7-0.9l3.2,5.8l15.2-8.5l-3.2-5.8
	c1.8-1.8,3.4-3.9,4.8-6.1l6.4,1.8l4.7-16.8l-6.4-1.8c0-2.6-0.3-5.2-0.9-7.7l5.8-3.3l-8.5-15.2l-5.8,3.2c-1.8-1.8-3.9-3.4-6.1-4.8
	l1.8-6.4l-16.8-4.7l-1.8,6.4c-2.6,0-5.2,0.3-7.7,0.9L425.6,284.6z M438.5,295.2l2.3,0.2l1.5-5.3l5.7,1.6l-1.5,5.3l2.1,1.1
	c3.1,1.6,5.8,3.7,8,6.3l1.5,1.8l4.8-2.7l2.9,5.2l-4.8,2.7l0.7,2.2c1.1,3.3,1.5,6.7,1.2,10.1l-0.2,2.3l5.3,1.5l-1.6,5.7l-5.3-1.5
	l-1.1,2.1c-1.6,3.1-3.7,5.8-6.3,8l-1.8,1.5l2.7,4.8l-5.2,2.9l-2.7-4.8l-2.2,0.7c-3.3,1.1-6.7,1.5-10.1,1.2l-2.3-0.2l-1.5,5.3
	l-5.7-1.6l1.5-5.3l-2.1-1.1c-3.1-1.6-5.8-3.7-8-6.3l-1.5-1.8l-4.8,2.7l-2.9-5.2l4.8-2.7l-0.7-2.2c-1.1-3.3-1.5-6.7-1.2-10.1l0.2-2.3
	l-5.2-1.5l1.6-5.7l5.3,1.5l1.1-2.1c1.6-3.1,3.7-5.8,6.3-8l1.8-1.5l-2.7-4.8l5.2-2.9l2.7,4.8l2.2-0.7
	C431.6,295.4,435.1,295,438.5,295.2L438.5,295.2z"/>
</svg>
