<?xml version="1.0" encoding="utf-8"?>
<!-- Generator: Adobe Illustrator 19.2.0, SVG Export Plug-In . SVG Version: 6.00 Build 0)  -->
<svg version="1.1" id="Capa_1" xmlns="http://www.w3.org/2000/svg" xmlns:xlink="http://www.w3.org/1999/xlink" x="0px" y="0px"
	 viewBox="0 0 464.8 384.4" style="enable-background:new 0 0 464.8 384.4;" xml:space="preserve">
<style type="text/css">
	.st0{fill:none;}
	.st1{fill:#FFFFFF;}
	.st2{fill:#3CBFBD;}
	.st3{fill:#0172B1;}
	.st4{fill:#7759A6;}
</style>
<circle class="st0" cx="280.3" cy="278.5" r="6.1"/>
<path class="st0" d="M307.1,173.8h-53.6c-0.4,0-0.7,0.3-0.7,0.7v83.6c0,0.4,0.3,0.7,0.7,0.7h53.6c0.4,0,0.7-0.3,0.7-0.7v-83.6
	C307.8,174.1,307.5,173.8,307.1,173.8z"/>
<path class="st0" d="M210.7,99.9h-53.6c-0.4,0-0.7,0.3-0.7,0.7v83.6c0,0.4,0.3,0.7,0.7,0.7h53.6c0.4,0,0.7-0.3,0.7-0.7v-83.6
	C211.4,100.2,211.1,99.9,210.7,99.9z"/>
<path class="st0" d="M193.5,202.8h-19.3c-0.4,0-0.7,0.3-0.7,0.7v2.1c0,0.4,0.3,0.7,0.7,0.7h19.3c0.4,0,0.7-0.3,0.7-0.7v-2.1
	C194.2,203.1,193.9,202.8,193.5,202.8z"/>
<path class="st1" d="M213.9,87h-60c-5.7,0-10.4,4.6-10.4,10.4v111.5c0,5.7,4.6,10.4,10.4,10.4h60c5.7,0,10.4-4.6,10.4-10.4V97.4
	C224.2,91.7,219.6,87,213.9,87z M199.2,205.6c0,3.2-2.6,5.7-5.7,5.7h-19.3c-3.2,0-5.7-2.6-5.7-5.7v-2.1c0-3.2,2.6-5.7,5.7-5.7h19.3
	c3.2,0,5.7,2.6,5.7,5.7V205.6z M216.4,184.2c0,3.2-2.6,5.7-5.7,5.7h-53.6c-3.2,0-5.7-2.6-5.7-5.7v-83.6c0-3.2,2.6-5.7,5.7-5.7h53.6
	c3.2,0,5.7,2.6,5.7,5.7L216.4,184.2L216.4,184.2z"/>
<path d="M213.9,82h-60c-8.5,0-15.4,6.9-15.4,15.4v111.5c0,8.5,6.9,15.4,15.4,15.4h60c8.5,0,15.4-6.9,15.4-15.4V97.4
	C229.2,88.9,222.4,82,213.9,82z M224.2,208.9c0,5.7-4.6,10.4-10.4,10.4h-60c-5.7,0-10.4-4.6-10.4-10.4V97.4
	c0-5.7,4.6-10.4,10.4-10.4h60c5.7,0,10.4,4.6,10.4,10.4V208.9z"/>
<path d="M210.7,94.9h-53.6c-3.2,0-5.7,2.6-5.7,5.7v83.6c0,3.2,2.6,5.7,5.7,5.7h53.6c3.2,0,5.7-2.6,5.7-5.7v-83.6
	C216.4,97.5,213.8,94.9,210.7,94.9z M211.4,184.2c0,0.4-0.3,0.7-0.7,0.7h-53.6c-0.4,0-0.7-0.3-0.7-0.7v-83.6c0-0.4,0.3-0.7,0.7-0.7
	h53.6c0.4,0,0.7,0.3,0.7,0.7L211.4,184.2L211.4,184.2z"/>
<path d="M193.5,197.8h-19.3c-3.2,0-5.7,2.6-5.7,5.7v2.1c0,3.2,2.6,5.7,5.7,5.7h19.3c3.2,0,5.7-2.6,5.7-5.7v-2.1
	C199.2,200.3,196.7,197.8,193.5,197.8z M194.2,205.6c0,0.4-0.3,0.7-0.7,0.7h-19.3c-0.4,0-0.7-0.3-0.7-0.7v-2.1
	c0-0.4,0.3-0.7,0.7-0.7h19.3c0.4,0,0.7,0.3,0.7,0.7V205.6z"/>
<path class="st1" d="M310.3,161h-60c-5.7,0-10.4,4.6-10.4,10.4v111.5c0,5.7,4.6,10.4,10.4,10.4h60c5.7,0,10.4-4.6,10.4-10.4V171.3
	C320.7,165.6,316,161,310.3,161z M280.3,289.6c-6.1,0-11.1-5-11.1-11.1s5-11.1,11.1-11.1s11.1,5,11.1,11.1S286.4,289.6,280.3,289.6z
	 M312.8,258.1c0,3.2-2.6,5.7-5.7,5.7h-53.6c-3.2,0-5.7-2.6-5.7-5.7v-83.6c0-3.2,2.6-5.7,5.7-5.7h53.6c3.2,0,5.7,2.6,5.7,5.7V258.1z"
	/>
<path d="M310.3,156h-60c-8.5,0-15.4,6.9-15.4,15.4v111.5c0,8.5,6.9,15.4,15.4,15.4h60c8.5,0,15.4-6.9,15.4-15.4V171.3
	C325.7,162.8,318.8,156,310.3,156z M320.7,282.8c0,5.7-4.6,10.4-10.4,10.4h-60c-5.7,0-10.4-4.6-10.4-10.4V171.3
	c0-5.7,4.6-10.4,10.4-10.4h60c5.7,0,10.4,4.6,10.4,10.4V282.8z"/>
<path d="M280.3,267.4c-6.1,0-11.1,5-11.1,11.1s5,11.1,11.1,11.1s11.1-5,11.1-11.1S286.4,267.4,280.3,267.4z M280.3,284.6
	c-3.3,0-6.1-2.7-6.1-6.1s2.7-6.1,6.1-6.1s6.1,2.7,6.1,6.1S283.7,284.6,280.3,284.6z"/>
<path d="M307.1,168.8h-53.6c-3.2,0-5.7,2.6-5.7,5.7v83.6c0,3.2,2.6,5.7,5.7,5.7h53.6c3.2,0,5.7-2.6,5.7-5.7v-83.6
	C312.8,171.4,310.3,168.8,307.1,168.8z M307.8,258.1c0,0.4-0.3,0.7-0.7,0.7h-53.6c-0.4,0-0.7-0.3-0.7-0.7v-83.6
	c0-0.4,0.3-0.7,0.7-0.7h53.6c0.4,0,0.7,0.3,0.7,0.7V258.1z"/>
<path class="st2" d="M211.4,184.2c0,0.4-0.3,0.7-0.7,0.7h-53.6c-0.4,0-0.7-0.3-0.7-0.7v-83.6c0-0.4,0.3-0.7,0.7-0.7h53.6
	c0.4,0,0.7,0.3,0.7,0.7L211.4,184.2L211.4,184.2z"/>
<path class="st3" d="M194.2,205.6c0,0.4-0.3,0.7-0.7,0.7h-19.3c-0.4,0-0.7-0.3-0.7-0.7v-2.1c0-0.4,0.3-0.7,0.7-0.7h19.3
	c0.4,0,0.7,0.3,0.7,0.7V205.6z"/>
<path class="st4" d="M307.8,258.1c0,0.4-0.3,0.7-0.7,0.7h-53.6c-0.4,0-0.7-0.3-0.7-0.7v-83.6c0-0.4,0.3-0.7,0.7-0.7h53.6
	c0.4,0,0.7,0.3,0.7,0.7V258.1z"/>
<circle class="st3" cx="280.3" cy="278.5" r="6.1"/>
<g>
	<path d="M267.2,228.6c-0.5,0-1.1-0.2-1.4-0.5l-10.9-9.5c-0.4-0.4-0.8-1.1-0.8-1.7c0-0.6,0.3-1.2,0.8-1.7l10.9-9.5
		c0.9-0.8,2.3-0.7,3.1,0.2c0.8,0.9,0.7,2.3-0.2,3.1l-9,7.8l9,7.9c0.9,0.8,1,2.2,0.2,3.1C268.4,228.4,267.8,228.6,267.2,228.6z"/>
	<path d="M293.5,228.6c-0.6,0-1.2-0.3-1.7-0.8c-0.8-0.9-0.7-2.3,0.2-3.1l9-7.9l-9-7.8c-0.9-0.8-1.1-2.2-0.2-3.1
		c0.8-0.9,2.2-1.1,3.1-0.2l10.9,9.5c0.4,0.4,0.8,1.1,0.8,1.7s-0.3,1.2-0.8,1.7l-10.9,9.5C294.5,228.5,294,228.6,293.5,228.6z"/>
	<path d="M276.8,233.4c-0.2,0-0.4,0-0.6-0.1c-1.1-0.4-1.9-1.6-1.5-2.7l8.7-29.7c0.4-1.1,1.6-1.9,2.7-1.5s1.9,1.6,1.5,2.7l-8.7,29.7
		C278.7,232.8,277.8,233.4,276.8,233.4z"/>
</g>
<g>
	<path d="M170.8,153.7c-0.5,0-1.1-0.2-1.4-0.5l-10.9-9.5c-0.4-0.4-0.8-1.1-0.8-1.7c0-0.6,0.3-1.2,0.8-1.7l10.9-9.5
		c0.9-0.8,2.3-0.7,3.1,0.2s0.7,2.3-0.2,3.1l-9,7.8l9,7.9c0.9,0.8,1,2.2,0.2,3.1C171.9,153.5,171.3,153.7,170.8,153.7z"/>
	<path d="M197.1,153.7c-0.6,0-1.2-0.3-1.7-0.8c-0.8-0.9-0.7-2.3,0.2-3.1l9-7.9l-9-7.8c-0.9-0.8-1.1-2.2-0.2-3.1
		c0.8-0.9,2.2-1.1,3.1-0.2l10.9,9.5c0.4,0.4,0.8,1.1,0.8,1.7s-0.3,1.2-0.8,1.7l-10.9,9.5C198.1,153.6,197.6,153.7,197.1,153.7z"/>
	<path d="M180.3,158.5c-0.2,0-0.4,0-0.6-0.1c-1.1-0.4-1.9-1.6-1.5-2.7l8.7-29.7c0.4-1.1,1.6-1.9,2.7-1.5c1.1,0.4,1.9,1.6,1.5,2.7
		l-8.7,29.7C182.2,157.9,181.3,158.5,180.3,158.5z"/>
</g>
</svg>
