<?xml version="1.0" encoding="utf-8"?>
<!-- Generator: Adobe Illustrator 19.2.0, SVG Export Plug-In . SVG Version: 6.00 Build 0)  -->
<svg version="1.1" id="Capa_1" xmlns="http://www.w3.org/2000/svg" xmlns:xlink="http://www.w3.org/1999/xlink" x="0px" y="0px"
	 viewBox="0 0 464.8 384.4" style="enable-background:new 0 0 464.8 384.4;" xml:space="preserve">
<style type="text/css">
	.st0{fill:#3CBFBD;}
	.st1{fill:#FFFFFF;}
	.st2{fill:#7759A6;}
</style>
<path d="M322.8,216c0-7.8-6.3-14.1-14.1-14.1H226V168c0-1.4-1.1-2.5-2.5-2.5s-2.5,1.1-2.5,2.5v33.8h-73.7c-7.8,0-14.1,6.3-14.1,14.1
	v39.2c0,1.4,1.1,2.5,2.5,2.5s2.5-1.1,2.5-2.5v-39.2c0-5,4.1-9.1,9.1-9.1H221v49.4c0,1.4,1.1,2.5,2.5,2.5l0,0c1.4,0,2.5-1.1,2.5-2.5
	V207h82.7c5,0,9.1,4.1,9.1,9.1v39.1c0,1.4,1.1,2.5,2.5,2.5l0,0c1.4,0,2.5-1.1,2.5-2.5L322.8,216z"/>
<g>
	<path class="st0" d="M318.1,140.9c0,19.1-15.4,34.5-34.5,34.5h-99.2c-21.4,0-38.8-17.4-38.8-38.8c0-16.9,10.8-31.3,25.9-36.6
		c0-0.7-0.1-1.5-0.1-2.2c0-23.8,19.3-43.1,43.1-43.1c16,0,29.9,8.7,37.4,21.6c4.1-2.7,9.1-4.4,14.4-4.4c14.3,0,25.9,11.6,25.9,25.9
		c0,3.3-0.6,6.4-1.7,9.3C306.2,110.3,318.1,124.3,318.1,140.9z"/>
</g>
<path d="M283.6,177.9h-99.2c-22.8,0-41.3-18.5-41.3-41.3c0-16.9,10.3-32.1,25.9-38.3c0-0.2,0-0.3,0-0.5c0-25.2,20.5-45.6,45.6-45.6
	c15.4,0,29.8,7.9,38.2,20.7c4.1-2.3,8.8-3.4,13.5-3.4c15.6,0,28.4,12.7,28.4,28.4c0,2.6-0.3,5.1-1,7.5c15.7,4.4,26.9,19,26.9,35.6
	C320.6,161.3,304,177.9,283.6,177.9z M214.6,57.2c-22.4,0-40.6,18.2-40.6,40.6c0,0.7,0,1.4,0.1,2.1l0.1,1.8l-1.7,0.6
	c-14.5,5.1-24.3,18.9-24.3,34.3c0,20,16.3,36.3,36.3,36.3h99.2c17.6,0,32-14.4,32-32c0-15.2-10.8-28.3-25.6-31.3l-2.9-0.6l1.1-2.8
	c1-2.7,1.6-5.5,1.6-8.4c0-12.9-10.5-23.4-23.4-23.4c-4.6,0-9.1,1.4-13,3.9l-2.2,1.5l-1.3-2.3C242.5,65,229,57.2,214.6,57.2z"/>
<g>
	<g>
		<path d="M166.5,310.2v5.7c0,3.6-3,6.6-6.6,6.6h-48.4c-3.6,0-6.6-3-6.6-6.6v-5.7c0-10.2,8.3-18.5,18.5-18.5c4,0,5.8,2.2,12.3,2.2
			s8.4-2.2,12.3-2.2C158.2,291.7,166.5,300,166.5,310.2z M162.1,310.2c0-7.8-6.3-14.1-14.1-14.1c-2.7,0-5.4,2.2-12.3,2.2
			c-6.9,0-9.6-2.2-12.3-2.2c-7.8,0-14.1,6.3-14.1,14.1v5.7c0,1.2,1,2.2,2.2,2.2h48.4c1.2,0,2.2-1,2.2-2.2L162.1,310.2L162.1,310.2z
			 M118.1,269.7c0-9.7,7.9-17.6,17.6-17.6s17.6,7.9,17.6,17.6s-7.9,17.6-17.6,17.6S118.1,279.4,118.1,269.7z M122.5,269.7
			c0,7.3,5.9,13.2,13.2,13.2s13.2-5.9,13.2-13.2s-5.9-13.2-13.2-13.2S122.5,262.4,122.5,269.7z"/>
	</g>
	<path class="st0" d="M162.1,310.2c0-7.8-6.3-14.1-14.1-14.1c-2.7,0-5.4,2.2-12.3,2.2c-6.9,0-9.6-2.2-12.3-2.2
		c-7.8,0-14.1,6.3-14.1,14.1v5.7c0,1.2,1,2.2,2.2,2.2h48.4c1.2,0,2.2-1,2.2-2.2L162.1,310.2L162.1,310.2z"/>
	<path class="st0" d="M122.5,269.7c0,7.3,5.9,13.2,13.2,13.2s13.2-5.9,13.2-13.2s-5.9-13.2-13.2-13.2S122.5,262.4,122.5,269.7z"/>
</g>
<g>
	<path class="st1" d="M245.5,318.3v-41.8h-14.3c-1.8,0-3.3-1.5-3.3-3.3v-14.3h-24.2c-1.2,0-2.2,1-2.2,2.2v57.2c0,1.2,1,2.2,2.2,2.2
		h39.6C244.5,320.5,245.5,319.5,245.5,318.3z"/>
	<path class="st1" d="M233.2,259.6c-0.3-0.3-0.6-0.5-1-0.6v14.5h13.3c-0.1-0.4-0.3-0.8-0.6-1.1L233.2,259.6z"/>
	<path d="M249.9,272.6v45.7c0,3.6-3,6.6-6.6,6.6h-39.6c-3.6,0-6.6-3-6.6-6.6v-57.2c0-3.6,3-6.6,6.6-6.6h28.1c1.7,0,3.4,0.7,4.7,1.9
		l11.5,11.5C249.2,269.2,249.9,270.8,249.9,272.6z M245.5,318.3v-41.8h-14.3c-1.8,0-3.3-1.5-3.3-3.3v-14.3h-24.2
		c-1.2,0-2.2,1-2.2,2.2v57.2c0,1.2,1,2.2,2.2,2.2h39.6C244.5,320.5,245.5,319.5,245.5,318.3z M236.7,288c0,0.9-0.7,1.7-1.6,1.7H212
		c-0.9,0-1.7-0.7-1.7-1.7v-1.1c0-0.9,0.7-1.7,1.7-1.7h23c0.9,0,1.6,0.7,1.6,1.7L236.7,288L236.7,288z M236.7,296.8
		c0,0.9-0.7,1.7-1.6,1.7H212c-0.9,0-1.7-0.7-1.7-1.7v-1.1c0-0.9,0.7-1.7,1.7-1.7h23c0.9,0,1.6,0.7,1.6,1.7L236.7,296.8L236.7,296.8z
		 M236.7,305.6c0,0.9-0.7,1.7-1.6,1.7H212c-0.9,0-1.7-0.7-1.7-1.7v-1.1c0-0.9,0.7-1.7,1.7-1.7h23c0.9,0,1.6,0.7,1.6,1.7L236.7,305.6
		L236.7,305.6z M233.2,259.6c-0.3-0.3-0.6-0.5-1-0.6v14.5h13.3c-0.1-0.4-0.3-0.8-0.6-1.1L233.2,259.6z"/>
</g>
<g>
	<g>
		<path d="M359.9,259.7v39.6c0,3.6-3,6.6-6.6,6.6h-26.4l3.3,13.2h9.9c1.2,0,2.2,1,2.2,2.2s-1,2.2-2.2,2.2h-39.6
			c-1.2,0-2.2-1-2.2-2.2s1-2.2,2.2-2.2h9.9l3.3-13.2h-26.4c-3.6,0-6.6-3-6.6-6.6v-39.6c0-3.6,3-6.6,6.6-6.6h66
			C356.9,253.1,359.9,256.1,359.9,259.7z M355.5,259.7c0-1.2-1-2.2-2.2-2.2h-66c-1.2,0-2.2,1-2.2,2.2v39.6c0,1.2,1,2.2,2.2,2.2h66
			c1.2,0,2.2-1,2.2-2.2V259.7z M325.6,319.1l-2.2-8.8h-6.3l-2.2,8.8H325.6z"/>
	</g>
	<path class="st2" d="M355.5,259.7c0-1.2-1-2.2-2.2-2.2h-66c-1.2,0-2.2,1-2.2,2.2v39.6c0,1.2,1,2.2,2.2,2.2h66c1.2,0,2.2-1,2.2-2.2
		V259.7z"/>
	<polygon class="st2" points="325.6,319.1 323.4,310.3 317.1,310.3 314.9,319.1 	"/>
</g>
</svg>
