<?xml version="1.0" encoding="utf-8"?>
<!-- Generator: Adobe Illustrator 19.2.0, SVG Export Plug-In . SVG Version: 6.00 Build 0)  -->
<svg version="1.1" id="Capa_1" xmlns="http://www.w3.org/2000/svg" xmlns:xlink="http://www.w3.org/1999/xlink" x="0px" y="0px"
	 viewBox="0 0 464.8 384.4" style="enable-background:new 0 0 464.8 384.4;" xml:space="preserve">
<style type="text/css">
	.st0{fill:#FFFFFF;}
	.st1{fill:none;}
	.st2{fill:#7759A6;}
	.st3{fill:#3CBFBD;}
</style>
<path class="st0" d="M332.3,250.3c1.7,0,3.2-1.4,3.2-3.2V110.7c0-1.7-1.4-3.2-3.2-3.2H132.5c-1.7,0-3.2,1.4-3.2,3.2v136.4
	c0,1.7,1.4,3.2,3.2,3.2h76.1h47.5L332.3,250.3L332.3,250.3z"/>
<path d="M332.3,102.6H132.5c-4.5,0-8.2,3.7-8.2,8.2v136.4c0,4.5,3.7,8.2,8.2,8.2h76.1v-5h-76.1c-1.7,0-3.2-1.4-3.2-3.2V110.7
	c0-1.7,1.4-3.2,3.2-3.2h199.7c1.7,0,3.2,1.4,3.2,3.2v136.4c0,1.7-1.4,3.2-3.2,3.2h-76.1v5h76.1c4.5,0,8.2-3.7,8.2-8.2V110.7
	C340.4,106.2,336.8,102.6,332.3,102.6z"/>
<path class="st0" d="M178.2,271.3v5.2c0,0.2,0.2,0.3,0.3,0.3h107.7c0.2,0,0.3-0.1,0.3-0.3v-5.2c0-0.2-0.1-0.3-0.3-0.3h-30.1h-47.5
	h-30.1C178.4,271,178.2,271.1,178.2,271.3z"/>
<path d="M256.2,271h30.1c0.2,0,0.3,0.2,0.3,0.3v5.2c0,0.2-0.1,0.3-0.3,0.3H178.5c-0.2,0-0.3-0.1-0.3-0.3v-5.2c0-0.2,0.2-0.3,0.3-0.3
	h30.1v-5h-30.1c-2.9,0-5.3,2.4-5.3,5.3v5.2c0,2.9,2.4,5.3,5.3,5.3h107.7c2.9,0,5.3-2.4,5.3-5.3v-5.2c0-2.9-2.4-5.3-5.3-5.3h-30.1v5
	H256.2z"/>
<rect x="213.6" y="255.3" class="st0" width="37.5" height="10.7"/>
<path d="M256.2,250.3h-47.5v5V266v5h47.5v-5v-10.7V250.3z M251.2,266h-37.5v-10.7h37.5V266z"/>
<g>
	<g>
		<line class="st1" x1="211.7" y1="143.5" x2="146.4" y2="143.5"/>
		<path class="st2" d="M211.7,146h-65.3c-1.4,0-2.5-1.1-2.5-2.5s1.1-2.5,2.5-2.5h65.3c1.4,0,2.5,1.1,2.5,2.5S213.1,146,211.7,146z"
			/>
	</g>
	<g>
		<line class="st1" x1="202.2" y1="158.5" x2="146.4" y2="158.5"/>
		<path class="st3" d="M202.2,161h-55.8c-1.4,0-2.5-1.1-2.5-2.5s1.1-2.5,2.5-2.5h55.8c1.4,0,2.5,1.1,2.5,2.5S203.6,161,202.2,161z"
			/>
	</g>
	<g>
		<line class="st1" x1="211.7" y1="128.5" x2="146.4" y2="128.5"/>
		<path class="st3" d="M211.7,131h-65.3c-1.4,0-2.5-1.1-2.5-2.5s1.1-2.5,2.5-2.5h65.3c1.4,0,2.5,1.1,2.5,2.5
			C214.2,129.9,213.1,131,211.7,131z"/>
	</g>
	<g>
		<line class="st1" x1="211.7" y1="173.5" x2="146.4" y2="173.5"/>
		<path class="st3" d="M211.7,176h-65.3c-1.4,0-2.5-1.1-2.5-2.5s1.1-2.5,2.5-2.5h65.3c1.4,0,2.5,1.1,2.5,2.5S213.1,176,211.7,176z"
			/>
	</g>
	<g>
		<line class="st1" x1="202.2" y1="187.5" x2="146.4" y2="187.5"/>
		<path class="st3" d="M202.2,190h-55.8c-1.4,0-2.5-1.1-2.5-2.5s1.1-2.5,2.5-2.5h55.8c1.4,0,2.5,1.1,2.5,2.5S203.6,190,202.2,190z"
			/>
	</g>
	<g>
		<line class="st1" x1="211.7" y1="215.5" x2="146.4" y2="215.5"/>
		<path class="st3" d="M211.7,218h-65.3c-1.4,0-2.5-1.1-2.5-2.5s1.1-2.5,2.5-2.5h65.3c1.4,0,2.5,1.1,2.5,2.5S213.1,218,211.7,218z"
			/>
	</g>
	<g>
		<line class="st1" x1="211.7" y1="229.5" x2="146.4" y2="229.5"/>
		<path class="st2" d="M211.7,232h-65.3c-1.4,0-2.5-1.1-2.5-2.5s1.1-2.5,2.5-2.5h65.3c1.4,0,2.5,1.1,2.5,2.5S213.1,232,211.7,232z"
			/>
	</g>
	<g>
		<line class="st1" x1="242.7" y1="158.5" x2="214.8" y2="158.5"/>
		<path class="st2" d="M242.7,161h-27.9c-1.4,0-2.5-1.1-2.5-2.5s1.1-2.5,2.5-2.5h27.9c1.4,0,2.5,1.1,2.5,2.5S244.1,161,242.7,161z"
			/>
	</g>
	<g>
		<line class="st1" x1="259.1" y1="173.5" x2="226.4" y2="173.5"/>
		<path class="st3" d="M259.1,176h-32.6c-1.4,0-2.5-1.1-2.5-2.5s1.1-2.5,2.5-2.5h32.6c1.4,0,2.5,1.1,2.5,2.5S260.4,176,259.1,176z"
			/>
	</g>
	<g>
		<line class="st1" x1="242.7" y1="187.5" x2="214.8" y2="187.5"/>
		<path class="st2" d="M242.7,190h-27.9c-1.4,0-2.5-1.1-2.5-2.5s1.1-2.5,2.5-2.5h27.9c1.4,0,2.5,1.1,2.5,2.5S244.1,190,242.7,190z"
			/>
	</g>
	<g>
		<line class="st1" x1="196" y1="201.5" x2="146.4" y2="201.5"/>
		<path class="st3" d="M196,204h-49.6c-1.4,0-2.5-1.1-2.5-2.5s1.1-2.5,2.5-2.5H196c1.4,0,2.5,1.1,2.5,2.5S197.4,204,196,204z"/>
	</g>
	<g>
		<line class="st1" x1="259.1" y1="215.5" x2="226.4" y2="215.5"/>
		<path class="st3" d="M259.1,218h-32.6c-1.4,0-2.5-1.1-2.5-2.5s1.1-2.5,2.5-2.5h32.6c1.4,0,2.5,1.1,2.5,2.5S260.4,218,259.1,218z"
			/>
	</g>
	<g>
		<line class="st1" x1="286" y1="229.5" x2="226.4" y2="229.5"/>
		<path class="st3" d="M286,232h-59.6c-1.4,0-2.5-1.1-2.5-2.5s1.1-2.5,2.5-2.5H286c1.4,0,2.5,1.1,2.5,2.5S287.4,232,286,232z"/>
	</g>
	<g>
		<line class="st1" x1="286" y1="143.5" x2="224.2" y2="143.5"/>
		<path class="st3" d="M286,146h-61.8c-1.4,0-2.5-1.1-2.5-2.5s1.1-2.5,2.5-2.5H286c1.4,0,2.5,1.1,2.5,2.5S287.4,146,286,146z"/>
	</g>
	<g>
		<line class="st1" x1="300" y1="158.5" x2="254.4" y2="158.5"/>
		<path class="st3" d="M300,161h-45.6c-1.4,0-2.5-1.1-2.5-2.5s1.1-2.5,2.5-2.5H300c1.4,0,2.5,1.1,2.5,2.5S301.4,161,300,161z"/>
	</g>
	<g>
		<line class="st1" x1="318" y1="187.5" x2="256.2" y2="187.5"/>
		<path class="st3" d="M318,190h-61.8c-1.4,0-2.5-1.1-2.5-2.5s1.1-2.5,2.5-2.5H318c1.4,0,2.5,1.1,2.5,2.5S319.4,190,318,190z"/>
	</g>
	<g>
		<line class="st1" x1="300" y1="215.5" x2="272.4" y2="215.5"/>
		<path class="st2" d="M300,218h-27.6c-1.4,0-2.5-1.1-2.5-2.5s1.1-2.5,2.5-2.5H300c1.4,0,2.5,1.1,2.5,2.5S301.4,218,300,218z"/>
	</g>
</g>
<g>
	<path class="st0" d="M174.6,88.8h-72.3c-1.7,0-3.2,1.4-3.2,3.2v115.4c0,1.7,1.4,3.2,3.2,3.2h72.3c1.7,0,3.2-1.4,3.2-3.2V92
		C177.7,90.2,176.3,88.8,174.6,88.8z"/>
	<path d="M174.6,83.8h-72.3c-4.5,0-8.2,3.7-8.2,8.2v115.4c0,4.5,3.7,8.2,8.2,8.2h72.3c4.5,0,8.2-3.7,8.2-8.2V92
		C182.7,87.5,179.1,83.8,174.6,83.8z M177.7,207.3c0,1.7-1.4,3.2-3.2,3.2h-72.3c-1.7,0-3.2-1.4-3.2-3.2V92c0-1.7,1.4-3.2,3.2-3.2
		h72.3c1.7,0,3.2,1.4,3.2,3.2V207.3z"/>
</g>
<g>
	<path d="M123.5,163.6c-0.6,0-1.2-0.2-1.6-0.6l-12.3-10.8c-0.5-0.5-0.9-1.2-0.9-1.9s0.3-1.4,0.9-1.9l12.3-10.7
		c1-0.9,2.6-0.8,3.5,0.2s0.8,2.6-0.2,3.5l-10.2,8.8l10.2,8.9c1,0.9,1.1,2.5,0.2,3.5C124.9,163.3,124.2,163.6,123.5,163.6z"/>
	<path d="M153.3,163.6c-0.7,0-1.4-0.3-1.9-0.9c-0.9-1-0.8-2.6,0.2-3.5l10.2-8.9l-10.2-8.8c-1-0.9-1.2-2.5-0.2-3.5
		c0.9-1,2.5-1.2,3.5-0.2l12.3,10.7c0.5,0.5,0.9,1.2,0.9,1.9s-0.3,1.4-0.9,1.9L154.9,163C154.5,163.4,153.9,163.6,153.3,163.6z"/>
	<path d="M134.4,169c-0.2,0-0.5,0-0.7-0.1c-1.3-0.4-2.1-1.8-1.7-3.1l9.8-33.6c0.4-1.3,1.8-2.1,3.1-1.7c1.3,0.4,2.1,1.8,1.7,3.1
		l-9.8,33.6C136.5,168.3,135.5,169,134.4,169z"/>
</g>
</svg>
