<?xml version="1.0" encoding="utf-8"?>
<!-- Generator: Adobe Illustrator 19.2.0, SVG Export Plug-In . SVG Version: 6.00 Build 0)  -->
<svg version="1.1" id="Capa_1" xmlns="http://www.w3.org/2000/svg" xmlns:xlink="http://www.w3.org/1999/xlink" x="0px" y="0px"
	 viewBox="0 0 1044 904" style="enable-background:new 0 0 1044 904;" xml:space="preserve">
<style type="text/css">
	.st0{fill:#98A1AD;}
	.st1{fill:url(#XMLID_10_);}
	.st2{fill:url(#XMLID_13_);}
	.st3{fill:url(#XMLID_14_);}
	.st4{fill:url(#XMLID_15_);}
	.st5{fill:url(#XMLID_16_);}
	.st6{fill:#445568;}
	.st7{fill:#8DC6C6;}
	.st8{fill:#EAB75D;}
	.st9{fill:#DAA585;}
	.st10{fill:#E5E5E6;}
	.st11{fill:#424243;}
	.st12{fill:url(#XMLID_17_);}
	.st13{fill:#4071AB;}
	.st14{fill:#4274AD;}
	.st15{fill:#325987;}
	.st16{fill:#977761;}
	.st17{fill:url(#XMLID_18_);}
	.st18{opacity:0.1;fill:#778DAC;}
	.st19{fill:url(#XMLID_19_);}
	.st20{opacity:0.07;fill:#222220;}
	.st21{fill:url(#XMLID_20_);}
	.st22{fill:#E6B296;}
</style>
<g id="XMLID_449_">
	<g id="XMLID_606_">
		
			<rect id="XMLID_607_" x="807.155" y="245.816" transform="matrix(0.7406 -0.672 0.672 0.7406 9.6308 621.2)" class="st0" width="4.33" height="104.624"/>
	</g>
	<g id="XMLID_599_">
		<linearGradient id="XMLID_10_" gradientUnits="userSpaceOnUse" x1="199.4337" y1="545.731" x2="670.4907" y2="545.731">
			<stop  offset="0" style="stop-color:#523B7D"/>
			<stop  offset="1" style="stop-color:#6F599F"/>
		</linearGradient>
		<path id="XMLID_603_" class="st1" d="M655.953,500.406l-39.044-1.238c-7.325-16.129-16.734-31.169-27.992-44.745l15.913-35.645
			l-71.305-50.732l-28.46,26.707c-10.932-4.101-22.213-7.2-33.71-9.315l13.178-24.453c-9.199-5.781-18.812-10.743-28.718-14.885
			l-2.117-38.599l-83.1-12.006l-12.969,36.405c-7.944,0.871-15.87,2.219-23.712,4.056l13.953,66.129
			c-14.541,7.02-28.139,15.723-40.486,25.972l-35.647-15.912l-50.732,71.304l26.708,28.459
			c-6.192,16.506-10.152,33.795-11.783,51.438l-36.497,13.973l14.539,86.288l39.055,1.238c7.329,16.139,16.738,31.177,27.991,44.735
			l-15.913,35.644l71.305,50.744l28.46-26.707c7.763,2.906,15.758,5.336,23.783,7.232l2.204,0.521l18.461-97.502l-1.906-0.54
			c-11.022-3.123-21.41-8.121-30.873-14.855c-45.269-32.223-55.892-95.268-23.68-140.538c15.605-21.931,38.819-36.471,65.365-40.944
			c26.553-4.472,53.243,1.658,75.174,17.264c31.766,22.604,47.745,62.005,40.707,100.377l-0.368,2.005l96.28,23.719l0.465-2.186
			c1.624-7.627,2.808-15.411,3.524-23.158l36.484-13.96L655.953,500.406z M417.505,478.363
			c-13.966,2.353-27.043,7.385-38.667,14.723l-44.838-78.579c4.807-2.891,9.73-5.6,14.788-8.076l4.715,22.343
			c29.385-7.603,61.006-1.827,85.861,16.032l29.83-55.353c4.835,0.853,9.632,1.883,14.379,3.098l-16.593,89.315
			C451.193,476.801,434.323,475.529,417.505,478.363z"/>
		<linearGradient id="XMLID_13_" gradientUnits="userSpaceOnUse" x1="434.9627" y1="655.1766" x2="533.0302" y2="655.1766">
			<stop  offset="0" style="stop-color:#523B7D"/>
			<stop  offset="1" style="stop-color:#6F599F"/>
		</linearGradient>
		<path id="XMLID_602_" class="st2" d="M529.012,621.214c-15.502,38.633-52.418,63.596-94.05,63.596v4.33
			c43.41,0,81.904-26.03,98.067-66.313L529.012,621.214z"/>
		<linearGradient id="XMLID_14_" gradientUnits="userSpaceOnUse" x1="434.9627" y1="701.9835" x2="521.3206" y2="701.9835">
			<stop  offset="0" style="stop-color:#523B7D"/>
			<stop  offset="1" style="stop-color:#6F599F"/>
		</linearGradient>
		<path id="XMLID_601_" class="st3" d="M434.963,714.356v4.33c31.697,0,61.56-10.377,86.358-30.01l-2.688-3.394
			C494.607,704.302,465.675,714.356,434.963,714.356z"/>
		<linearGradient id="XMLID_15_" gradientUnits="userSpaceOnUse" x1="531.0369" y1="687.0765" x2="596.2729" y2="687.0765">
			<stop  offset="0" style="stop-color:#523B7D"/>
			<stop  offset="1" style="stop-color:#6F599F"/>
		</linearGradient>
		<path id="XMLID_600_" class="st4" d="M531.037,721.943l2.423,3.588c27.677-18.698,49.397-44.689,62.813-75.165l-3.963-1.745
			C579.224,678.349,558.036,703.703,531.037,721.943z"/>
	</g>
	<linearGradient id="XMLID_16_" gradientUnits="userSpaceOnUse" x1="451.6609" y1="249.9433" x2="641.4485" y2="249.9433">
		<stop  offset="0" style="stop-color:#5BA0A8"/>
		<stop  offset="1" style="stop-color:#75BCBA"/>
	</linearGradient>
	<path id="XMLID_596_" class="st5" d="M621.765,278.682c2.709-7.075,4.357-14.405,4.99-21.77l14.694-5.623l-2.84-16.854
		l-2.84-16.854l-15.725-0.499c-3.011-6.751-6.969-13.137-11.847-18.933l6.408-14.354l-13.925-9.91l-13.925-9.909l-11.462,10.757
		c-7.075-2.709-14.405-4.357-21.77-4.989l-5.623-14.694l-16.854,2.839l-16.854,2.84l-0.499,15.725
		c-6.752,3.011-13.136,6.97-18.934,11.847l-14.354-6.408l-9.91,13.925l-9.909,13.925l10.758,11.462
		c-2.709,7.075-4.357,14.405-4.99,21.77l-14.693,5.623l2.839,16.854l2.84,16.854l15.725,0.499
		c3.011,6.752,6.969,13.137,11.847,18.933l-6.408,14.354l13.925,9.91l13.925,9.91l11.462-10.758
		c7.075,2.709,14.405,4.357,21.77,4.989l5.624,14.694l16.854-2.839l16.854-2.839l0.499-15.725
		c6.752-3.011,13.137-6.969,18.933-11.847l14.354,6.408l9.91-13.925l9.909-13.925L621.765,278.682z M522.257,284.086
		c-18.857-13.419-23.265-39.584-9.846-58.441c13.419-18.856,39.584-23.265,58.441-9.846c18.857,13.419,23.265,39.584,9.846,58.441
		C567.279,293.097,541.114,297.506,522.257,284.086z"/>
	<g id="XMLID_594_">
		<path id="XMLID_595_" class="st6" d="M774.167,261.803c5.654,0,10.254-4.6,10.254-10.254h-2.416c0,4.322-3.516,7.839-7.838,7.839
			c-4.322,0-7.838-3.517-7.838-7.839c0-4.322,3.516-7.838,7.838-7.838h1.208V-22.652h-2.416v264.018
			c-5.087,0.6-9.046,4.938-9.046,10.183C763.912,257.203,768.513,261.803,774.167,261.803z"/>
	</g>
	<g id="XMLID_592_">
		
			<rect id="XMLID_593_" x="771.386" y="182.226" transform="matrix(-1 -1.224647e-16 1.224647e-16 -1 1548.5452 423.0675)" class="st0" width="5.773" height="58.615"/>
	</g>
	<g id="XMLID_590_">
		<polygon id="XMLID_591_" class="st0" points="705.569,338.323 702.364,335.412 774.258,256.267 777.182,259.489 		"/>
	</g>
	<path id="XMLID_588_" class="st7" d="M892.726,414.232c8.203-6.157,15.846-12.9,22.889-20.143l-65.887-68.28
		c-9.868,10.735-22.196,19.54-36.571,25.46c-41.388,17.035-87.466,5.134-115.774-26.348l-64.665,69.581
		c6.824,6.97,14.123,13.38,21.824,19.196l-7.524,37.908l38.747,16.15l38.754,16.14l21.607-32.036
		c17.975,2.573,36.431,2.69,54.868,0.146l21.459,32.101l38.818-15.989l38.818-15.989L892.726,414.232z"/>
	<g id="XMLID_579_">
		<g id="XMLID_586_">
			<polygon id="XMLID_587_" class="st8" points="718.455,772.256 850.165,772.256 808.654,899.736 812.536,901 855.788,768.173 
				715.491,768.173 672.65,899.736 676.532,901 			"/>
		</g>
		<g id="XMLID_584_">
			<polygon id="XMLID_585_" class="st8" points="763.282,899.736 721.771,772.256 853.481,772.256 895.403,901 899.285,899.736 
				856.445,768.173 716.147,768.173 759.4,901 			"/>
		</g>
		<g id="XMLID_582_">
			<rect id="XMLID_583_" x="706.201" y="808.315" class="st8" width="161.209" height="4.083"/>
		</g>
		<g id="XMLID_580_">
			<rect id="XMLID_581_" x="689.594" y="852.641" class="st8" width="192.874" height="4.083"/>
		</g>
	</g>
	<g id="XMLID_506_">
		<g id="XMLID_576_">
			<g id="XMLID_577_">
				<path id="XMLID_578_" class="st9" d="M784.874,545.477c0,0-2.543-4.451,1.49-16.379c3.901-11.536,17.405-10.49,21.697-3.099
					c4.292,7.391,2.842,11.982-3.476,20.327S787.497,549.292,784.874,545.477z"/>
			</g>
		</g>
		<g id="XMLID_573_">
			<g id="XMLID_574_">
				<path id="XMLID_575_" class="st9" d="M816.239,750.708c0,0,0.668,4.899,0.752,5.634c0.083,0.736,7.433-0.433,7.433-0.433
					l0.595-5.832C825.02,750.077,817.158,750.016,816.239,750.708z"/>
			</g>
		</g>
		<g id="XMLID_563_">
			<g>
				<g id="XMLID_32_">
					<g id="XMLID_33_">
						<path class="st10" d="M816.913,755.719c0,0-2.329,2.952-4.581,4.239c-2.252,1.287-5.792,1.796-7.124,3.128
							c-0.962,0.961-3.502,5.1,5.853,5.017c9.354-0.084,13.865,0.585,14.867-1.002c1.003-1.587-1.45-11.713-1.45-11.713
							S822.188,756.033,816.913,755.719z"/>
					</g>
				</g>
			</g>
		</g>
		<g id="XMLID_560_">
			<g id="XMLID_561_">
				<path id="XMLID_562_" class="st9" d="M765.349,750.708c0,0,0.668,4.899,0.752,5.634c0.083,0.736,7.433-0.433,7.433-0.433
					l0.595-5.832C774.129,750.077,766.267,750.016,765.349,750.708z"/>
			</g>
		</g>
		<g id="XMLID_550_">
			<g>
				<g id="XMLID_29_">
					<g id="XMLID_30_">
						<path class="st10" d="M766.022,755.719c0,0-2.328,2.952-4.581,4.239s-10.541,2.343-11.872,3.675
							c-0.962,0.962-2.56,4.831,10.602,4.47c9.351-0.257,13.865,0.585,14.867-1.002c1.002-1.587-1.45-11.713-1.45-11.713
							S770.681,755.904,766.022,755.719z"/>
					</g>
				</g>
			</g>
		</g>
		<g id="XMLID_545_">
			<g id="XMLID_546_">
				<path id="XMLID_547_" class="st11" d="M813.765,628.727c0,0,3.768,11.71,3.272,21.802c-0.496,10.092,1.949,21.135,2.948,31.678
					c1.115,11.753,5.674,39.577,5.84,45.864c0.165,6.287-0.708,26.362-0.708,26.362l-9.127,0.22c0,0-7.666-48.643-9.651-53.606
					c-1.985-4.963-11.831-40.347-12.162-44.318C793.845,652.758,813.765,628.727,813.765,628.727z"/>
			</g>
		</g>
		<g id="XMLID_538_">
			<g>
				<g id="XMLID_26_">
					<path id="XMLID_27_" class="st11" d="M775.921,627.507c0,0-5.541,30.964-6.202,37.141c-0.662,6.177-1.103,29.891-1.434,33.752
						c-0.331,3.86-2.206,50.517-3.971,56.253h10.177c0,0,10.449-33.918,10.449-49.966s6.92-34.888,11.387-45.476
						c4.467-10.588,14.692-10.839,17.438-30.484C813.765,628.727,779.639,621.277,775.921,627.507z"/>
				</g>
			</g>
		</g>
		<g id="XMLID_535_">
			<g id="XMLID_536_">
				<path id="XMLID_537_" class="st9" d="M788.566,548.627c0,0,1.149,3.341,0,5.726c-1.148,2.384,14.668,0.954,14.668,0.954
					s-0.715-4.928,1.351-8.981C806.651,542.271,788.566,548.627,788.566,548.627z"/>
			</g>
		</g>
		<g id="XMLID_532_">
			<g id="XMLID_533_">
				<linearGradient id="XMLID_17_" gradientUnits="userSpaceOnUse" x1="775.4121" y1="630.566" x2="814.4987" y2="630.566">
					<stop  offset="0.0583" style="stop-color:#335987"/>
					<stop  offset="0.5413" style="stop-color:#4172AA"/>
				</linearGradient>
				<path id="XMLID_534_" class="st12" d="M814.499,631.278c0,0-5.688,5.843-39.087-0.91l0.509-2.861l37.968,1.429L814.499,631.278z
					"/>
			</g>
		</g>
		<g id="XMLID_529_">
			<g id="XMLID_530_">
				<path id="XMLID_531_" class="st9" d="M786.173,555.127c0,0-5.842,0.596-7.511,0.914c-1.669,0.318-12.904-2.009-15.208-2.248
					c-2.305-0.238-12.133-6.972-12.451-7.767c-0.318-0.795-5.979-15.128-6.296-18.228c-0.318-3.099-5.514-1.5-5.069,0.637
					c0.834,3.995,1.904,13.694,2.49,16.505c0.633,3.035,2.332,9.91,3.285,10.756c0.954,0.846,9.802,7.577,18.465,10.438
					c8.664,2.862,15.184,7.074,15.184,7.074h42.694c0,0,16.606-23.738,16.964-27.314c0.357-3.577-11.599-27.347-13.984-30.327
					c-2.384-2.98-5.833,0.973-5.833,0.973s7.144,20.962,8.098,23.942c0.954,2.98-8.31,16.075-10.853,16.114
					c-2.543,0.04-9.074-0.794-11.975-0.914c-2.901-0.119-5.961-1.391-5.961-1.391L786.173,555.127z"/>
			</g>
		</g>
		<g id="XMLID_522_">
			<g>
				<g id="XMLID_28_">
					<path id="XMLID_31_" class="st13" d="M767.773,570.982c0,0,5.226,3.475,5.703,9.436c0.477,5.96,2.385,15.378,3.338,18.597
						c0.954,3.219-0.835,26.584-1.073,28.253c-0.238,1.669,33.037,5.634,38.148,1.669c0,0,1.43-21.816,2.026-28.015
						c0.596-6.199,3.457-21.219,4.411-23.246c0.954-2.026,12.517-18.247,12.994-20.385c0,0-5.982-9.537-10.274-9.656
						c0,0-6.816,7.987-9.039,8.345c-2.222,0.357-15.845-2.139-15.846-2.16c0,0-1.487,2.025-9.391-0.359
						c0,0-9.413,1.062-10.944,1.258c-1.854,0.236-14.743-1.618-14.743-1.618s-5.171,8.732-4.265,13.141L767.773,570.982z"/>
				</g>
			</g>
		</g>
		<g id="XMLID_519_">
			<g id="XMLID_520_">
				<path id="XMLID_521_" class="st9" d="M745.005,529.661c0,0-1.167-5.525,0.238-7.112c0.8-0.903,2.723-3.294,2.899-3.645
					c0.176-0.352,2.24-1.537,2.24-2.108s-2.021-1.273-3.777,0.352c-1.757,1.625-2.855,1.976-3.557,1.8
					c-0.703-0.175-1.712-6.016-1.801-7.465c-0.088-1.449-0.647-5.27-1.553-5.007c-0.906,0.264-0.862,1.933-0.862,1.933
					s-1.054-2.899-1.757-2.328c-0.703,0.571-0.615,1.976-0.615,1.976s-1.317-1.625-1.668-0.439c-0.352,1.186,0,2.24,0,2.24
					s-1.361-0.747-1.449,1.098c-0.088,1.845,0.395,7.246,1.361,9.179c0.966,1.932,4.582,6.986,5.014,8.96
					C740.15,531.069,745.005,529.661,745.005,529.661z"/>
			</g>
		</g>
		<g id="XMLID_516_">
			<g id="XMLID_517_">
				<path id="XMLID_518_" class="st9" d="M820.068,519.958c0,0-3.972-6.677-5.323-7.273c-1.351-0.596-3.259-0.933-4.928-2.126
					c-1.669-1.192-3.875-2.186-3.756-2.583c0.119-0.397,2.086-0.238,4.193,0.675c2.106,0.914,3.03,0.473,3.229-0.004
					c0.199-0.477-1.123-3.844-1.759-4.639c-0.636-0.794-5.166-5.351-4.411-6.027c0.755-0.675,3.696,1.828,4.173,2.344
					c0,0-2.345-4.928-1.431-5.166c0.914-0.238,2.623,1.51,2.623,1.51s-0.199-4.212,4.331,2.623c0,0-0.954-2.265,0.438-1.51
					c1.391,0.755,2.742,5.007,3.179,7.153c0.437,2.146,2.42,8.982,4.111,10.63C826.428,517.215,820.068,519.958,820.068,519.958z"/>
			</g>
		</g>
		<g id="XMLID_513_">
			<g id="XMLID_514_">
				<path id="XMLID_515_" class="st14" d="M804.585,546.325c0,0-2.093,0.185-6.543-1.352c-4.451-1.537-4.783-9.319-5.746-8.398
					c-1.964,1.881-3.818,0.583-4.56-0.53c0,0,2.172-2.861,1.166-4.239c-1.007-1.377-2.645-2.383-2.645-2.383
					s3.13-15.088,17.376-8.214C820.322,529.264,804.585,546.325,804.585,546.325z"/>
			</g>
		</g>
		<g id="XMLID_510_">
			<g id="XMLID_511_">
				<path id="XMLID_512_" class="st13" d="M788.566,554.352l0.502-2.181c0,0,9.093-0.185,14.053,0.535l0.522,2.607
					C803.643,555.312,797.291,558.194,788.566,554.352z"/>
			</g>
		</g>
		<g id="XMLID_507_">
			<g id="XMLID_508_">
				<path id="XMLID_509_" class="st9" d="M790.809,534.668c0.826-1.373,3.88-2.298,4.239,1.589c0.278,3.014-5.458,6.306-5.511,3.497
					C789.484,536.947,790.259,535.581,790.809,534.668z"/>
			</g>
		</g>
	</g>
	<g id="XMLID_473_">
		<g id="XMLID_476_">
			<g id="XMLID_478_">
				<path id="XMLID_503_" class="st10" d="M169.265,301.036c0,0-4.311-7.914-6.764-10.763c-2.453-2.848-10.601-4.984-9.494-8.623
					c1.108-3.639,12.025-2.057,15.031,1.503c3.006,3.56,12.183,4.826,12.499,6.329c0.316,1.503-3.186,9.73-5.153,11.076
					C173.418,301.902,169.265,301.036,169.265,301.036z"/>
				<path id="XMLID_500_" class="st10" d="M150.939,307.737c0,0-7.023-5.568-10.405-7.208c-3.381-1.64-11.708-0.365-12.137-4.144
					c-0.428-3.78,10.219-6.663,14.392-4.589c4.173,2.073,13.098-0.409,13.985,0.845c0.887,1.254,0.939,10.196-0.331,12.211
					C155.172,306.867,150.939,307.737,150.939,307.737z"/>
				<path id="XMLID_499_" class="st9" d="M166.535,322.234c0,0,3.066-20.966,2.927-24.603c-0.04-1.038,6.309-0.653,6.012,1.345
					c-0.646,4.349,2.284,21.202,1.775,24.287C176.741,326.348,166.274,324.177,166.535,322.234z"/>
				<path id="XMLID_498_" class="st9" d="M156.929,328.259c0,0-5.745-20.358-7.084-23.743c-0.596-1.507,5.259-3.841,6.052-1.153
					c1.246,4.217,10.516,18.552,11.273,21.586C167.929,327.983,157.461,330.147,156.929,328.259z"/>
				<path id="XMLID_497_" class="st11" d="M160.919,342.408c0,0-6.171-20.807-7.12-23.022l9.731-6.012
					c0,0,4.509,13.291,5.142,16.613C169.304,333.31,160.919,342.408,160.919,342.408z"/>
				<path id="XMLID_496_" class="st15" d="M333.164,287.435c0,0-9.397,2.376-13.868,9.482c-4.47,7.106-8.334,15.29-16.735,19.003
					c-8.401,3.713-8.455,13.28-7.801,14.756c0.654,1.475,26.461,30.485,32.092,31.607c5.631,1.121,16.174,0.341,15.047-7.113
					c-1.128-7.454-12.177-23.489-5.975-31.579c6.202-8.089,7.765-15.541,7.765-15.541L333.164,287.435z"/>
				<path id="XMLID_495_" class="st9" d="M331.525,322.129c0,0-0.276-0.091-0.735-0.133c-0.533-0.05-1.313-0.035-2.197,0.263
					c-0.22,0.074-0.515,0.224-0.86,0.427c-2.233,1.315-7.517,4.888-8.231,4.973c-0.825,0.098-0.128-12.228-0.128-12.228
					s2.813-4.977,3.167-8.254C322.895,303.902,331.525,322.129,331.525,322.129z"/>
				<path id="XMLID_494_" class="st11" d="M265.425,335.01c0,0-10.324-7.238-22.428-4.984c-12.104,2.255-13.41,7.913-17.562,8.169
					c-4.153,0.256-18.038-0.931-29.43,2.392c-11.392,3.323-21.004,3.679-22.309,2.729c-1.305-0.949,7.12-19.936,7.12-22.547
					l-14.122-3.679c0,0-4.035,16.85-5.617,20.648c-1.692,4.062-4.945,11.708-0.316,18.354c4.628,6.645,17.563,3.651,25.395,4.99
					c7.832,1.339,42.887,0.481,49.009,0.152c6.645-0.356,26.7-1.305,26.7-1.305L265.425,335.01z"/>
				<path id="XMLID_493_" class="st9" d="M350.218,297.492c0,0,0.658,10.199-1.606,13.258c-0.906,1.223-1.521,1.889-1.933,2.248
					c-0.581,0.506-1.031,1.144-1.29,1.869c-0.7,1.962-1.13,4.723-1.687,5.313c-0.607,0.643-2.369-0.992-3.007-0.996
					c-0.638-0.003-6.85,5.358-8.335,4.261c-1.485-1.098-10.549-10.294-9.788-16.6c0.762-6.305,3.543-15.719,13.748-15.661
					C346.524,291.24,349.437,294.956,350.218,297.492z"/>
				<path id="XMLID_490_" class="st13" d="M319.379,346.165c-0.195,0.418-3.948,6.41-8.058,9.887
					c-1.707,1.444-3.474,2.454-5.074,2.454c-0.489,0-0.965,0.007-1.429,0.019c-4.717,0.127-8.341,0.85-14.71,1.167
					c-6.616,0.33-22.665-0.593-23.14-0.593c-0.475,0-5.103,0.831-5.103,0.831c-1.661-2.018,2.729-24.801,3.56-24.92
					c0.831-0.118,6.171,1.899,11.273,1.068c5.103-0.831,7.12-1.306,14.715-10.206c7.595-8.9,15.189-11.155,18.393-10.442
					c3.204,0.712,9.573,0,9.573,0S319.656,345.572,319.379,346.165z"/>
				<path id="XMLID_489_" class="st15" d="M345.93,304.795c0,0,1.901,4.928,2.909,5.606c0,0,3.67-3.881,1.313-13.46
					c-2.358-9.578-11.248-10.479-16.988-9.506c-7.146,1.211-14.339,25.386-13.968,27.741c0.371,2.355,8.377-12.494,15.391-11.299
					C341.601,305.072,341.657,305.463,345.93,304.795z"/>
				<path id="XMLID_488_" class="st16" d="M330.79,321.996c-0.533-0.05-1.313-0.035-2.197,0.263c-0.22,0.074-0.515,0.224-0.86,0.427
					c-1.641-2.559-3.161-8.627-3.211-8.832C325.615,317.177,330.79,321.996,330.79,321.996z"/>
				<path id="XMLID_485_" class="st13" d="M311.321,356.052c-1.707,1.444-3.474,2.454-5.074,2.454c-0.489,0-0.965,0.007-1.429,0.019
					l1.942-18.887L311.321,356.052z"/>
				<path id="XMLID_484_" class="st9" d="M348.244,388.577l-4.555,4.143c-3.93-2.105-13.778-9.193-15.673-10.807
					c-1.987-1.693-15.236-12.775-17.055-15.3c-1.836-2.526-4.16-28.63-3.924-29.826c0.236-1.179,11.519-1.785,12.799,0.976
					c0,0,0.589,14.888,0.893,17.38c0.286,2.492,1.241,4.744,2.95,6.841c2.365,2.902,7.403,9.64,12.28,15.087
					C337.122,378.37,346.74,387.282,348.244,388.577z"/>
				<path id="XMLID_481_" class="st13" d="M320.763,338.096c0,0,0.712-19.826-5.736-19.58c-8.152,0.31-9.375,10.284-8.267,21.123
					C306.76,339.638,318.943,339.757,320.763,338.096z"/>
				<path id="XMLID_480_" class="st9" d="M346.05,386.636c0,0,0.607,0.955,1.486,1.252c1.517,0.512,3.762-0.475,4.869,1.513
					c1.107,1.988-4.238,6.954-5.673,7.255c-1.435,0.301-3.737-1.933-5.535-6.342C339.398,385.907,346.05,386.636,346.05,386.636z"/>
				<path id="XMLID_479_" class="st9" d="M351.934,388.782c0,0,2.727,2.075,5.483,4.74c2.419,2.337,4.878,5.407,4.258,5.986
					c-0.848,0.792-2.497-1.844-5.05-4.008c-2.35-1.993-2.217-1.224-2.217-1.224s-0.025-0.221,2.118,2.428
					c2.304,2.847,4.685,6.228,3.974,6.716c-0.445,0.306-0.466,0.388-1.472-0.517c0.467,0.638,0.358,0.848,0.11,1.057
					c-1.286,1.077-5.324-2.608-6.927-4.073c1.224,1.132,2.003,2.088,0.76,2.234c-1.422,0.167-6.898-5.29-9.046-7.065
					C341.583,393.12,351.934,388.782,351.934,388.782z"/>
			</g>
			<path id="XMLID_477_" class="st6" d="M270.064,335.918c0,0-2.177,15.602-1.104,23.277c0,0,1.135,0.843,3.393,0.161
				c0,0,0.564-17.031,1.828-23.077C274.181,336.279,273.487,335.754,270.064,335.918z"/>
		</g>
		<g id="XMLID_474_">
			<rect id="XMLID_475_" x="270.58" y="-22.652" class="st6" width="1.684" height="370.369"/>
		</g>
	</g>
	<g id="XMLID_450_">
		<path id="XMLID_472_" class="st9" d="M186.965,711.508c2.389,14.932,34.24,10.79,34.24,10.79l-29.507-47.87
			C191.698,674.428,184.577,696.575,186.965,711.508z"/>
		<path id="XMLID_469_" class="st10" d="M251.23,884.365c-6.516,0.201-11.174,0.368-11.174,0.368l-17.934,3.838l-0.293,8.548
			c2.54,5.652,9.689,3.464,9.689,3.464l23.76-7.945C258.982,889.221,255.677,884.228,251.23,884.365z"/>
		<path id="XMLID_466_" class="st10" d="M225.634,872.446c-6.211,0.191-12.525,0.407-12.525,0.407l-16.388,3.852l-0.257,8.325
			c2.421,5.388,10.38,2.875,10.38,2.875l22.651-7.576C233.374,878.618,229.874,872.313,225.634,872.446z"/>
		<linearGradient id="XMLID_18_" gradientUnits="userSpaceOnUse" x1="215.3545" y1="891.7311" x2="215.3545" y2="734.7469">
			<stop  offset="0" style="stop-color:#39383B"/>
			<stop  offset="0.333" style="stop-color:#3F3E40"/>
			<stop  offset="0.9442" style="stop-color:#444345"/>
		</linearGradient>
		<path id="XMLID_465_" class="st17" d="M236.463,744.677c-3.019,3.93-36.737-7.324-41.649-9.93c0,0-4.164,18.296-4.393,24.144
			c-0.281,7.132,1.78,18.185,3.104,30.077c1.593,14.303,3.887,36.24,3.887,36.24l-1.175,52.016c0,0,3.431,3.441,10.755,2.063
			c2.698-0.508,5.5-2.103,5.555-4.849l4.744-47.14l-3.273-34.88l8.333,43.745l-0.29,54.168c0,0,5.268,2.643,11.78,0.668
			c3.905-1.184,4.662-3.863,4.691-5.939l1.781-46.642l-4.837-74.219L236.463,744.677z"/>
		<path id="XMLID_464_" class="st18" d="M208.513,785.725c1.054,3.886,2.32,11.516,2.501,15.582
			c1.148,25.796-1.286,53.097-10.387,77.354c-0.08,0.212-0.193,0.373-0.282,0.571c1.679,0.408,3.885,0.575,6.646,0.055
			c2.698-0.508,5.5-2.103,5.555-4.85l4.744-47.14l-3.695-39.198C212.871,786.068,209.421,785.924,208.513,785.725z"/>
		<path id="XMLID_463_" class="st18" d="M218.884,817.956c-0.578-6.891-1.768-13.574-3.781-19.85L218.884,817.956z"/>
		<path id="XMLID_462_" class="st18" d="M228.888,891.714c1.51,0.002,3.177-0.177,4.954-0.715c3.905-1.184,4.662-3.863,4.691-5.939
			l1.781-46.642l-5.123-80.137C231.298,759.387,237.162,855.557,228.888,891.714z"/>
		<path id="XMLID_461_" class="st14" d="M190.124,673.267c0.372-1.072,1.609-2.012,3.227-2.396
			c12.767-3.037,17.575,7.058,17.523,9.126c-0.029,1.125-1.877,11.246-3.68,20.879c-7.24,0.619-14.336,0.562-20.837-1.134
			c0.148-3.896,0.385-7.842,0.758-11.276C187.997,680.324,189.336,675.541,190.124,673.267z"/>
		<linearGradient id="XMLID_19_" gradientUnits="userSpaceOnUse" x1="215.4893" y1="762.3684" x2="215.4893" y2="668.5909">
			<stop  offset="0.0583" style="stop-color:#335987"/>
			<stop  offset="0.5413" style="stop-color:#4172AA"/>
		</linearGradient>
		<path id="XMLID_460_" class="st19" d="M224.801,672.036c-7.568-6.2-25.806-2.14-25.806-2.14s-5.472-0.814-8.197,7.317
			c-2.524,7.527,0.963,47.073,0.353,53.888c-0.608,6.815-0.755,26.383-0.755,26.383s6.807,4.851,33.145,4.884
			c10.117,0.013,12.535-3.744,12.535-3.744l2.011-42.028l3.025-27.706C241.11,688.89,233.826,679.43,224.801,672.036z"/>
		<path id="XMLID_459_" class="st20" d="M235.049,697.948c-5.555,6.462-3.718,22.013-4.958,30.016
			c-1.984,12.807-6.966,24.004-16.3,33.199c-0.324,0.319-0.682,0.579-1.021,0.872c3.175,0.198,6.716,0.328,10.77,0.333
			c10.117,0.013,12.534-3.745,12.534-3.745l2.011-42.028l3.025-27.706c0,0-0.344-0.444-0.945-1.183
			C239.456,691.202,237.85,694.691,235.049,697.948z"/>
		<path id="XMLID_458_" class="st9" d="M207.832,671.935c0.867,5.12,18.641,4.071,17.775-1.048l0.902-16.406l-17.161,2.905
			L207.832,671.935z"/>
		<path id="XMLID_457_" class="st9" d="M205.484,655.511c0.596,7.844,14.942,11.135,14.942,11.135
			c7.569-0.574,12.831-4.473,12.225-12.456l0.329-18.607l-30.179,5.526L205.484,655.511z"/>
		<linearGradient id="XMLID_20_" gradientUnits="userSpaceOnUse" x1="218.1183" y1="665.1549" x2="218.1183" y2="624.0604">
			<stop  offset="0.0583" style="stop-color:#335987"/>
			<stop  offset="0.5413" style="stop-color:#4172AA"/>
		</linearGradient>
		<path id="XMLID_456_" class="st21" d="M223.782,624.701c-4.531-1.584-19.969-0.935-21.959,10.191
			c-3.261,18.264,6.782,28.063,6.782,28.063s6.324,4.106,9.599,1.099c4.504-4.136,10.481-10.748,10.018-16.859
			c-0.463-6.113,3.34-7.366,3.34-7.366C240.519,632.524,230.218,626.954,223.782,624.701z"/>
		<path id="XMLID_455_" class="st9" d="M225.094,647.562c-0.171,3.473,1.117,6.357,3.802,4.872l-0.505-6.647
			C228.391,645.787,225.327,642.85,225.094,647.562z"/>
		<polygon id="XMLID_454_" class="st22" points="291.54,723.245 286.169,725.836 286.09,733.218 297.649,730.099 301.872,725.433 
			296.044,728.299 		"/>
		<path id="XMLID_453_" class="st22" d="M291.785,720.13c0,0-1.733,0.605-2.242,0.936c-3.662,2.381-3.374,4.77-3.374,4.77
			s1.61,2.978,5.371-2.591l4.105-3.58C295.644,719.665,294.705,718.002,291.785,720.13z"/>
		<path id="XMLID_452_" class="st9" d="M254.997,716.342l-14.817-28.619c-15.615-11.083-11.697,14.883-11.697,14.883
			s15.794,26.727,19.778,28.768c4.028,2.063,38.933,2.734,38.933,2.734l-1.025-8.273
			C271.411,722.902,254.997,716.342,254.997,716.342z"/>
		<path id="XMLID_451_" class="st14" d="M240.841,685.82c-0.651-0.929-2.098-1.495-3.759-1.422
			c-13.111,0.57-14.975,11.595-14.359,13.57c0.336,1.075,4.881,10.304,9.249,19.077c7.133-1.384,13.943-3.38,19.733-6.789
			c-1.208-3.707-2.514-7.438-3.812-10.639C244.816,692.026,242.221,687.792,240.841,685.82z"/>
	</g>
</g>
</svg>
