<?xml version="1.0" encoding="utf-8"?>
<!-- Generator: Adobe Illustrator 19.2.0, SVG Export Plug-In . SVG Version: 6.00 Build 0)  -->
<svg version="1.1" id="Capa_1" xmlns="http://www.w3.org/2000/svg" xmlns:xlink="http://www.w3.org/1999/xlink" x="0px" y="0px"
	 viewBox="0 0 1044 904" style="enable-background:new 0 0 1044 904;" xml:space="preserve">
<style type="text/css">
	.st0{fill-rule:evenodd;clip-rule:evenodd;fill:#F1F7F9;}
	.st1{fill-rule:evenodd;clip-rule:evenodd;fill:#333537;}
	.st2{fill-rule:evenodd;clip-rule:evenodd;fill:#6D7378;}
	.st3{fill-rule:evenodd;clip-rule:evenodd;fill:#E5EBF0;}
	.st4{fill-rule:evenodd;clip-rule:evenodd;fill:#DBE3E8;}
	.st5{fill-rule:evenodd;clip-rule:evenodd;fill:#575B5D;}
	.st6{fill-rule:evenodd;clip-rule:evenodd;fill:#505455;}
	.st7{fill-rule:evenodd;clip-rule:evenodd;fill:#FFFFFF;}
	.st8{fill-rule:evenodd;clip-rule:evenodd;fill:#E1E8EE;}
	.st9{fill:#705C9A;}
	.st10{fill-rule:evenodd;clip-rule:evenodd;fill:#82BDD0;}
	.st11{fill:#4274AD;}
	.st12{fill-rule:evenodd;clip-rule:evenodd;fill:#99CBEF;}
	.st13{fill:url(#XMLID_3_);}
	.st14{fill:#EDCECE;}
	.st15{fill:#E8E8E8;}
	.st16{fill-rule:evenodd;clip-rule:evenodd;fill:#333E4B;}
	.st17{fill-rule:evenodd;clip-rule:evenodd;fill:#1C2228;}
	.st18{fill-rule:evenodd;clip-rule:evenodd;fill:#416886;}
	.st19{fill-rule:evenodd;clip-rule:evenodd;fill:#4274AD;}
	.st20{fill-rule:evenodd;clip-rule:evenodd;fill:#A0ACB6;}
	.st21{fill-rule:evenodd;clip-rule:evenodd;fill:#1F1414;}
	.st22{fill-rule:evenodd;clip-rule:evenodd;fill:#182431;}
	.st23{fill-rule:evenodd;clip-rule:evenodd;fill:#E3E3E2;}
	.st24{fill-rule:evenodd;clip-rule:evenodd;fill:#332417;}
	.st25{fill:#EBCDCD;}
	.st26{fill-rule:evenodd;clip-rule:evenodd;fill:#EBCDCD;}
	.st27{fill:url(#XMLID_4_);}
	.st28{fill:#5E4F44;}
	.st29{opacity:0.1;fill:#778DAC;}
</style>
<g id="XMLID_1_">
	<g id="XMLID_63_">
		<g id="XMLID_173_">
			<path id="XMLID_193_" class="st0" d="M421.274,422.023l-0.259-374.179c148.731,86.16,297.162,169.423,446.721,256.338
				l0.257,375.373C719.115,593.035,571.773,509.203,421.274,422.023z"/>
			<g id="XMLID_183_">
				<g id="XMLID_190_">
					<path id="XMLID_192_" class="st1" d="M870.919,681.549c0.8-0.297,1.929-0.886,2.976-1.555c0.935-0.597,1.82-1.272,2.378-1.88
						c0.353-0.384,0.564-0.673,0.697-1.021c0.134-0.349,0.164-0.694,0.157-1.198v-0.003c-0.025-2.183,0.3-4.038,0.508-6.174
						l-4.617-1.82l-3.444,2.157l0.357,10.021L870.919,681.549z"/>
					<polygon id="XMLID_191_" class="st2" points="878.174,669.529 873.52,666.587 873.601,668.772 876.629,670.684 					"/>
				</g>
				<path id="XMLID_189_" class="st1" d="M877.767,302.4c0.109-1.381,0.55-3.821-0.238-5.07c-0.433-0.685-1.089-1.026-1.803-1.087
					c-0.484-0.042-1.018,0.038-1.506,0.298c-0.42,0.222-0.799,0.57-1.077,1.076c-0.369,0.67-0.724,1.768-1.065,3.226
					c-0.342,1.455-0.676,3.288-1.005,5.421l5.017-2.896L877.767,302.4z"/>
				<g id="XMLID_184_">
					<path id="XMLID_188_" class="st3" d="M875.36,299.78c1.747,1.015,0.699,1.786-0.923,2.721
						c-0.316,0.184-0.654,0.373-1.009,0.578c-0.346,0.2-0.673,0.396-0.991,0.578c-1.62,0.936-2.954,1.541-4.702,0.525
						C718.996,217.743,569.87,132.129,421.015,45.901c-1.755-1.018-0.693-1.791,0.939-2.73c0.31-0.179,0.641-0.363,0.989-0.563
						c0.335-0.194,0.655-0.384,0.966-0.562c1.633-0.939,2.975-1.55,4.731-0.533C577.483,127.734,726.61,213.336,875.36,299.78z"/>
					<g id="XMLID_185_">
						<path id="XMLID_187_" class="st3" d="M870.962,304.406l1.163,25.907l-0.553,348.538l-0.354,0.927
							c-0.507,0.204-1.038,0.328-1.59,0.299c-0.587-0.03-1.13-0.229-1.636-0.523l-1.232-90.541l0.973-284.831
							C868.831,304.819,869.813,304.857,870.962,304.406z"/>
						<path id="XMLID_186_" class="st4" d="M876.263,300.814l0.283,375.371c0.095,1.012-4.289,3.238-5.327,3.591l-0.257-375.371
							C871.944,303.245,875.419,301.41,876.263,300.814z"/>
					</g>
				</g>
			</g>
			<g id="XMLID_179_">
				<path id="XMLID_182_" class="st5" d="M425.442,39.235c-1.66-0.95-3.472-1.675-4.638,0.445c-1.122,1.866-1.224,5.221-1.338,8.928
					c150.715,85.635,300.95,171.588,451.611,257.597c1.447-4.1,1.071-9.793,5.881-9.229c-0.292-0.463-0.733-0.768-1.177-0.936
					c-0.307-0.248-2.713-1.626-3.082-1.766C723.516,209.275,575.085,124.222,425.442,39.235z"/>
				<path id="XMLID_181_" class="st2" d="M876.959,296.976c-0.292-0.463-0.733-0.768-1.177-0.936
					c-0.307-0.248-2.713-1.626-3.082-1.766c-149.103-84.952-298.033-170.2-447.257-254.95c-1.66-0.949-3.472-1.675-4.638,0.446
					c-0.202,0.337-0.372,0.723-0.515,1.152c151.01,85.888,301.809,172.116,452.753,258.24
					C873.748,297.676,874.86,296.73,876.959,296.976z"/>
				<path id="XMLID_180_" class="st6" d="M877.767,302.4c0.109-1.381,0.55-3.821-0.238-5.07c-0.433-0.685-1.089-1.026-1.803-1.087
					c-0.484-0.042-1.018,0.038-1.506,0.298c-0.42,0.222-0.799,0.57-1.077,1.076c-0.369,0.67-0.724,1.768-1.065,3.226
					c-0.342,1.455-0.676,3.288-1.005,5.421l1.775-1.025c0.259-1.561,0.519-2.919,0.779-4.035c0.309-1.319,0.614-2.282,0.909-2.82
					c0.327-0.597,1.265-0.811,1.646-0.206c0.455,0.721,0.044,3.48-0.011,4.172l-0.081,1.019L877.767,302.4z"/>
			</g>
			<path id="XMLID_178_" class="st7" d="M420.574,57.622l0.749,345.561c150.487,88.147,296.339,171.222,444.65,258.096
				l-0.749-346.561C715.173,227.313,568.87,144.006,420.574,57.622z"/>
			<g id="XMLID_174_">
				<path id="XMLID_177_" class="st2" d="M870.072,675.472C722.67,589.63,574.944,504.313,427.421,418.674
					c-2.605-1.512-5.351-3.516-7.956-5.028l1.233-0.581c150.063,87.132,300.085,174.261,450.136,261.385L870.072,675.472z"/>
				<path id="XMLID_176_" class="st5" d="M870.072,675.472c-150.114-87.433-300.373-174.604-450.606-261.827l0.084,4.933
					c0.013,0.739,0.074,1.268,0.365,1.647l0,0l0.7,0.46c150.011,87.15,299.668,173.95,449.392,261.212L870.072,675.472z"/>
				<path id="XMLID_175_" class="st6" d="M869.24,674.983l0.084,4.975c0.013,0.742,0.076,1.273,0.366,1.654h-0.002
					c0.407,0.526,0.958,0.624,1.844,0.295c0.798-0.296,1.928-0.885,2.975-1.553c0.935-0.599,2.336-1.458,2.895-2.068
					c0.352-0.385,0.563-0.673,0.695-1.02c0.133-0.351,0.165-0.696,0.159-1.198v-0.003l-0.08-6.551l-1.541,1.096l0.032,5.471
					c0.003,0.297-0.008,0.483-0.059,0.617c-0.052,0.136-0.17,0.288-0.378,0.514c-0.459,0.5-1.746,1.269-2.577,1.801l-2.623,1.376
					c-0.098,0.052-0.105-0.013-0.107-0.095c-0.002-0.091-0.01-0.246-0.012-0.362l-0.084-5.49L869.24,674.983z"/>
			</g>
		</g>
		<g id="XMLID_64_">
			<path id="XMLID_166_" class="st8" d="M675.932,519.563l-6.604,3.511l6.561,11.073l96.476,55.489l-6.551-11.065l6.593-3.518
				L675.932,519.563L675.932,519.563z M837.047,575.31l9.702,5.579l-0.076,14.579l-9.67-5.562L837.047,575.31L837.047,575.31z
				 M836.937,612.168l9.702,5.58l-0.041,14.584l-9.704-5.58L836.937,612.168L836.937,612.168z M846.651,613.908l0.043-14.583
				l-9.704-5.581l-0.043,14.584C843.665,612.193,834.326,606.823,846.651,613.908L846.651,613.908z M699.705,510.935l-6.561-11.084
				l6.604-3.512l96.478,55.492l-6.605,3.51l6.561,11.084L699.705,510.935L699.705,510.935z M777.713,566.947l6.56,11.084
				l-96.475-55.49l-6.561-11.085l6.605-3.499l96.475,55.49L777.713,566.947z"/>
			<path id="XMLID_158_" class="st8" d="M433.663,292.147l-0.004,0.955l86.656,49.841l0.003-0.955
				C491.433,325.375,462.548,308.761,433.663,292.147L433.663,292.147z M433.897,211.848l-0.003,0.954l86.656,49.841l0.003-0.954
				C491.667,245.077,462.782,228.462,433.897,211.848L433.897,211.848z M433.857,225.274c28.886,16.614,57.771,33.229,86.657,49.841
				l-0.003,0.955l-86.656-49.841L433.857,225.274L433.857,225.274z M433.818,238.702c28.886,16.614,57.771,33.227,86.656,49.841
				l-0.003,0.954l-86.654-49.841L433.818,238.702L433.818,238.702z M433.78,251.628c28.885,16.614,57.771,33.227,86.656,49.841
				l-0.003,0.954l-86.654-49.841L433.78,251.628L433.78,251.628z M433.74,265.068c28.885,16.614,57.77,33.227,86.656,49.841
				l-0.004,0.954l-86.654-49.841L433.74,265.068L433.74,265.068z M433.702,278.47c28.885,16.614,57.77,33.229,86.654,49.841
				l-0.003,0.953l-86.654-49.841L433.702,278.47z"/>
			<path id="XMLID_145_" class="st8" d="M641.449,425.12c-0.227-0.613-0.363-1.236-0.382-1.823L429.783,301.771l-0.005,1.603
				L641.449,425.12L641.449,425.12z M641.449,525.212L429.778,403.466l0.005-1.603l211.284,121.526
				C641.085,523.976,641.222,524.598,641.449,525.212L641.449,525.212z M641.449,508.199L429.778,386.453l0.005-1.601
				l211.284,121.524C641.085,506.962,641.222,507.586,641.449,508.199L641.449,508.199z M641.449,493.062L429.778,371.316
				l0.005-1.601l211.284,121.524C641.085,491.826,641.222,492.45,641.449,493.062L641.449,493.062z M641.449,475.896L429.778,354.15
				l0.005-1.603l211.284,121.525C641.085,474.66,641.222,475.282,641.449,475.896L641.449,475.896z M641.449,459.392
				L429.778,337.645l0.005-1.601l211.284,121.524C641.085,458.156,641.222,458.778,641.449,459.392L641.449,459.392z
				 M641.449,442.25L429.778,320.504l0.005-1.603l211.284,121.525C641.085,441.014,641.222,441.636,641.449,442.25z"/>
			<path id="XMLID_139_" class="st9" d="M638.511,501.276c-0.595-0.341-1.152-0.484-1.631-0.449l-6.211-11.308l1.768,6.757
				l3.055,5.562c-0.14,0.318-0.216,0.708-0.218,1.16c-0.002,0.347,0.043,0.71,0.125,1.076c0.11,0.492,0.289,0.99,0.525,1.472
				c0.586,1.2,1.515,2.293,2.566,2.898c1.785,1.026,3.231,0.246,3.237-1.735C641.734,504.73,640.297,502.304,638.511,501.276
				L638.511,501.276z M433.815,320.604c-1.774-1.021-3.232-0.258-3.237,1.721c-0.006,1.979,1.441,4.424,3.217,5.445
				c0.993,0.572,1.883,0.586,2.48,0.144l25.172,27.26l-0.611-3.253l-23.498-25.444l-0.298-0.323
				c0.002-0.038,0.004-0.073,0.004-0.111c0-0.308-0.034-0.628-0.1-0.952C436.589,323.34,435.322,321.47,433.815,320.604
				L433.815,320.604z M467.311,354.277c-1.718-0.988-3.214-0.78-3.975,0.354c-0.013,0.017-0.026,0.036-0.037,0.055l1.328,7.068
				c0.743,1.033,1.66,1.918,2.655,2.491c2.236,1.285,4.092,0.545,4.45-1.622c0.04-0.241,0.06-0.5,0.06-0.777
				c0.002-0.116-0.003-0.233-0.01-0.351c-0.011-0.211-0.034-0.427-0.068-0.643c10.576-3.357,21.152-6.712,31.73-10.069
				c0.781,1.19,1.795,2.219,2.905,2.856c0.532,0.306,1.041,0.496,1.514,0.582c3.986,9.619,7.974,19.241,11.959,28.86l1.527-0.873
				c-3.903-9.419-7.809-18.839-11.712-28.258c0.523-0.319,0.907-0.864,1.095-1.612c0.082-0.327,0.127-0.693,0.127-1.097
				c0.01-2.755-1.996-6.141-4.481-7.57c-2.485-1.43-4.501-0.355-4.51,2.399c0,0.401,0.041,0.817,0.122,1.239
				c0.052,0.28,0.122,0.563,0.208,0.846c-10.467,3.322-20.934,6.645-31.402,9.968C469.976,356.527,468.721,355.086,467.311,354.277
				L467.311,354.277z M522.482,384.936l-1.527,0.873c5.86,14.141,11.72,28.279,17.58,42.42h-0.002
				c-0.662,0.487-1.063,1.379-1.067,2.604c0,0.194,0.01,0.391,0.029,0.589c0.042,0.43,0.126,0.871,0.248,1.314
				c0.632,2.262,2.274,4.556,4.205,5.667c1.933,1.113,3.583,0.711,4.224-0.819c0.125-0.298,0.213-0.641,0.255-1.023
				c0.016-0.138,0.027-0.281,0.031-0.429c0.002-0.042,0.002-0.084,0.002-0.126c16.83,0.664,33.64,1.299,50.47,1.885
				c0.818,1.665,2.112,3.179,3.57,4.018c0.884,0.509,1.71,0.699,2.409,0.608c5.444,9.911,10.889,19.824,16.332,29.736l2.384,0.804
				c-5.747-10.46-11.492-20.922-17.238-31.383c0.393-0.513,0.622-1.244,0.625-2.163c0-0.076-0.002-0.154-0.005-0.23
				c-0.014-0.409-0.073-0.83-0.168-1.255c-0.536-2.394-2.266-4.911-4.31-6.086c-2.051-1.181-3.784-0.655-4.33,1.116
				c-0.097,0.314-0.157,0.667-0.175,1.058c-0.003,0.073-0.004,0.147-0.004,0.223c-0.002,0.297,0.021,0.602,0.065,0.911
				c-16.697-0.584-33.395-1.166-50.092-1.75c-0.735-2.057-2.254-4.051-4.013-5.064c-0.61-0.351-1.193-0.55-1.725-0.611
				C534.33,413.526,528.405,399.23,522.482,384.936L522.482,384.936z M627.038,482.911l-3.932-7.159l-2.369-0.777l3.472,6.32
				l0.939,1.712l3.656,6.656L627.038,482.911z"/>
			<path id="XMLID_138_" class="st10" d="M435.353,346.765c-1.785-1.027-3.231-0.246-3.237,1.732
				c-0.006,1.981,1.431,4.407,3.217,5.434c0.313,0.181,0.615,0.305,0.903,0.378c7.979,18.977,15.96,37.953,23.939,56.929
				c-0.622,0.497-0.998,1.367-1.002,2.549c-0.008,2.742,2.008,6.147,4.493,7.577c2.244,1.291,4.12,0.524,4.458-1.674
				c11.703-1.467,23.406-2.934,35.109-4.402l0,0l0.002-0.002c0.759,1.097,1.716,2.038,2.755,2.636
				c1.152,0.664,2.204,0.787,3.001,0.457c0.184-0.076,0.355-0.177,0.51-0.301l32.002,31.989l2.132,2.13
				c-0.01,0.084-0.014,0.17-0.019,0.256c-0.003,0.074-0.005,0.149-0.005,0.223c-0.007,2.755,1.997,6.143,4.481,7.571
				c2.485,1.429,4.504,0.357,4.512-2.398c0-0.076-0.002-0.152-0.005-0.23c-0.006-0.163-0.019-0.328-0.038-0.495l1.935,0.416
				l37.15,7.98c0.706,2.131,2.274,4.232,4.095,5.279c2.386,1.372,4.359,0.427,4.502-2.117c0.007-0.144,0.01-0.287,0.006-0.43
				c11.852,3.891,23.705,7.779,35.557,11.668c0.587,1.06,1.437,2.005,2.385,2.55c1.785,1.027,3.242,0.252,3.248-1.728
				c0.006-1.968-1.441-4.412-3.228-5.44c-1.785-1.026-3.231-0.247-3.237,1.721c0,0.179,0.011,0.363,0.033,0.549
				c-11.773-3.975-23.546-7.95-35.319-11.925c-0.765-1.971-2.236-3.852-3.919-4.819c-2.214-1.273-4.066-0.564-4.448,1.55
				c-0.035,0.184-0.057,0.38-0.067,0.584l-1.522-0.327l-37.949-8.15c-0.811-1.739-2.147-3.338-3.662-4.208
				c-1.58-0.909-2.972-0.806-3.778,0.1l-32.627-32.615l-1.305-1.304c0.037-0.179,0.062-0.371,0.077-0.571
				c0.009-0.119,0.014-0.24,0.014-0.363c0.008-2.755-1.996-6.141-4.481-7.571c-2.485-1.428-4.504-0.355-4.512,2.399
				c0,0.124,0.003,0.249,0.011,0.375c0.025,0.421,0.095,0.853,0.203,1.287c0.076,0.311,0.173,0.624,0.287,0.936
				c-11.344,1.468-22.689,2.936-34.034,4.405c-0.567-2.357-2.272-4.808-4.28-5.964c-0.73-0.419-1.418-0.622-2.029-0.633
				c-7.906-18.934-15.81-37.869-23.716-56.803c0.387-0.368,0.617-0.962,0.619-1.747C438.577,350.23,437.14,347.791,435.353,346.765z
				"/>
			<path id="XMLID_132_" class="st11" d="M627.438,477.174l-2.079-0.682l1.679,6.419c3.036,11.604,6.072,23.207,9.107,34.812
				c-0.839,0.165-1.391,0.92-1.395,2.138c0,0.048,0.002,0.097,0.002,0.144c0.02,0.562,0.149,1.155,0.365,1.739
				c0.539,1.454,1.618,2.854,2.86,3.569c1.775,1.02,3.231,0.246,3.237-1.735c0.005-1.907-1.339-4.237-3.026-5.317
				C634.605,504.565,631.021,490.871,627.438,477.174L627.438,477.174z M461.232,343.687l2.068,10.998
				c3.124,16.632,6.25,33.264,9.375,49.894c0.395,0.102,0.812,0.275,1.242,0.523c1.047,0.603,2.009,1.551,2.77,2.653
				c21.542-12.32,43.087-24.64,64.628-36.963c-0.126-0.346-0.227-0.692-0.303-1.038c-0.097-0.428-0.154-0.854-0.168-1.266
				c-0.002-0.073-0.003-0.146-0.003-0.218c0.008-2.755,2.027-3.828,4.512-2.399c2.319,1.334,4.218,4.371,4.456,7.01
				c19.927,16.573,39.855,33.146,59.782,49.719c0.783-1.049,2.245-1.217,3.907-0.262c2.273,1.308,4.145,4.253,4.44,6.855
				c0.029,0.241,0.043,0.481,0.041,0.716c0,0.157-0.008,0.307-0.02,0.453c-0.137,1.51-0.941,2.418-2.098,2.558
				c3.655,13.963,7.306,27.924,10.959,41.886l-2.085-0.705c-3.626-13.864-7.254-27.728-10.881-41.592
				c-0.126-0.06-0.255-0.127-0.384-0.201c-2.334-1.343-4.259-4.437-4.464-7.095c-0.012-0.16-0.019-0.319-0.019-0.476
				c0-0.073,0.004-0.143,0.007-0.214l-1.859-1.546l-57.607-47.913c-0.655,1.491-2.291,1.875-4.205,0.776
				c-0.985-0.567-1.894-1.441-2.632-2.463c-21.564,12.332-43.125,24.663-64.688,36.994c0.258,0.779,0.4,1.562,0.398,2.3
				c-0.002,0.378-0.041,0.722-0.112,1.034c-0.084,0.363-0.214,0.681-0.384,0.951c-0.749,1.185-2.266,1.418-4.015,0.414
				c-1.749-1.006-3.26-2.982-3.999-5.024c-0.167-0.463-0.296-0.928-0.376-1.387c-0.071-0.395-0.108-0.784-0.106-1.16
				c0.003-1.39,0.519-2.35,1.348-2.779c-3.306-17.602-6.612-35.201-9.92-52.801l-1.609-8.564c-0.168-0.076-0.34-0.162-0.513-0.262
				c-2.28-1.311-4.155-4.28-4.443-6.879c-0.025-0.236-0.04-0.465-0.038-0.692c0-0.165,0.008-0.324,0.023-0.476
				c0.036-0.384,0.117-0.728,0.234-1.03l-17.939-22.724c-0.581,0.28-1.367,0.206-2.233-0.292c-1.786-1.029-3.223-3.454-3.216-5.434
				c0.005-1.98,1.452-2.748,3.237-1.721c1.726,0.992,3.123,3.289,3.212,5.227c0.003,0.07,0.005,0.138,0.005,0.206
				c-0.002,0.167-0.013,0.322-0.032,0.472l0.691,0.876l17.439,22.081c0.808-0.379,1.895-0.272,3.091,0.418
				c2.336,1.342,4.246,4.415,4.46,7.069c0.015,0.168,0.021,0.336,0.021,0.502c-0.002,0.225-0.016,0.441-0.043,0.644
				C463.003,342.677,462.272,343.505,461.232,343.687z"/>
			<g id="XMLID_128_">
				<polygon id="XMLID_131_" class="st11" points="479.679,252.227 479.583,252.528 476.174,263.05 475.91,263.868 472.64,273.966 
					472.375,274.782 469.901,282.422 478.557,318.7 461.358,308.806 489.239,324.842 497.618,329.662 492.493,307.543 
					490.429,298.628 490.173,297.525 486.831,283.096 486.572,281.98 483.37,268.157 483.112,267.041 479.775,252.641 				"/>
				<polygon id="XMLID_130_" class="st10" points="457.163,229.04 454.442,237.114 454.173,237.915 450.65,248.371 450.377,249.18 
					446.993,259.215 446.72,260.026 443.19,270.502 442.92,271.302 439.4,281.747 439.131,282.548 435.617,292.974 435.327,293.834 
					461.358,308.806 478.557,318.7 469.901,282.422 467.394,271.918 467.128,270.796 463.814,256.909 463.546,255.788 
					460.094,241.32 459.83,240.213 				"/>
				<polygon id="XMLID_129_" class="st9" points="504.301,244.792 503.019,251.605 502.857,252.466 500.735,263.741 
					500.573,264.602 498.453,275.866 498.29,276.739 496.255,287.55 496.092,288.423 493.967,299.708 493.806,300.57 
					492.493,307.543 497.618,329.662 489.239,324.842 518.841,341.869 518.672,340.744 516.632,327.124 516.476,326.078 
					514.431,312.433 514.276,311.387 512.226,297.702 512.067,296.644 510.104,283.533 509.945,282.475 507.898,268.815 
					507.742,267.77 505.694,254.098 505.537,253.054 				"/>
			</g>
			<path id="XMLID_122_" class="st8" d="M509.206,214.634l0.022-7.894l-34.818-20.028l-0.024,7.895L509.206,214.634L509.206,214.634
				z M509.478,121.79l-75.189-43.246l-0.024,7.894l75.19,43.245L509.478,121.79L509.478,121.79z M471.212,112.478l38.228,21.987
				l-0.023,7.894l-38.229-21.988L471.212,112.478L471.212,112.478z M509.305,180.053l-75.188-43.247l0.097-32.922l75.189,43.244
				L509.305,180.053L509.305,180.053z M509.258,196.664l-75.19-43.247l0.032-10.386l75.188,43.247L509.258,196.664z"/>
			<path id="XMLID_115_" class="st8" d="M846.733,574.98l0.004-1.348L669.478,471.68l-0.003,1.347L846.733,574.98L846.733,574.98z
				 M847.008,481.373L669.75,379.418l0.003-1.347l177.259,101.955L847.008,481.373L847.008,481.373z M846.953,500.238
				L669.694,398.285l0.005-1.348l177.257,101.954L846.953,500.238L846.953,500.238z M846.897,519.102L669.639,417.149l0.005-1.347
				l177.257,101.953L846.897,519.102L846.897,519.102z M846.844,537.264L669.587,435.309l0.003-1.348l177.259,101.955
				L846.844,537.264L846.844,537.264z M846.788,556.152L669.531,454.197l0.003-1.348l177.259,101.955L846.788,556.152z"/>
			<g id="XMLID_108_">
				<path id="XMLID_114_" class="st9" d="M584.127,172.716l-0.053,17.982c18.271,11.954,32.646,37.148,32.585,57.778
					c-0.017,6.224-1.348,11.361-3.707,15.234l13.956,17.154c3.767-5.754,5.913-13.527,5.94-23.078
					C632.939,227.248,611.347,189.854,584.127,172.716z"/>
				<path id="XMLID_113_" class="st12" d="M541.378,233.546l-9.787,0.509c10.305,24.298,28.663,47.078,49.629,59.136
					c20.619,11.86,38.791,10.486,49.287-1.347l-9.662-11.876l3.467,4.264c-9.242,10.202-25.084,11.337-43.07,0.993
					c-18.275-10.511-34.293-30.32-43.367-51.498L541.378,233.546z"/>
				<path id="XMLID_112_" class="st10" d="M552.012,232.998l-10.634,0.549l-3.503,0.181c9.074,21.178,25.092,40.987,43.367,51.498
					c17.985,10.344,33.828,9.208,43.07-0.993l-3.468-4.262l-10.487-12.89c-6.388,6.54-17.024,7.122-29.06,0.199
					C569.054,260.237,558.297,247.122,552.012,232.998z"/>
				<path id="XMLID_111_" class="st11" d="M579.028,169.784c-27.219-14.174-48.956-1.699-49.046,28.838
					c-0.027,9.218,1.917,19.044,5.389,28.757l3.514-0.179l10.637-0.545c-2.169-6.336-3.378-12.729-3.361-18.728
					c0.062-20.629,14.535-29.229,32.816-20.16l0.038-13.51L579.028,169.784z"/>
				<path id="XMLID_110_" class="st10" d="M579.052,161.807c-31.198-16.464-56.163-2.274-56.266,32.676
					c-0.031,10.636,2.242,22.001,6.303,33.224l9.796-0.505l-3.514,0.176c-3.472-9.713-5.416-19.539-5.389-28.757
					c0.09-30.537,21.827-43.011,49.046-28.838l-0.014,4.472L579.052,161.807z"/>
				<path id="XMLID_109_" class="st9" d="M584.15,164.739l-0.023,7.977c27.22,17.138,48.812,54.532,48.721,85.071
					c-0.027,9.551-2.173,17.324-5.94,23.076l6.195,7.613c4.394-6.576,6.899-15.538,6.93-26.555
					C640.136,226.969,615.34,184.159,584.15,164.739z"/>
			</g>
			<path id="XMLID_104_" class="st10" d="M658.285,265.861l-0.141,48.258l22.105,12.715l0.141-48.259L658.285,265.861
				L658.285,265.861z M724.625,295.381l-0.167,56.881l22.105,12.714l0.166-56.881L724.625,295.381L724.625,295.381z
				 M691.516,258.265l-0.221,74.923l22.105,12.714l0.22-74.923L691.516,258.265z"/>
			<path id="XMLID_100_" class="st9" d="M658.417,221.083l-0.057,19.21l22.106,12.715l0.055-19.212L658.417,221.083L658.417,221.083
				z M724.731,259.226l-0.039,13.809l22.105,12.715l0.04-13.809L724.731,259.226L724.731,259.226z M691.569,240.153l-0.021,7.166
				l22.105,12.714l0.021-7.166L691.569,240.153z"/>
			<polygon id="XMLID_99_" class="st9" points="665.337,348.548 665.285,366.198 851.536,473.322 851.589,455.675 			"/>
			<path id="XMLID_95_" class="st11" d="M746.796,285.749l-22.105-12.715l-0.067,22.346l22.105,12.714L746.796,285.749
				L746.796,285.749z M713.653,260.032l-22.105-12.714l-0.033,10.946l22.104,12.714L713.653,260.032L713.653,260.032z
				 M680.466,253.009l-22.106-12.715l-0.076,25.567l22.105,12.714L680.466,253.009z"/>
			<path id="XMLID_89_" class="st8" d="M861.519,430.904l0.023-7.894l-49.771-28.626l-0.022,7.894L861.519,430.904L861.519,430.904z
				 M861.791,338.06l-107.48-61.819l-0.022,7.893l107.481,61.82L861.791,338.06L861.791,338.06z M807.111,319.306l54.644,31.429
				l-0.023,7.894L807.088,327.2L807.111,319.306L807.111,319.306z M861.62,396.323l-107.479-61.82l0.095-32.924l107.48,61.82
				L861.62,396.323L861.62,396.323z M861.573,412.933l-107.48-61.819l0.03-10.386l107.48,61.819L861.573,412.933z"/>
			<polygon id="XMLID_88_" class="st10" points="655.897,206.005 655.873,214.317 861.808,332.765 861.831,324.453 			"/>
			<path id="XMLID_83_" class="st8" d="M639.608,406.673l0.02-7.012l-52.524-30.211l-0.021,7.012L639.608,406.673L639.608,406.673z
				 M582.163,302.261l-0.021,7.023l57.655,33.162l0.021-7.024L582.163,302.261L582.163,302.261z M639.784,346.691l-0.086,29.251
				L526.28,310.708l0.087-29.25L639.784,346.691L639.784,346.691z M639.655,390.704l-113.419-65.234l0.027-9.229l113.418,65.234
				L639.655,390.704z"/>
			<g id="XMLID_79_">
				<polygon id="XMLID_82_" class="st10" points="772.407,575.053 765.814,578.571 772.365,589.636 836.894,626.752 
					836.937,612.168 				"/>
				<polygon id="XMLID_81_" class="st11" points="784.317,563.447 777.713,566.947 784.272,578.031 836.948,608.329 
					836.991,593.745 				"/>
				<polygon id="XMLID_80_" class="st9" points="796.225,551.829 789.62,555.341 796.182,566.425 837.002,589.904 837.047,575.31 
									"/>
			</g>
			<path id="XMLID_65_" class="st10" d="M834.785,504.802l-0.014,4.757l-3.593-2.066l-0.003,1.217l-0.005,1.348l-0.049,16.718
				l3.594,2.066v0.097l-0.005,1.347l-0.009,3.315l3.98,2.288l0.01-3.315l0.003-1.348l0.002-0.095l3.593,2.066l0.049-16.718
				l0.003-1.348l0.005-1.217l-3.593-2.066l0.013-4.758L834.785,504.802L834.785,504.802z M706.447,431.225l-0.014,4.757
				l-3.592-2.066l-0.004,0.977l-0.003,1.349l-0.049,16.813l-0.002,0.143l3.594,2.066l-0.005,1.206l-0.01,3.553l3.991,2.294
				l0.009-3.553l0.003-1.205l3.583,2.06v-0.143l0.049-16.813l0.005-1.347l0.002-0.979l-3.582-2.059l0.014-4.759L706.447,431.225
				L706.447,431.225z M693.815,440.477l-0.014,4.747l-3.593-2.066l-0.008,2.658l-0.005,1.349l-0.044,15.286l3.593,2.067
				l-0.007,2.254l-0.004,1.347l-0.003,1.146l3.99,2.295l0.004-1.146l0.004-1.347l0.007-2.253l3.592,2.066l0.045-15.286l0.004-1.349
				l0.008-2.66l-3.592-2.066l0.013-4.747L693.815,440.477L693.815,440.477z M681.086,430.015l-3.592-2.066l-0.03,10.541
				l-0.005,1.348l-0.02,7.393l3.592,2.067l-0.014,4.758l3.98,2.29l0.014-4.759l3.593,2.066l0.022-7.393l0.003-1.348l0.032-10.541
				l-3.592-2.066l0.012-4.757l-3.98-2.29L681.086,430.015L681.086,430.015z M718.455,418.744l-0.014,4.747l-3.593-2.066
				l-0.004,1.479l-0.004,1.346l-0.049,16.468l3.593,2.066l-0.003,1.049l-0.003,1.347l-0.007,2.35l3.991,2.295l0.006-2.348
				l0.003-1.348l0.003-1.05l3.583,2.061l0.048-16.468l0.005-1.347l0.003-1.479l-3.582-2.06l0.015-4.746L718.455,418.744
				L718.455,418.744z M731.099,405.676l-0.013,4.746l-3.592-2.067l-0.01,2.921l-0.003,1.348l-0.044,15.013l3.592,2.068l-0.008,2.504
				l-0.003,1.347l-0.003,0.906l3.979,2.29l0.004-0.906l0.004-1.349l0.006-2.504l3.593,2.066l0.044-15.013l0.003-1.348l0.01-2.921
				l-3.592-2.066l0.014-4.747L731.099,405.676L731.099,405.676z M744.568,431.613l-0.014,4.747l-3.593-2.066l-0.012,3.624
				l-0.004,1.349l-0.042,14.321l3.593,2.066l-0.01,3.196l-0.004,1.348l-0.002,0.202l3.991,2.295v-0.203l0.005-1.347l0.01-3.196
				l3.582,2.061l0.043-14.321l0.003-1.349l0.012-3.624l-3.582-2.06l0.013-4.747L744.568,431.613L744.568,431.613z M757.72,458.564
				l-0.015,4.746l-3.581-2.059l-0.01,3.135l-0.003,1.348l-0.044,14.811l3.581,2.06l-0.005,2.002l-0.005,1.349l-0.003,1.395
				l3.989,2.294l0.005-1.395l0.005-1.346l0.005-2.004l3.592,2.068l0.045-14.812l0.003-1.347l0.01-3.135l-3.592-2.066l0.014-4.747
				L757.72,458.564L757.72,458.564z M769.939,484.262l-0.015,4.746l-3.592-2.066l-0.008,2.66l-0.003,1.346l-0.046,15.288
				l3.592,2.066l-0.006,2.254l-0.003,1.347l-0.003,1.145l3.978,2.289l0.005-1.144l0.003-1.347l0.006-2.255l3.594,2.068l0.044-15.288
				l0.003-1.348l0.008-2.659l-3.593-2.066l0.014-4.747L769.939,484.262L769.939,484.262z M783.742,502.02l-0.014,4.746l-3.582-2.059
				l-0.035,11.746l-0.003,1.347l-0.019,6.202l3.582,2.059l-0.013,4.747l3.991,2.295l0.013-4.747l3.592,2.067l0.02-6.2l0.003-1.348
				l0.035-11.746l-3.593-2.066l0.014-4.747L783.742,502.02L783.742,502.02z M796.933,516.068l-0.015,4.746l-3.581-2.059
				l-0.016,5.295l-0.003,1.348l-0.038,12.65l3.583,2.062l-0.014,4.746l3.991,2.294l0.014-4.747l3.591,2.068l0.038-12.653
				l0.005-1.345l0.014-5.296l-3.593-2.066l0.015-4.747L796.933,516.068L796.933,516.068z M809.543,514.459l-0.002,0.93l-3.593-2.066
				l-0.002,0.417l-0.052,17.541l-0.003,1.336l3.593,2.066l-0.015,4.746l3.991,2.294l0.014-4.733l3.593,2.055l0.003-1.335
				l0.053-17.541l0.002-0.417l-3.593-2.066l0.002-0.93l0.011-3.816l-3.99-2.295L809.543,514.459L809.543,514.459z M822.176,505.695
				l-0.014,4.746l-3.593-2.066l-0.033,11.257l-0.003,1.348l-0.019,6.69l3.593,2.066l-0.014,4.747l3.991,2.295l0.014-4.747
				l3.582,2.062l0.019-6.69l0.005-1.348l0.032-11.257l-3.582-2.059l0.015-4.746L822.176,505.695z"/>
		</g>
	</g>
	<linearGradient id="XMLID_3_" gradientUnits="userSpaceOnUse" x1="251.2367" y1="304.4039" x2="251.2367" y2="165.4278">
		<stop  offset="0.0583" style="stop-color:#335987"/>
		<stop  offset="0.7451" style="stop-color:#335A88"/>
		<stop  offset="1" style="stop-color:#4172AA"/>
	</linearGradient>
	<path id="XMLID_62_" class="st13" d="M230.637,165.428c-2.667,8.304-0.605,24.481,1.408,38.617
		c6.332,44.487,0.758,54.087-12.633,100.359c0,0,62.413-58.052,63.398-58.929c0.986-0.882-1.258-24.957-1.258-24.957l-28.051-27.485
		L230.637,165.428z"/>
	<path id="XMLID_61_" class="st14" d="M512.351,230.443c-1.044-1.28-4.129-1.649-8.526-0.4l-17.444,7.979
		c-4.489,1.857-3.28,1.788-7.946,0.531c-0.194-0.052-0.364-0.095-0.555-0.146c1.063-0.18,2.51-0.361,5.026-0.826
		c0.342-0.074,0.802-0.206,1.327-0.384c2.603-0.676,8.803-3.49,7.956-7.151c-0.014-0.066-0.025-0.133-0.045-0.2
		c-0.046-0.158-0.116-0.318-0.191-0.478c-0.037-0.082-0.053-0.163-0.099-0.246c-0.006,0.007-0.013,0.012-0.019,0.02
		c-0.226-0.413-0.511-0.831-0.939-1.26c-3.026,1.322-4.811,2.335-6.732,2.999c-4.403,1.515-13.257,0.007-18.967,0.529
		c-1.226,0.11-7.436,1.116-14.163,6.629c-0.979,0.667-1.969,1.435-3.026,2.331c-0.574,0.486-1.153,1.02-1.733,1.586
		c-0.929-0.109-1.807-0.012-2.56,0.372c-0.164,0.087-0.545,0.421-0.709,0.531c-0.689,1.191-0.989,2.485-1.04,3.811
		c-2.517,2.973-4.986,6.155-7.255,8.769l2.934,8.112c-0.435,0.302-0.808,0.581-1.267,0.89l3.498,5.22
		c3.167-2.131,5.529-3.911,7.54-5.425c1.669-1.258,3.067-2.304,4.416-3.137c1.34,0.467,2.571,0.475,3.49-0.183
		c0.638-0.458,1.049-1.093,1.361-1.794c4.411-0.842,10.507,0.353,23.596,4.061l1.125,0.317l22.801-12.61
		c5.034-1.304,7.941-3.329,8.193-5.123c0.021-0.05,0.038-0.077,0.061-0.134C514.17,241.402,513.514,231.874,512.351,230.443z"/>
	<path id="XMLID_60_" class="st14" d="M453.195,260.737c-0.202-0.052-0.396-0.121-0.593-0.185c-0.44-0.141-0.869-0.306-1.285-0.501
		c-0.194-0.091-0.389-0.18-0.578-0.282c-0.453-0.244-0.89-0.519-1.31-0.82c-0.111-0.079-0.23-0.145-0.339-0.228
		c-0.51-0.389-0.991-0.82-1.449-1.279c-0.866-0.873-1.622-1.86-2.275-2.909c0.013-0.008,0.027-0.016,0.04-0.024
		c-2.644-4.229-2.859-8.887-2.074-11.322c0.122-0.316,0.252-0.627,0.419-0.908c-0.01,0.007-0.02,0.015-0.031,0.022
		c0.003-0.006,0.006-0.016,0.009-0.022c-17.162,12.045-41.054,28.057-57.822,42.7c-5.969,5.059-10.867,9.729-14.05,13.696
		l-0.046-0.143c-7.763-13.238-22.132-24.209-27.351-34.479c-5.814-11.443-9.518-21.988-15.032-29.05
		c-3.279-4.194-7.04-8.694-12.476-9.396c-1.933-0.627-4.018-0.801-6.281-0.43c-2.427,0.401-21.829,12.12-24.781,12.643
		c28.133,54.989,55.903,90.565,72.225,99.045c0.798,0.414,1.634,0.846,2.488,1.278c0.25,0.127,0.494,0.247,0.749,0.373
		c0.795,0.396,1.604,0.78,2.427,1.15c0.168,0.076,0.331,0.156,0.5,0.23c0.931,0.407,1.87,0.774,2.812,1.101
		c0.242,0.084,0.479,0.151,0.72,0.228c0.768,0.244,1.529,0.442,2.288,0.599c0.164,0.034,0.333,0.101,0.496,0.13
		c0.254,0.058,0.513,0.108,0.768,0.144c2.911,0.418,5.786-0.013,9.207-2.286c31.409-20.886,52.645-47.163,74.592-78.747
		C454.483,261.024,453.831,260.9,453.195,260.737z"/>
	<g id="XMLID_57_">
		<path id="XMLID_59_" class="st11" d="M293.912,761.369c-7.337,6.363-25.818,13.246-13.214,29.523
			c12.604,16.278,16.144,4.987,39.02,18.165c22.875,13.178,21.016,18.161,37.995,18.909c16.979,0.748,23.962-7.957,18.959-13.769
			c-5.004-5.812-40.949-26.21-48.573-41.018S293.912,761.369,293.912,761.369z"/>
		<path id="XMLID_58_" class="st15" d="M296.996,759.126c-6.926,6.016-24.408,12.482-12.404,27.992
			c12.004,15.511,15.314,4.8,37.036,17.406c21.722,12.606,19.98,17.333,36.068,18.109s22.67-7.465,17.907-13.005
			s-38.895-25.055-46.175-39.151C322.149,756.382,296.996,759.126,296.996,759.126z"/>
	</g>
	<g id="XMLID_50_">
		<path id="XMLID_56_" class="st11" d="M246.176,806.5c-8.324,5.1-14.22,8.465-8.121,26.479s8.136,55.201,35.497,57.345
			c27.361,2.145,22.617-28.193,15.511-41.759c-7.106-13.566-1.901-24.911-20.934-49.955c-19.033-25.043-30.278,12.989-30.278,12.989
			"/>
		<path id="XMLID_55_" class="st15" d="M247.268,802.324c-7.957,4.976-13.596,8.254-7.497,26.268s8.522,55.07,34.91,57.544
			c26.388,2.474,21.443-27.795,14.429-41.393c-7.014-13.597-2.14-24.831-20.787-50.005S239.31,807.3,239.31,807.3"/>
		<path id="XMLID_54_" class="st16" d="M284.938,644.956l-16.701,5.984c-16.222,50.592-10.92,96.433-7.245,161.613
			c3.952-0.349,9.371,0.396,12.289-2.521c0.087-28.457-0.513-53.528,0.54-79.381c0.545-13.356,1.999-26.925,3.239-41.276
			C279.144,665.312,275.692,670.841,284.938,644.956z"/>
		<path id="XMLID_51_" class="st17" d="M349.349,443.958c0.141-4.349,0.07-8.704-0.175-12.807c0.065-1.816-0.37-5.428-0.516-6.669
			c-0.111-0.996-0.322-1.977-0.472-2.966c-0.077-0.532-0.136-1.125-0.219-1.634l-0.039,0.009c-0.16-0.934-0.259-1.877-0.447-2.807
			c-2.566-12.779-7.177-21.965-9.191-32.032c-25.239,16.618-46.108,26.316-65.424,27.513c-1.044,0.064-2.077,0.071-3.112,0.085
			c-0.582,0.008-1.167,0.045-1.747,0.037c-1.136-0.015-2.264-0.093-3.392-0.17c-0.48-0.033-0.965-0.036-1.444-0.08
			c-1.221-0.112-2.435-0.291-3.647-0.477c-0.381-0.058-0.765-0.087-1.145-0.153c-1.591-0.275-3.176-0.612-4.757-1.017
			c-0.196,1.448-0.468,2.803-0.84,4.002c-0.707,2.281-1.624,4.399-2.622,6.456c-6.376,11.732-17.511,21.473-23.617,44.877
			c-4.584,17.576-0.763,44.773,5.76,75.268c0.014,0.065,0.031,0.131,0.044,0.197c0.049,0.228,0.095,0.452,0.143,0.68
			c0.137,0.641,0.281,1.286,0.426,1.927c0.088,0.395,0.193,0.791,0.282,1.186c0.767,3.376,1.574,6.757,2.414,10.131
			c0.243,0.98,0.485,1.943,0.731,2.92c0.638,2.53,1.28,5.048,1.917,7.545c1.145,4.483,2.267,8.909,3.29,13.192
			c0.044,0.185,0.083,0.364,0.127,0.549c0.858,3.613,1.65,7.141,2.314,10.528c2.345,11.975,2.939,20.929,3.026,28.06
			c0.214,16.968-10.613,31.795-13.823,48.155c-5.411,27.569,1.612,89.649,5.728,129.235c-0.212,0.619-0.302,1.264-0.339,1.919
			c-0.008,0.151-0.018,0.299-0.018,0.451c0.001,0.644,0.062,1.297,0.213,1.961c0.023,0.104,0.064,0.208,0.09,0.312
			c0.155,0.596,0.369,1.194,0.633,1.795c0.066,0.151,0.125,0.3,0.197,0.451c0.32,0.662,0.7,1.321,1.138,1.975
			c0.099,0.149,0.211,0.294,0.317,0.442c0.412,0.577,0.863,1.146,1.358,1.706c0.102,0.115,0.191,0.231,0.296,0.345
			c0.577,0.628,1.21,1.236,1.88,1.828c0.166,0.148,0.336,0.29,0.509,0.435c0.675,0.569,1.377,1.121,2.127,1.643
			c0.044,0.031,0.084,0.064,0.129,0.095c0.785,0.54,1.619,1.039,2.472,1.514c0.204,0.114,0.408,0.227,0.617,0.337
			c0.863,0.456,1.748,0.884,2.663,1.261c0.12,0.049,0.243,0.088,0.363,0.136c0.838,0.333,1.695,0.623,2.565,0.88
			c0.213,0.063,0.422,0.129,0.637,0.187c0.145,0.039,0.286,0.09,0.433,0.127c-0.001-0.012-0.002-0.023-0.002-0.023
			c6.423,1.612,13.456,1.005,19.296-3.698c-0.836-38.219-2.295-77.74,2.466-117.558c1.966-16.448-0.713-25.648,5.419-38.589
			c1.726-3.649,3.921-8.374,6.229-14.419c-0.511,2.7-0.986,5.676-1.396,9.068c-3.694,30.555,4.183,74.724,2.99,108.394
			c-0.056,0.286-0.057,0.647-0.028,1.043c0.009,0.116,0.031,0.245,0.046,0.37c0.039,0.308,0.099,0.636,0.183,0.991
			c0.036,0.155,0.073,0.307,0.119,0.469c0.112,0.408,0.255,0.838,0.42,1.29c0.045,0.121,0.077,0.232,0.125,0.356
			c0.229,0.586,0.5,1.199,0.813,1.835c0.059,0.121,0.131,0.245,0.194,0.367c0.265,0.519,0.557,1.046,0.877,1.584
			c0.118,0.199,0.243,0.397,0.368,0.598c0.312,0.497,0.649,0.995,1.005,1.497c0.136,0.19,0.264,0.378,0.405,0.568
			c1.008,1.353,2.18,2.695,3.514,3.966c0.194,0.185,0.401,0.362,0.602,0.544c0.496,0.448,1.011,0.882,1.548,1.304
			c0.245,0.192,0.49,0.381,0.743,0.567c0.589,0.432,1.206,0.84,1.842,1.232c0.206,0.127,0.401,0.264,0.612,0.387
			c0.842,0.487,1.722,0.933,2.64,1.333c0.233,0.102,0.483,0.181,0.721,0.276c0.708,0.283,1.433,0.539,2.184,0.761
			c0.351,0.104,0.71,0.193,1.07,0.282c0.311,0.077,0.608,0.179,0.926,0.244c-0.001-0.021-0.003-0.042-0.005-0.063
			c4.139,0.859,8.836,0.792,14.141-0.858c3.758-29.538,9.067-129.247,16.992-160.788c5.849-17.461,4.202-25.957,5.59-43.359
			C353.097,534.917,352.609,484.306,349.349,443.958z M297.225,602.072l-1.154-39.282c3.013,15.239,4.889,29.268,4.098,39.373
			c-0.565,7.235-1.816,12.267-3.319,17.053C297.413,614.756,297.677,609.153,297.225,602.072z"/>
	</g>
	<path id="XMLID_49_" class="st18" d="M322.76,249.931c-16.617,15.968-56.444,35.738-76.187,45.315
		c-5.697,2.761-19.393,35.106-24.74,27.628c-35.438-49.583,35.398-80.099,72.794-95.785c14.978-6.282,23.577-2.81,28.369,4.031
		C326.625,236.298,329.609,243.35,322.76,249.931z"/>
	<path id="XMLID_48_" class="st19" d="M331.762,283.832c0,0,19.03-9.991,19.03-13.797s-13.92-50.802-33.84-44.431
		C297.032,231.975,309.878,271.938,331.762,283.832z"/>
	<path id="XMLID_47_" class="st19" d="M349.033,291.962c-0.01-3.659-0.935-6.784-2.58-10.027c-1.052-2.53-2.366-4.982-3.969-7.323
		c-6.289-9.184-9.938-15.782-13.07-23.1c-1.791-10.459-3.598-17.264-5.596-17.626c-0.604-0.177-1.183-0.319-1.778-0.482
		c-0.335-1.011-0.681-2.015-0.999-3.034l-3.008,2.023c-3.21-0.737-6.275-1.271-9.187-1.603l0.831-0.375l9.045-3.643
		c-5.148-3.612-12.811-4.415-24.095,0.317c-24.264,10.177-54.795,25.709-73.607,42.277c-12.791,11.264-12.911,25.497-7.389,38.933
		c0.715,2.33,1.568,4.699,2.478,7.082c0.214,0.559,0.429,1.116,0.652,1.678c1.892,4.761,4.089,9.569,6.449,14.328
		c0.277,0.56,0.553,1.115,0.834,1.673c2.41,4.784,4.929,9.478,7.405,13.984c0.342,0.621,0.67,1.219,1.008,1.832
		c1.127,2.041,2.241,4.05,3.315,5.988c1.104,1.991,2.145,3.886,3.155,5.741c0.278,0.511,0.548,1.011,0.817,1.511
		c1.043,1.936,2.039,3.811,2.917,5.554c7.991,15.854,12.257,33.467,10.845,43.829c1.218,0.842,2.534,1.549,3.931,2.141
		c0.487,0.207,1.034,0.326,1.542,0.505c0.945,0.332,1.879,0.682,2.889,0.917c0.643,0.149,1.34,0.213,2.007,0.324
		c0.945,0.158,1.872,0.341,2.861,0.425c0.737,0.063,1.516,0.049,2.277,0.072c0.983,0.031,1.953,0.084,2.972,0.052
		c0.12-0.004,0.23,0.011,0.35,0.006c0-0.01-0.001-0.021-0.001-0.021c2.163-0.092,4.406-0.334,6.696-0.676
		c-0.002,0.016-0.001,0.032-0.003,0.048c0.849-0.127,1.723-0.297,2.593-0.463c19.435-3.604,42.11-15.374,57.217-27.256
		c-0.191-0.818-0.374-1.654-0.547-2.522c-2.403-12.036,1.066-22.571,1.791-35.162c0.254-2.666,0.329-5.028,0.082-6.988
		c-0.046-1.118-0.116-2.252-0.226-3.41c-0.146-1.552-0.306-3.125-0.455-4.686c-0.057-4.086-0.502-8.171-1.205-12.245
		c-0.1-1.002-0.204-1.998-0.307-2.997c4.841-3.919,8.662-8.873,10.288-15.854C349.193,299.698,349.421,295.768,349.033,291.962z"/>
	<g id="XMLID_34_">
		<path id="XMLID_46_" class="st20" d="M275.429,430.152l-12.615-4.497l2.048-14.178c6.888-4.147,12.08-5.534,15.004-4.348
			c0.236,0.097,1.251,0.414,1.459,0.545C285.76,410.487,280.966,431.547,275.429,430.152z"/>
		<path id="XMLID_45_" class="st14" d="M236.919,321.002c0.124-0.621,0.231-1.229,0.341-1.84c0.183-1.017,0.351-2.022,0.497-3.013
			c0.089-0.606,0.174-1.207,0.249-1.803c0.125-0.991,0.228-1.964,0.317-2.926c0.05-0.542,0.106-1.089,0.145-1.622
			c0.076-1.064,0.121-2.099,0.152-3.124c0.011-0.393,0.038-0.798,0.044-1.185c0.02-1.399,0.003-2.762-0.06-4.081
			c-0.01-0.199-0.033-0.384-0.045-0.581c-0.064-1.11-0.152-2.195-0.274-3.244c-0.047-0.409-0.112-0.797-0.168-1.196
			c-0.112-0.81-0.236-1.608-0.384-2.379c-0.082-0.428-0.174-0.844-0.267-1.259c-0.158-0.715-0.331-1.41-0.52-2.087
			c-0.109-0.392-0.219-0.781-0.338-1.16c-0.214-0.679-0.448-1.329-0.691-1.965c-0.125-0.324-0.242-0.657-0.374-0.97
			c-0.309-0.733-0.646-1.424-0.997-2.093c-0.091-0.173-0.171-0.364-0.264-0.533c-0.458-0.825-0.948-1.598-1.468-2.317
			c-0.12-0.165-0.253-0.306-0.376-0.466c-0.408-0.531-0.828-1.041-1.271-1.507c-0.203-0.214-0.417-0.403-0.627-0.603
			c-0.251-0.239-0.49-0.503-0.751-0.722c-0.004,0.018-0.008,0.038-0.012,0.056c-1.201-1.011-2.505-1.803-3.902-2.372
			c0.004-0.016,0.007-0.033,0.012-0.049c-0.441-0.184-0.886-0.337-1.345-0.473c-9.045-2.63-16.312,9.406-19.788,18.833
			c-9.058,24.599-15.105,62.14-18.266,87.53c-0.5,4.003-2.184,11.503-1.917,14.723c0.042,0.495,0.153,0.995,0.301,1.493
			c0.021,0.071,0.038,0.142,0.061,0.213c0.155,0.476,0.36,0.949,0.603,1.418c0.043,0.083,0.087,0.165,0.133,0.247
			c0.259,0.47,0.554,0.932,0.892,1.385c0.043,0.058,0.09,0.113,0.135,0.171c0.364,0.471,0.76,0.932,1.199,1.372l0.002,0.002
			c0.441,0.441,0.925,0.859,1.431,1.259c0.063,0.05,0.125,0.102,0.189,0.151c0.494,0.379,1.017,0.734,1.562,1.064
			c0.082,0.049,0.164,0.097,0.247,0.146c0.559,0.326,1.137,0.628,1.738,0.893c0.052,0.023,0.107,0.043,0.16,0.066
			c0.63,0.271,1.276,0.51,1.938,0.703c0,0,0.007,0.003,0.011,0.004c0.654,0.19,1.323,0.328,1.999,0.431
			c0.082,0.013,0.163,0.027,0.245,0.039c0.657,0.089,1.319,0.132,1.986,0.129c0.09,0,0.179-0.003,0.269-0.006
			c0.68-0.016,1.361-0.076,2.041-0.198c0.045-0.008,0.088-0.021,0.133-0.029c0.696-0.133,1.389-0.322,2.074-0.578
			c0.02-0.007,0.039-0.012,0.059-0.019c0.672-0.255,1.332-0.586,1.982-0.97c0.085-0.05,0.169-0.097,0.254-0.149
			c0.629-0.391,1.244-0.847,1.843-1.37c0.084-0.073,0.164-0.15,0.247-0.225c0.608-0.555,1.199-1.169,1.764-1.875
			c0.032-0.039,0.06-0.083,0.091-0.122c0.566-0.719,1.107-1.518,1.619-2.4c0.023-0.04,0.05-0.068,0.073-0.108
			c-0.002-0.001-0.004-0.001-0.004-0.001c1.31-2.288,2.43-5.122,3.264-8.612c0.702-2.934,1.502-5.817,2.394-8.754
			c0.075-0.249,0.154-0.5,0.231-0.75c0.209-0.681,0.422-1.364,0.642-2.052c0.118-0.372,0.241-0.748,0.362-1.123
			c0.191-0.591,0.385-1.185,0.583-1.785c0.134-0.403,0.269-0.809,0.405-1.217c0.194-0.581,0.392-1.167,0.594-1.759
			c0.151-0.447,0.303-0.893,0.458-1.346c0.183-0.534,0.371-1.077,0.558-1.621c0.188-0.543,0.373-1.081,0.565-1.634
			c0.118-0.339,0.24-0.688,0.36-1.031c0.971-2.789,2-5.723,3.089-8.872c0.089-0.259,0.181-0.529,0.272-0.79
			c0.322-0.933,0.646-1.878,0.978-2.849c0.161-0.471,0.324-0.955,0.487-1.436c0.277-0.816,0.556-1.641,0.839-2.486
			c0.184-0.55,0.37-1.109,0.557-1.671c0.272-0.817,0.546-1.649,0.824-2.494c0.199-0.607,0.399-1.216,0.6-1.838
			c0.281-0.866,0.566-1.755,0.852-2.651c0.201-0.627,0.4-1.247,0.603-1.89c0.315-0.996,0.636-2.027,0.957-3.062
			c0.179-0.576,0.355-1.135,0.536-1.724c0.505-1.645,1.017-3.33,1.538-5.078c0.523-1.754,0.984-3.473,1.408-5.169
			c0.138-0.555,0.251-1.093,0.379-1.641C236.445,323.234,236.699,322.108,236.919,321.002z"/>
		<path id="XMLID_44_" class="st19" d="M232.329,273.366c-7.703-2.465-20.933-5.233-29.021,16.651s-11.894,40.439-11.894,40.439
			s28.934,18.838,38.493,15.128S256.117,280.978,232.329,273.366z"/>
		<g id="XMLID_39_">
			<polygon id="XMLID_43_" class="st21" points="233.539,301.056 240.391,297.2 240.391,436.998 233.539,440.856 			"/>
			<polygon id="XMLID_42_" class="st22" points="240.391,297.2 317.182,340.859 317.182,480.659 240.391,436.998 			"/>
			<polygon id="XMLID_41_" class="st23" points="240.467,299.471 314.26,341.273 313.851,477.946 307.246,481.68 240.467,433.064 
				234,303.168 			"/>
			<polygon id="XMLID_40_" class="st9" points="233.539,301.056 310.33,344.717 310.33,484.515 233.539,440.856 			"/>
		</g>
		<path id="XMLID_36_" class="st14" d="M322.132,412.138l0.002-0.002c0-0.002-0.004-0.003-0.004-0.003l-0.002-0.011l-0.003,0.001
			c0.033-0.549-3.739-0.573-5.185-0.1c-1.771,0.582-5.627,2.342-9.276,3.692c0.247-0.53,0.354-1.195,0.231-2.065
			c-2.835-0.418-4.292-0.818-6.504-1.535c-3.293-1.068-3.399-2.205-6.425-3.016c-4.355-1.166-10.17-0.184-13.154,0.677
			c-1.608-0.634-2.999-1.187-3.998-1.586l-4.153,0.332c0.554,0.263,1.203,0.585,1.826,0.892c-0.618-0.196-1.182-0.375-1.613-0.511
			l-4.778,10.026l-2.281,8.954c1.508-0.342,7.623,1.443,8.032,1.616c7.241,3.143,19.52,12.166,25.226,12.27
			c7.231-1.258,13.391-3.965,18.371-6.3C321.519,434.023,322.487,412.374,322.132,412.138z M302.552,417.221
			c-0.193,0.034-0.414,0.095-0.594,0.117c-0.525-0.166-1.168-0.383-1.87-0.626C300.864,416.924,301.71,417.106,302.552,417.221z"/>
		<path id="XMLID_35_" class="st14" d="M273.883,425.082c-0.02-0.149-0.041-0.297-0.057-0.448c-0.093-0.891-0.125-1.814-0.102-2.75
			c0.005-0.166,0.013-0.332,0.021-0.499c0.044-0.947,0.138-1.901,0.293-2.844c0.878-5.304,3.472-10.197,7.3-10.868
			c-1.186-0.485-2.286-0.928-3.44-1.397l0.003-0.002c-0.424-0.173-0.817-0.329-1.237-0.499c-1.829-0.743-3.66-1.484-5.421-2.189
			c-1.199-0.481-2.373-0.943-3.546-1.408c-1.381-0.547-2.78-1.103-4.13-1.628c-1.402-0.546-2.78-1.065-4.157-1.588
			c-1.114-0.423-2.247-0.861-3.349-1.27c-1.85-0.687-3.682-1.342-5.512-1.992c-0.614-0.218-1.235-0.451-1.847-0.665
			c-2.42-0.844-4.838-1.656-7.273-2.442c-0.84-0.271-1.701-0.525-2.547-0.79c-1.621-0.508-3.246-1.017-4.897-1.503
			c-1.083-0.319-2.202-0.623-3.301-0.933c-1.442-0.406-2.886-0.814-4.365-1.207c-1.251-0.332-2.549-0.654-3.832-0.977
			c-0.942-0.237-1.848-0.484-2.81-0.716c-0.019,0-0.043,0.009-0.062,0.009c-0.993-0.24-1.937-0.492-2.954-0.727
			c-3.302,1.508-10.112,7.741-11.066,7.527c-1.493-0.33-3.884-0.986-6.525-1.529c-0.355-1.984,0.259-4.214,1.036-7.665
			c-9.27,2.671-18.902,4.551-14.659,16.812c1.082,3.117,2.843,5.933,6.538,8.721c3.308,2.508,8.181,3.608,13.183,5.92
			c19.357,8.944,40.258,10.498,70.368,14.656c-0.424-0.665-0.754-1.443-1.027-2.273c-0.031-0.093-0.069-0.179-0.098-0.273
			C274.166,426.847,273.998,425.98,273.883,425.082z"/>
	</g>
	<path id="XMLID_33_" class="st14" d="M302.989,243.977c0.895-7.755,3.03-15.047,7.96-24.6l-38.801-15.313l-9.835-4.289
		c5.021,20.528,1.472,30.236-5.578,47.859c-0.813,5.85,4.392,11.883,13.328,17.253c13.919,8.362,36.529-0.36,34.031-10.057
		C302.376,248.164,302.416,248.991,302.989,243.977z"/>
	<g id="XMLID_19_">
		<path id="XMLID_32_" class="st24" d="M311.335,189.077l-18.59-6.455v-30.246l8.505-23.627
			C326.253,137.502,324.58,183.921,311.335,189.077z"/>
		<g id="XMLID_25_">
			<g>
				<path id="XMLID_16_" class="st25" d="M278.859,126.65c-11.913-2.487-21.906,5.001-29.037,14.16
					c-8.164,10.476-12.057,26.798-6.765,39.655c2.231,5.418,7.241,9.59,17.618,13.596c9.575,19.975,17.971,28.896,40.507,32.93
					c10.29,1.84,17.363,0.367,19.821-2.177c13.615-14.09,8.54-72.449-12.393-88.942C287.676,119.379,278.859,126.65,278.859,126.65z
					"/>
			</g>
			<g>
				<path id="XMLID_15_" class="st26" d="M278.859,126.65c-11.913-2.487-21.906,5.001-29.037,14.16
					c-8.164,10.476-12.057,26.798-6.765,39.655c2.231,5.418,7.241,9.59,17.618,13.596c9.575,19.975,17.971,28.896,40.507,32.93
					c10.29,1.84,17.363,0.367,19.821-2.177c13.615-14.09,8.54-72.449-12.393-88.942C287.676,119.379,278.859,126.65,278.859,126.65z
					"/>
			</g>
		</g>
		<linearGradient id="XMLID_4_" gradientUnits="userSpaceOnUse" x1="272.0292" y1="228.5361" x2="272.0292" y2="122.9114">
			<stop  offset="0.0583" style="stop-color:#335987"/>
			<stop  offset="0.4976" style="stop-color:#335A88"/>
			<stop  offset="1" style="stop-color:#4172AA"/>
		</linearGradient>
		<path id="XMLID_24_" class="st27" d="M314.428,139.584c-0.112-0.182-0.25-0.346-0.367-0.525c0.007-0.013,0.016-0.026,0.023-0.039
			c-2.584-5.033-8.229-9.234-15.405-12.094c-5.41-2.259-11.507-3.554-17.764-3.893c-0.804-0.052-1.613-0.076-2.424-0.097
			c-0.061-0.001-0.122-0.005-0.183-0.005c-2.832-0.066-5.693,0.036-8.539,0.371c-11.242,1.326-21.727,6.04-27.412,12.615
			c-8.588,8.767-12.543,21.405-12.724,36.434c-0.047,3.846,0.406,8.082,1.272,12.453c2.252,13.264,8,25.287,15.474,33.684
			c0.639,0.753,1.293,1.47,1.961,2.163c0.018,0.018,0.034,0.036,0.052,0.053c3.344,3.46,7.015,6.179,10.967,7.692
			c0.001-0.003,0.002-0.006,0.002-0.006c0.1,0.04,0.195,0.105,0.295,0.147c0.605-1.247,2.25-6.828,3.59-12.513
			c0.597-2.283,1.026-4.305,1.304-6.203c0.54-3.029,0.807-5.56,0.517-6.715l-0.103-1.222c-0.059-1.993-0.213-4.115-0.434-6.564
			C273.639,187.042,300.645,175.062,314.428,139.584z"/>
		<path id="XMLID_23_" class="st26" d="M264.834,195.183c0.086-5.361-2.706-13.356-8.626-14.705
			c-9.326-2.125-8.301,8.277-6.242,14.438c1.413,4.234,4.956,3.538,6.61,6.823c1.967,3.917,5.334,5.484,8.027,5.125
			C270.068,206.139,265.826,198.349,264.834,195.183z"/>
		<g id="XMLID_20_">
			
				<ellipse id="XMLID_22_" transform="matrix(0.9817 -0.1903 0.1903 0.9817 -28.9094 59.2381)" class="st28" cx="294.047" cy="180.174" rx="3.087" ry="5.097"/>
			
				<ellipse id="XMLID_21_" transform="matrix(0.9817 -0.1903 0.1903 0.9817 -27.4876 64.0526)" class="st28" cx="319.831" cy="175.177" rx="3.087" ry="5.097"/>
		</g>
	</g>
	<g id="XMLID_7_">
		<path id="XMLID_8_" class="st15" d="M337.442,269.349c-0.888-1.889-3.139-2.7-5.028-1.812l-13.056,6.139
			c-1.889,0.888-2.7,3.139-1.812,5.028l5.693,12.108c0.888,1.888,3.139,2.7,5.028,1.812l13.056-6.139
			c1.889-0.888,2.7-3.14,1.812-5.028L337.442,269.349z M320.506,276.878c0.249-0.905,0.649-1.736,1.207-2.45
			c1.432-1.83,3.823-1.602,3.756,0.803c-0.078,2.781-0.092,4.855-0.154,7.545c-0.064,2.822,0.336,3.914,0.336,3.914
			C321.701,284.743,319.461,280.696,320.506,276.878 M326.266,285.689c0.05-1.921,0.335-10.308,0.572-11.709
			c0.772-4.571,10.772-2.124,9.233,2.249c-1.373,3.899-4.941,9.627-5.654,10.806C329.703,288.213,326.221,287.45,326.266,285.689
			 M340.149,279.479c0.117,0.898,0.037,1.819-0.211,2.723c-1.045,3.818-5.036,6.158-9.426,5.819c0,0,0.9-0.736,2.284-3.197
			c1.319-2.344,2.364-4.137,3.714-6.569C337.676,276.153,339.85,277.174,340.149,279.479"/>
	</g>
	<path id="XMLID_6_" class="st29" d="M446.502,657.242l2.595-1.169c9.314-4.196,20.08-3.636,28.907,1.505l268.34,156.247
		c4.081,2.376,3.77,8.372-0.536,10.312l-2.595,1.169c-9.313,4.196-20.08,3.636-28.907-1.504l-268.34-156.247
		C441.884,665.178,442.196,659.182,446.502,657.242z"/>
	<path id="XMLID_5_" class="st29" d="M446.502,657.242l2.595-1.169c9.314-4.196,20.08-3.636,28.907,1.505l268.34,156.247
		c4.081,2.376,3.77,8.372-0.536,10.312l-2.595,1.169c-9.313,4.196-20.08,3.636-28.907-1.504l-268.34-156.247
		C441.884,665.178,442.196,659.182,446.502,657.242z"/>
</g>
</svg>
