<?xml version="1.0" encoding="utf-8"?>
<!-- Generator: Adobe Illustrator 19.2.0, SVG Export Plug-In . SVG Version: 6.00 Build 0)  -->
<svg version="1.1" id="Capa_1" xmlns="http://www.w3.org/2000/svg" xmlns:xlink="http://www.w3.org/1999/xlink" x="0px" y="0px"
	 viewBox="0 0 1044 904" style="enable-background:new 0 0 1044 904;" xml:space="preserve">
<style type="text/css">
	.st0{fill:url(#XMLID_2_);}
	.st1{fill-rule:evenodd;clip-rule:evenodd;fill:#A4252A;}
	.st2{fill-rule:evenodd;clip-rule:evenodd;fill:#8D2327;}
	.st3{fill-rule:evenodd;clip-rule:evenodd;fill:#812124;}
	.st4{fill:#4274AD;}
	.st5{fill:#74B4B3;}
	.st6{fill:#E8E8E8;}
	.st7{fill:url(#XMLID_3_);}
	.st8{fill:url(#XMLID_4_);}
	.st9{fill:#FFFFFF;}
	.st10{fill:url(#XMLID_5_);}
	.st11{fill:#EDCECE;}
	.st12{fill:url(#XMLID_6_);}
	.st13{fill:url(#XMLID_7_);}
	.st14{fill:url(#XMLID_8_);}
	.st15{fill:url(#XMLID_9_);}
	.st16{fill:url(#XMLID_10_);}
	.st17{fill:url(#XMLID_11_);}
	.st18{fill:#5E4F44;}
</style>
<g>
	<g id="XMLID_233_">
		
			<linearGradient id="XMLID_2_" gradientUnits="userSpaceOnUse" x1="7802.6753" y1="222.0266" x2="7679.5991" y2="222.0266" gradientTransform="matrix(-1 0 0 1 8452.6504 0)">
			<stop  offset="0.4248" style="stop-color:#EBCDCD"/>
			<stop  offset="0.6296" style="stop-color:#D5B9B9"/>
			<stop  offset="0.8345" style="stop-color:#C5ACAC"/>
			<stop  offset="1" style="stop-color:#C0A7A7"/>
		</linearGradient>
		<path id="XMLID_239_" class="st0" d="M657.403,140.886c0.549-0.572,1.156-1.069,1.806-1.505c0.222-0.149,0.477-0.253,0.71-0.386
			c0.449-0.256,0.896-0.515,1.384-0.714c0.303-0.123,0.635-0.203,0.953-0.304c0.461-0.147,0.92-0.298,1.41-0.398
			c0.356-0.073,0.734-0.109,1.104-0.158c0.493-0.065,0.986-0.13,1.504-0.153c0.397-0.017,0.811-0.004,1.222,0.003
			c0.528,0.009,1.057,0.025,1.607,0.074c0.431,0.039,0.873,0.101,1.316,0.165c0.564,0.081,1.133,0.174,1.716,0.295
			c0.458,0.095,0.922,0.205,1.391,0.324c0.596,0.151,1.197,0.32,1.809,0.51c0.485,0.15,0.973,0.31,1.467,0.484
			c0.616,0.217,1.238,0.458,1.868,0.712c0.307,0.124,0.603,0.215,0.913,0.348c0.023,0.022,0.047,0.043,0.07,0.065
			c8.147,3.507,17.275,9.995,25.998,19.17c12.802,13.462,24.535,34.108,34.309,50.9c6.924,11.892,28.783,42.893,32.623,65.548
			c0.809,4.77,0.602,10.15-0.883,15.193l0.029,0.03c-0.05,0.168-0.119,0.329-0.172,0.496c-0.108,0.344-0.233,0.681-0.354,1.022
			c-0.228,0.642-0.477,1.275-0.751,1.9c-0.152,0.346-0.306,0.689-0.473,1.029c-0.31,0.633-0.653,1.248-1.014,1.857
			c-0.173,0.292-0.332,0.588-0.517,0.874c-0.566,0.871-1.173,1.718-1.854,2.518c-16.576,19.453-47.732-13.468-57.881-26.046
			c-19.235-23.829-46.712-67.085-51.138-76.049C646.042,175.342,648.994,149.648,657.403,140.886z"/>
		<g id="XMLID_235_">
			<path id="XMLID_238_" class="st1" d="M545.629,200.509c2.057,0.546,4.119,1.093,6.135,1.7
				c17.982,5.407,34.532,9.914,38.803-11.382c-2.079-6.944-3.158-13.762-1.436-17.778c-16.323,8.672-35.27,19.613-42.906,26.886
				C546.024,200.126,545.825,200.319,545.629,200.509z"/>
			<path id="XMLID_237_" class="st2" d="M545.629,200.509c2.057,0.546,4.119,1.093,6.135,1.7
				c17.982,5.407,34.532,9.909,38.803-11.387c-1.128-3.756-1.955-7.474-2.208-10.729c-2.011-1.147-4.043-2.259-6.102-3.336
				c-6.624,3.625-13.36,7.476-19.345,11.189c-3.446,2.138-7.277,3.903-10.067,5.878c-2.936,2.082-4.792,4.366-6.621,6.111
				C546.024,200.126,545.825,200.319,545.629,200.509z"/>
			<path id="XMLID_236_" class="st3" d="M563.141,187.804c8.429,3.544,16.252,7.834,23.409,12.994
				c1.177-1.592,2.179-3.553,2.967-5.949c-6.521-4.042-13.286-7.595-20.282-10.719C567.148,185.358,565.107,186.587,563.141,187.804
				z"/>
		</g>
		<path id="XMLID_234_" class="st4" d="M656.153,144.124c8.019-8.541,41.554-19.411,66.341,27.175s16.038,27.952,16.038,27.952
			s-12.393,37.269-52.489,36.493s-29.161-88.514-29.161-88.514L656.153,144.124z"/>
	</g>
	<g id="XMLID_230_">
		<path id="XMLID_232_" class="st5" d="M682.962,764.139c-6.482,8.804-25.105,20.906-7.144,35.757
			c17.962,14.85,19.028,1.546,47.521,10.47c28.494,8.924,27.696,14.869,46.579,11.541s24.389-14.625,17.421-19.805
			s-51.664-18.861-63.773-33.311C711.458,754.341,682.962,764.139,682.962,764.139z"/>
		<path id="XMLID_231_" class="st6" d="M685.796,760.915c-6.117,8.321-23.744,19.719-6.636,33.872
			c17.108,14.152,18.066,1.543,45.147,10.119c27.081,8.576,26.348,14.209,44.257,11.13c17.909-3.079,23.089-13.768,16.455-18.706
			c-6.634-4.939-49.112-18.091-60.664-31.84C712.803,751.741,685.796,760.915,685.796,760.915z"/>
	</g>
	<path id="XMLID_229_" class="st5" d="M588.044,782.762c-10.437,3.713-17.771,6.072-15.192,27.249s-3.821,62.496,26.078,71.065
		c29.899,8.569,31.697-25.84,26.963-42.358c-4.734-16.518,3.692-27.802-11.62-59.638c-15.311-31.837-36.666,7.396-36.666,7.396"/>
	<path id="XMLID_228_" class="st6" d="M588.233,777.17c-9.704,3.624-16.527,5.92-13.947,27.097s-3.052,62.402,24.906,71.207
		c27.959,8.805,29.354-25.555,24.802-42.095s3.216-27.744-11.327-59.674c-14.542-31.93-34.139,7.089-34.139,7.089"/>
	
		<linearGradient id="XMLID_3_" gradientUnits="userSpaceOnUse" x1="13930.0439" y1="588.8441" x2="13930.0439" y2="200.0111" gradientTransform="matrix(-0.9999 0.0168 0.0168 0.9999 14570.252 -30.8759)">
		<stop  offset="0" style="stop-color:#39383B"/>
		<stop  offset="0.333" style="stop-color:#3F3E40"/>
		<stop  offset="0.9442" style="stop-color:#444345"/>
	</linearGradient>
	<path id="XMLID_227_" class="st7" d="M575.492,766.03c0,0,10.353-318.169,10.636-348.01c0.283-29.841,135.9-3.893,135.9-3.893
		c1.26,28.245-1.288,304.706,0.717,330.583l-0.12,20.459c-13.093,12.085-45.321,6.043-45.321,6.043l0.046-17.886
		c0,0-12.976-164.668-26.446-218.618c0,0-28.08,206.955-29.938,227.418c-2.075,22.851-8.117,30.908-24.232,30.908
		C580.621,793.032,574.392,790.055,575.492,766.03z"/>
	
		<linearGradient id="XMLID_4_" gradientUnits="userSpaceOnUse" x1="7801.4854" y1="637.1585" x2="7801.4854" y2="348.4195" gradientTransform="matrix(-0.9998 -0.0221 -0.0221 0.9998 8450.8467 -25.534)">
		<stop  offset="0.0583" style="stop-color:#335987"/>
		<stop  offset="0.5413" style="stop-color:#4172AA"/>
	</linearGradient>
	<path id="XMLID_226_" class="st8" d="M555.726,216.458c5.032-33.38,51.18-63.462,51.18-63.462s13.912,9.753,31.555,10.155
		c17.643,0.403,23.807-12.666,23.807-12.666s16.626,11.23,25.964,14.745c9.339,3.515,40.526,49.044,37.411,102.753
		s-1.663,150.451-1.663,150.451s-67.593,42.33-137.012,5.363L555.726,216.458z"/>
	<path id="XMLID_221_" class="st9" d="M680.01,210.237l3.608,18.479c0.563,2.882,3.286,4.749,6.083,4.169l19.327-4.011
		c2.797-0.58,4.606-3.389,4.044-6.27l-3.608-18.479c-0.563-2.883-3.285-4.749-6.082-4.169l-19.327,4.011
		C681.257,204.547,679.447,207.354,680.01,210.237z M694.179,227.341c0,0,1.435-0.704,4.073-3.606
		c2.514-2.764,4.486-4.865,7.07-7.739c2.234-2.484,4.786-0.357,4.432,2.897c-0.137,1.268-0.543,2.5-1.168,3.655
		C705.954,227.419,699.895,229.28,694.179,227.341z M689.306,222.724c0.693-2.611,3.805-13.99,4.576-15.827
		c2.515-5.993,14.987,0.714,11.52,6.179c-3.092,4.872-9.695,11.51-11.026,12.884C693.044,227.332,688.671,225.117,689.306,222.724z
		 M684.534,208.734c0.626-1.154,1.428-2.157,2.4-2.946c2.498-2.023,5.596-0.907,4.723,2.36c-1.011,3.779-1.705,6.611-2.663,10.27
		c-1.004,3.839-0.83,5.468-0.83,5.468C683.556,219.896,681.902,213.606,684.534,208.734z"/>
	
		<linearGradient id="XMLID_5_" gradientUnits="userSpaceOnUse" x1="7796.7773" y1="281.2968" x2="7829.0786" y2="308.4008" gradientTransform="matrix(-1 0 0 1 8452.6504 0)">
		<stop  offset="0.4248" style="stop-color:#EBCDCD"/>
		<stop  offset="0.435" style="stop-color:#EACCCC"/>
		<stop  offset="0.6485" style="stop-color:#D5B3B3"/>
		<stop  offset="0.843" style="stop-color:#C8A3A3"/>
		<stop  offset="1" style="stop-color:#C49E9E"/>
	</linearGradient>
	<path id="XMLID_220_" class="st10" d="M651.197,275.936c-4.665,0.622-12.007,0.198-17.588,1.603
		c-5.472,1.38-9.289,4.169-12.264,8.192l14.73,37.57c8.371-9.795,17.896-19.448,26.896-28.271l-0.388-5.737L651.197,275.936z"/>
	<path id="XMLID_219_" class="st11" d="M695.194,263.782c7.358-10.861,13.898-17.749,19.466-16.96
		c5.802,0.818,14.349,7.999,18.881,15.469l-0.286-0.005c-7.375-0.077-18.927,1.364-31.345,3.35
		C699.86,264.774,697.63,264.162,695.194,263.782z"/>
	
		<linearGradient id="XMLID_6_" gradientUnits="userSpaceOnUse" x1="7884.2046" y1="311.7756" x2="7784.4302" y2="228.0549" gradientTransform="matrix(-1 0 0 1 8452.6504 0)">
		<stop  offset="0.4248" style="stop-color:#EBCDCD"/>
		<stop  offset="0.5384" style="stop-color:#D7BBBB"/>
		<stop  offset="0.7128" style="stop-color:#BEA6A5"/>
		<stop  offset="0.8718" style="stop-color:#AE9998"/>
		<stop  offset="1" style="stop-color:#A99493"/>
	</linearGradient>
	<path id="XMLID_218_" class="st12" d="M539.102,230.848c-0.111-0.935-0.217-1.866-0.271-2.765
		c-0.019-0.319-0.009-0.618-0.021-0.932c-0.032-0.818-0.068-1.637-0.055-2.422c0.005-0.285,0.036-0.55,0.047-0.831
		c0.029-0.789,0.059-1.579,0.133-2.334c0.031-0.316,0.09-0.609,0.129-0.919c0.086-0.692,0.168-1.388,0.29-2.049
		c0.066-0.354,0.162-0.681,0.238-1.026c0.13-0.587,0.25-1.184,0.409-1.744c0.099-0.354,0.229-0.679,0.34-1.022
		c0.168-0.519,0.326-1.05,0.518-1.544c0.137-0.351,0.302-0.671,0.451-1.01c0.198-0.451,0.385-0.914,0.604-1.342
		c0.177-0.346,0.381-0.658,0.571-0.988c0.221-0.384,0.43-0.784,0.668-1.147c0.216-0.329,0.456-0.622,0.684-0.933
		c0.24-0.327,0.468-0.67,0.722-0.976c0.251-0.304,0.526-0.57,0.79-0.854c0.257-0.276,0.503-0.569,0.772-0.826
		c0.28-0.268,0.581-0.498,0.873-0.745c0.276-0.233,0.542-0.484,0.828-0.699c0.308-0.23,0.633-0.421,0.952-0.629
		c0.292-0.19,0.575-0.399,0.876-0.571c0.336-0.192,0.688-0.344,1.035-0.511c0.301-0.146,0.594-0.31,0.902-0.438
		c0.357-0.148,0.728-0.255,1.094-0.378c0.315-0.106,0.622-0.23,0.943-0.317c0.37-0.1,0.751-0.159,1.128-0.234
		c0.308-0.061,0.609-0.147,0.922-0.192l0.002,0.008c0.05-0.007,0.097-0.023,0.147-0.029c4.811-0.641,10.27,0.53,15.901,3.255
		c7.793,3.531,14.747,9.681,21.004,17.473c2.056,2.511,4.044,5.237,5.953,8.163c1.585,2.386,3.126,4.862,4.619,7.421
		c3.376,5.785,5.36,11.015,6.969,16.21c0.64,1.799,1.276,3.603,1.847,5.483c3.865,12.709,8.104,23.153,12.255,32.132
		c5.277,10.404,11.377,21.543,14.302,28.005c5.409-4.946,8.252-7.848,13.281-11.518c18.198-15.315,36.373-28.653,43.999-36.798
		c3.584,0.768,6.66,2.004,9.341,3.709l0.007-0.008c0.13,0.083,0.239,0.191,0.367,0.276c0.829,0.55,1.625,1.144,2.379,1.789
		c0.3,0.257,0.584,0.538,0.872,0.81c0.579,0.544,1.14,1.115,1.676,1.72c0.287,0.324,0.571,0.655,0.846,0.997
		c0.526,0.653,1.028,1.348,1.515,2.066c0.222,0.328,0.454,0.643,0.668,0.984c0.677,1.08,1.326,2.21,1.932,3.427
		c-28.083,47.037-28.291,57.024-66.003,79.789c-3.812,2.306-8.091,4.649-13.009,4.983c-4.53,0.723-8.715-0.807-13.094-3.184
		c-0.142-0.073-0.268-0.15-0.408-0.224c-1.161-0.641-2.333-1.319-3.535-2.041c-8.427-5.06-17.383-12.38-23.569-21.15
		c-21.459-30.449-50.155-79.772-56.13-108.901c-0.259-1.264-0.469-2.499-0.631-3.706
		C539.142,231.352,539.132,231.107,539.102,230.848z"/>
	<path id="XMLID_217_" class="st4" d="M610.27,252.972c0,0-26.68,31.126-56.222,28.441c0,0-22.828-43.642-20.814-65.127
		C535.248,194.8,585.251,168.132,610.27,252.972z"/>
	
		<linearGradient id="XMLID_7_" gradientUnits="userSpaceOnUse" x1="7739.041" y1="372.4845" x2="8411.4766" y2="372.4845" gradientTransform="matrix(-0.9999 -0.0141 -0.0141 0.9999 8451.2324 -15.0445)">
		<stop  offset="0" style="stop-color:#548080"/>
		<stop  offset="0.212" style="stop-color:#679F9E"/>
		<stop  offset="0.3447" style="stop-color:#74B4B3"/>
	</linearGradient>
	<path id="XMLID_216_" class="st13" d="M58.663,329.369c0.741-0.885,1.442-1.767,2.12-2.647c0.513-0.666,1.028-1.333,1.506-1.996
		c0.642-0.89,1.237-1.775,1.819-2.659c0.423-0.641,0.857-1.283,1.249-1.921c0.563-0.913,1.073-1.82,1.579-2.726
		c0.335-0.599,0.689-1.2,1-1.797c0.498-0.954,0.942-1.899,1.384-2.845c4.96-10.606,6.635-20.706,8.448-30.059
		c0.077-0.382,0.158-0.745,0.233-1.118l0.008,0.002c1.795-8.748,4.362-16.009,7.567-22.113l-0.015-0.004
		c0.047-0.089,0.099-0.169,0.146-0.258c0.408-0.769,0.838-1.5,1.265-2.233c0.281-0.481,0.557-0.973,0.847-1.439
		c0.438-0.705,0.893-1.379,1.349-2.051c0.303-0.447,0.604-0.898,0.915-1.33c0.472-0.655,0.958-1.286,1.448-1.91
		c0.317-0.404,0.633-0.808,0.958-1.199c0.51-0.615,1.032-1.211,1.56-1.796c0.322-0.356,0.645-0.711,0.973-1.057
		c0.555-0.585,1.12-1.155,1.692-1.71c0.315-0.305,0.632-0.606,0.952-0.903c0.608-0.563,1.223-1.115,1.848-1.649
		c0.295-0.251,0.593-0.497,0.891-0.742c0.67-0.55,1.345-1.09,2.033-1.611c0.256-0.193,0.514-0.38,0.772-0.569
		c0.747-0.549,1.501-1.088,2.268-1.606c0.053-0.035,0.103-0.075,0.155-0.11l0.006,0.002c12.996-8.711,28.768-13.274,44.559-20.139
		c0.773-0.336,1.547-0.675,2.32-1.023c0.527-0.237,1.051-0.483,1.577-0.726c0.721-0.333,1.442-0.667,2.161-1.013
		c0.564-0.271,1.127-0.555,1.69-0.835c0.686-0.341,1.373-0.679,2.058-1.033c0.584-0.302,1.166-0.621,1.747-0.934
		c0.662-0.355,1.324-0.706,1.983-1.076c0.616-0.346,1.228-0.713,1.841-1.072c0.618-0.362,1.238-0.716,1.853-1.093
		c0.661-0.405,1.317-0.837,1.974-1.26c0.565-0.364,1.133-0.715,1.695-1.093c0.744-0.5,1.479-1.033,2.217-1.558
		c0.466-0.332,0.937-0.647,1.4-0.99c1.199-0.887,2.389-1.808,3.567-2.771c1.578-1.29,3.031-2.672,4.431-4.092
		c0.24-0.244,0.476-0.492,0.712-0.74c0.345-0.363,0.662-0.747,0.997-1.117c0.946-1.045,1.887-2.095,2.757-3.195
		c0.521-0.659,1.002-1.345,1.498-2.022c0.75-1.023,1.494-2.049,2.191-3.11c0.492-0.747,0.96-1.511,1.427-2.275
		c1.889-3.084,3.619-6.28,5.205-9.573c0.209-0.435,0.418-0.87,0.622-1.307c1.727-3.68,3.327-7.443,4.874-11.23
		c0.177-0.434,0.355-0.868,0.53-1.302c0.723-1.782,1.44-3.567,2.156-5.346l0,0c3.329-8.272,6.695-16.432,11.03-23.752l-0.004-0.002
		c0.015-0.026,0.033-0.05,0.048-0.076c0.771-1.298,1.573-2.57,2.411-3.81c0.132-0.195,0.278-0.379,0.411-0.573
		c0.714-1.035,1.447-2.054,2.216-3.043c0.254-0.326,0.529-0.635,0.79-0.955c0.68-0.837,1.37-1.665,2.096-2.462
		c0.312-0.343,0.645-0.668,0.966-1.003c0.714-0.745,1.442-1.478,2.204-2.183c0.36-0.333,0.737-0.65,1.108-0.974
		c0.772-0.673,1.564-1.33,2.387-1.96c0.399-0.306,0.811-0.601,1.222-0.896c0.849-0.609,1.725-1.195,2.629-1.758
		c0.436-0.271,0.878-0.537,1.327-0.797c0.941-0.545,1.92-1.059,2.924-1.552c0.467-0.23,0.932-0.461,1.413-0.679
		c1.054-0.478,2.155-0.917,3.278-1.339c0.341-0.128,0.648-0.284,0.996-0.407c0.011,0.008,0.023,0.015,0.034,0.023
		c8.202-2.888,18.224-4.29,30.808-3.622c160.54,67.144,381.233-21.661,428.7,36.175c3.994,4.865,5.059,8.415,4.087,11.027
		l0.008,0.006c-0.004,0.011-0.014,0.019-0.018,0.03c-0.193,0.506-0.478,0.969-0.818,1.406c-0.077,0.098-0.162,0.193-0.245,0.288
		c-0.341,0.388-0.729,0.754-1.182,1.09c-0.045,0.033-0.081,0.071-0.127,0.104c-0.506,0.361-1.087,0.686-1.713,0.991
		c-0.139,0.067-0.283,0.132-0.427,0.196c-0.609,0.274-1.255,0.53-1.956,0.76c-0.038,0.012-0.067,0.028-0.105,0.041l-0.004-0.002
		c-1.736,0.561-3.725,0.999-5.903,1.341c-16.004,2.512-85.42-6.364-93.415-1.109c-2.954,2.068-5.268,4.424-6.407,6.242
		c-0.023,0.036-0.058,0.075-0.08,0.111c-0.698,1.143-1.304,2.401-1.774,3.748c-0.602,1.714-0.956,3.594-1.036,5.595
		c-0.022,0.554-0.045,1.108-0.019,1.681c0.016,0.344,0.071,0.702,0.106,1.052c0.053,0.536,0.102,1.072,0.201,1.623
		c0.297,1.667,0.792,3.395,1.559,5.185c0.129,0.276,0.205,0.513,0.326,0.783l0.029,0.002c0.238,0.53,0.389,0.995,0.597,1.502
		c0.297,0.725,0.616,1.466,0.854,2.147c0.203,0.58,0.338,1.11,0.5,1.66c0.19,0.644,0.4,1.303,0.534,1.906
		c0.115,0.515,0.165,0.981,0.24,1.468c0.051,0.328,0.129,0.676,0.162,0.991l0.026,0.002c0.007,0.068-0.001,0.124,0.005,0.191
		c0.016,0.167,0.03,0.333,0.042,0.497c0.026,0.372,0.002,0.706,0.003,1.059c0.001,0.408,0.021,0.829-0.01,1.214
		c-0.013,0.163-0.022,0.33-0.04,0.489c-0.035,0.304-0.115,0.575-0.17,0.864c-0.049,0.259-0.059,0.547-0.123,0.795
		c0,0-0.031-0.004-0.047-0.007c-0.066,0.25-0.111,0.516-0.193,0.754c-0.118,0.344-0.291,0.648-0.441,0.969
		c-0.174,0.375-0.327,0.765-0.541,1.11c-0.184,0.295-0.42,0.553-0.632,0.828c-0.247,0.321-0.476,0.657-0.76,0.951
		c-0.244,0.252-0.537,0.47-0.807,0.703c-0.316,0.273-0.612,0.559-0.962,0.808c-0.297,0.211-0.637,0.391-0.956,0.586
		c-0.38,0.231-0.74,0.475-1.15,0.685c-0.343,0.176-0.727,0.324-1.09,0.486c-0.435,0.194-0.854,0.399-1.317,0.574
		c-0.383,0.145-0.801,0.266-1.201,0.399c-0.488,0.162-0.96,0.335-1.472,0.481c-0.419,0.119-0.869,0.219-1.302,0.329
		c-0.529,0.134-1.046,0.277-1.595,0.398c-0.452,0.1-0.931,0.183-1.396,0.274c-0.564,0.111-1.118,0.23-1.698,0.331
		c-0.433,0.076-0.886,0.139-1.328,0.21c-0.638,0.102-1.267,0.208-1.919,0.302c-0.37,0.053-0.751,0.099-1.125,0.15
		c-1.85,0.251-3.737,0.484-5.655,0.708c-159.235,18.59-245.473,248.958-537.052,142.269
		C44.773,343.678,52.738,336.445,58.663,329.369z"/>
	
		<linearGradient id="XMLID_8_" gradientUnits="userSpaceOnUse" x1="7779.022" y1="316.8231" x2="7703.7144" y2="253.6326" gradientTransform="matrix(-1 0 0 1 8452.6504 0)">
		<stop  offset="0.4248" style="stop-color:#EBCDCD"/>
		<stop  offset="0.5816" style="stop-color:#DCC0C0"/>
		<stop  offset="0.813" style="stop-color:#CDB2B2"/>
		<stop  offset="1" style="stop-color:#C8ADAD"/>
	</linearGradient>
	<path id="XMLID_215_" class="st14" d="M659.531,294.363c-0.017-0.786-0.018-1.581-0.108-2.326
		c-0.059-0.492-0.183-0.945-0.272-1.419c-0.12-0.643-0.22-1.298-0.393-1.909c-0.135-0.479-0.327-0.923-0.493-1.384
		c-0.74-2.059-1.76-3.947-3.018-5.681c-0.665-0.916-1.389-1.793-2.169-2.632c-0.245-0.263-0.486-0.528-0.742-0.784
		c-0.973-0.978-1.992-1.923-3.091-2.807c17.633-3.35,64.881-13.326,84.009-13.134c1.579,0.016,3.109,0.103,4.615,0.222
		c0.454,0.036,0.896,0.083,1.344,0.128c1.097,0.11,2.171,0.245,3.223,0.406c0.415,0.063,0.834,0.12,1.241,0.191
		c1.374,0.24,2.716,0.511,4.004,0.832c0.202,0.05,0.388,0.112,0.588,0.164c1.1,0.287,2.163,0.602,3.192,0.943
		c0.386,0.128,0.76,0.261,1.135,0.396c0.877,0.315,1.723,0.649,2.542,1c0.3,0.129,0.61,0.251,0.902,0.384
		c1.055,0.482,2.062,0.989,3.006,1.524c0.198,0.112,0.375,0.233,0.568,0.347c0.752,0.446,1.465,0.907,2.139,1.383
		c0.258,0.182,0.507,0.366,0.752,0.552c0.628,0.476,1.213,0.962,1.76,1.461c0.117,0.107,0.264,0.206,0.378,0.314
		c0.01,0.015,0.012,0.026,0.022,0.041c2.834,2.707,4.485,5.698,4.647,8.667c0.684,12.554-2.339,22.276-10.132,24.307
		c-17.508,4.565-69.65-1.323-100-5.947c0.234-1.371,0.361-2.682,0.401-3.943C659.595,295.211,659.541,294.8,659.531,294.363z"/>
	<path id="XMLID_214_" class="st11" d="M600.857,156.761c-1.401,14.626,43.566,33.778,60.696,26.29
		c1.803-0.788,2.753-4.167,3.863-5.527c-1.041-3.747-2.06-5.969-1.685-9.783c0.429-4.311,2.184-7.511,3.79-11.392
		c2.044-4.945,2.108-15.414,5.647-27.002l-51.275-19.907l-10.977-5.185C616.173,127.053,610.374,137.652,600.857,156.761z"/>
	<g id="XMLID_204_">
		<path id="XMLID_213_" class="st11" d="M603.871,48.453c9.217-10.67,21.314-15.607,36.095-15.403
			c0.364,0.005,0.702,0.047,1.062,0.058c1.286,0.039,2.559,0.095,3.792,0.206c0.63,0.057,1.232,0.15,1.849,0.226
			c0.954,0.116,1.905,0.235,2.825,0.395c0.635,0.11,1.25,0.245,1.87,0.375c0.867,0.182,1.724,0.374,2.56,0.594
			c0.6,0.158,1.189,0.328,1.774,0.505c0.822,0.249,1.628,0.517,2.419,0.803c0.549,0.198,1.097,0.397,1.632,0.612
			c0.81,0.326,1.596,0.682,2.374,1.046c0.472,0.221,0.952,0.432,1.411,0.667c0.877,0.448,1.722,0.935,2.557,1.432
			c0.323,0.193,0.661,0.367,0.978,0.566c1.134,0.714,2.229,1.471,3.283,2.272c0.233,0.177,0.447,0.374,0.676,0.556
			c0.812,0.642,1.609,1.299,2.373,1.991c0.354,0.32,0.688,0.66,1.031,0.99c0.611,0.588,1.216,1.183,1.796,1.804
			c0.357,0.382,0.701,0.776,1.046,1.17c0.533,0.608,1.055,1.226,1.561,1.86c0.333,0.419,0.661,0.842,0.983,1.272
			c0.491,0.656,0.965,1.328,1.428,2.009c0.292,0.429,0.586,0.855,0.867,1.294c0.479,0.75,0.935,1.52,1.383,2.296
			c0.227,0.393,0.465,0.777,0.684,1.177c0.576,1.051,1.122,2.126,1.643,3.219c0.067,0.14,0.143,0.273,0.208,0.414
			c0.551,1.175,1.073,2.372,1.562,3.591l-0.01,0.014c1.155,2.879,2.153,5.865,2.981,8.946l1.164,49.37
			c0.102,2.012-0.118,5.056-0.626,10.039c-0.859,8.406-3.386,18.047-6.117,19.827c-2.377,1.556-4.978,2.152-8.712,3.723
			c-1.464,0.618-2.935,1.045-5.065,1.047l0.006,0.005l-0.058-0.003c-0.247-0.001-0.537-0.027-0.804-0.04
			c-0.318-0.015-0.617-0.018-0.965-0.051c-0.388-0.037-0.838-0.108-1.269-0.169c-0.281-0.04-0.53-0.062-0.83-0.113
			c-0.619-0.104-1.312-0.249-2.022-0.403c-0.165-0.036-0.3-0.056-0.47-0.094c-0.909-0.206-1.892-0.451-2.966-0.742
			c-6.669-2.676-21.926-5.45-27.983-8.241c-1.655-0.762-3.119-1.64-4.427-2.625c-9.155-6.897-10.664-19.044-16.597-33.226
			c-12.343-5.493-17.209-10.858-19.586-17.569c-0.704-1.989-1.23-4.036-1.592-6.118c-0.181-1.041-0.321-2.091-0.421-3.147
			C589.922,73.148,595.306,58.369,603.871,48.453z"/>
		
			<linearGradient id="XMLID_9_" gradientUnits="userSpaceOnUse" x1="7829.5869" y1="147.2046" x2="7798.8198" y2="62.6735" gradientTransform="matrix(-1 0 0 1 8452.6504 0)">
			<stop  offset="0.0583" style="stop-color:#335987"/>
			<stop  offset="0.5413" style="stop-color:#4172AA"/>
		</linearGradient>
		<path id="XMLID_210_" class="st15" d="M585.369,74.842c-0.025,5.745,0.626,11.143,1.77,15.089
			c4.108,14.179,12.81,25.881,27.832,35.757c5.733,3.775,7.658-10.591,8.686-15.261c0.539,6.97,0.098,14.497-1.888,21.812
			c-1.916,7.049,0.6,8.77,4.307,11.399c8.937,6.342,21.915,13.772,34.518,16.743c6.942,1.641,12.377,2.264,15.97,0.483
			c6.073-3.01,10.162-5.065,12.173-8.197c3.658-5.692,3.487-23.057,3.03-29.774c-1.937,2.135-3.235,0.047-7.36-0.456
			c-2.243-0.274-8.422,2.408-11.916,4.366c-12.167,6.831-10.846,15.526-13.963,16.238c-1.047,0.237-7.489-3.308-10.451-5.041
			c-5.869-3.428-9.561-7.001-10.933-10.822c-3.505-9.769-8.828-21.82-12.311-33.785c-0.308-3.805,3.292-4.366,2.685-8.065
			c-0.344-2.09-0.752-3.947-1.161-5.683l0.007-0.002c-0.043-0.182-0.085-0.348-0.127-0.527c-0.113-0.472-0.219-0.913-0.329-1.364
			c-0.149-0.609-0.291-1.196-0.431-1.772c-0.166-0.683-0.317-1.338-0.459-1.984c-0.035-0.157-0.075-0.321-0.107-0.476
			c-0.162-0.762-0.298-1.503-0.406-2.231c-0.022-0.142-0.031-0.282-0.05-0.423c-0.076-0.572-0.129-1.138-0.159-1.701
			c-0.011-0.216-0.015-0.431-0.019-0.646c-0.009-0.513,0.01-1.025,0.051-1.539c0.016-0.206,0.025-0.411,0.05-0.618
			c0.084-0.705,0.204-1.414,0.4-2.139c5.296-7.456,25.257,7.699,41.213,5.832c-7.141-2.65-29.947-12.818-41.584-17.753
			c-11.898-5.052-24.87-10.389-33.271-2.21c-0.774,1.245-1.433,2.617-2.038,4.04c-0.111,0.26-0.226,0.512-0.331,0.777
			c-0.552,1.391-1.031,2.841-1.439,4.343c-0.079,0.29-0.148,0.583-0.221,0.877c-0.392,1.558-0.736,3.144-0.992,4.777
			c0,0-0.003,0.013-0.005,0.026c-0.256,1.638-0.424,3.295-0.55,4.948c-0.025,0.316-0.053,0.627-0.073,0.943
			c-0.084,1.343-0.141,2.682-0.148,4L585.369,74.842z M671.784,135.313c1.555-2.018,6.734-4.357,9.077-5.409
			c3.359-1.512,5.928,1.894,6.707,5.385c0.328,1.471,0.553,2.892-0.023,3.988c-0.621,1.173-1.931,1.468-3.995,2.579
			c-1.465-2.558-2.012-3.144-4.155-1.806c-1.848,1.158-2.541,1.512-1.029,5.047c-1.796,1.271-3.729,2.359-5.681,2.838
			c-1.577,0.392-1.212-0.129-1.754-1.019C669.288,144.207,670.277,137.26,671.784,135.313z"/>
		
			<linearGradient id="XMLID_10_" gradientUnits="userSpaceOnUse" x1="7785.73" y1="159.2074" x2="7771.1523" y2="119.1558" gradientTransform="matrix(-1 0 0 1 8452.6504 0)">
			<stop  offset="0.0583" style="stop-color:#335987"/>
			<stop  offset="0.5413" style="stop-color:#4172AA"/>
		</linearGradient>
		<path id="XMLID_207_" class="st16" d="M653.812,141.149c2.193,1.127,4.179,2.012,4.717,1.893
			c3.117-0.713,1.796-9.408,13.962-16.239c3.494-1.959,9.673-4.64,11.916-4.366c4.125,0.504,5.423,2.591,7.36,0.456
			c0.456,6.717,0.628,24.082-3.03,29.774c-2.011,3.133-6.1,5.187-12.173,8.197c-0.815,0.403-1.727,0.687-2.731,0.859
			c-1.754-1.68-4.394-3.702-5.134-4.281C664.064,153.783,657.92,148.671,653.812,141.149L653.812,141.149z M678.365,145.098
			c-1.512-3.535-0.819-3.889,1.029-5.047c2.142-1.337,2.69-0.752,4.154,1.807c2.065-1.111,3.375-1.406,3.995-2.579
			c0.575-1.096,0.35-2.517,0.023-3.988c-0.779-3.492-3.348-6.898-6.707-5.386c-2.343,1.052-7.522,3.391-9.077,5.409
			c-1.507,1.946-2.495,8.894-0.854,11.603c0.543,0.891,0.178,1.411,1.754,1.019C674.637,147.457,676.57,146.369,678.365,145.098z"/>
		
			<linearGradient id="XMLID_11_" gradientUnits="userSpaceOnUse" x1="7821.2544" y1="76.3821" x2="7801.8203" y2="22.988" gradientTransform="matrix(-1 0 0 1 8452.6504 0)">
			<stop  offset="0.0583" style="stop-color:#335987"/>
			<stop  offset="0.5413" style="stop-color:#4172AA"/>
		</linearGradient>
		<path id="XMLID_206_" class="st17" d="M590.809,47.609c0.011-0.073,0.003-0.141,0.014-0.213c0,0,0.007,0.006,0.01,0.01
			c1.476-9.735,9.382-20.749,20.408-22.15c-2.216,0.794-3.235,1.593-5.021,2.675c0.586-0.201,1.216-0.41,1.828-0.617
			c8.654-4.05,19.926-6.082,28.325-5.691c9.208,0.436,17.281,2.977,25.826,5.504c-2.453,0.362-3.417,0.481-5.488,0.348
			c0.488,0.211,0.965,0.439,1.445,0.661c12.547,4.098,15.449,10.039,32.745,15.257c-0.146,0.054-0.297,0.083-0.445,0.133
			c0.334,0.077,0.664,0.164,0.998,0.239c0.17,0.835,0.283,1.645,0.363,2.44c0.052,0.495,0.067,0.97,0.088,1.449
			c0.007,0.213,0.021,0.429,0.022,0.639c0.337,25.858-46.391,27.539-66.81,22.197c-0.259-0.045-0.528-0.096-0.794-0.146
			c0.955,1.141,2.464,2.34,4.568,3.698c-0.756-0.123-1.519-0.284-2.28-0.442c0.176,0.07,0.328,0.136,0.511,0.208
			c-16.498-2.69-32.811-13.82-36.545-22.726C590.549,49.958,590.641,48.791,590.809,47.609z"/>
		<path id="XMLID_205_" class="st11" d="M613.459,98.747c-11.331-2.582-10.08,10.058-7.585,17.535
			c1.717,5.146,6.023,4.298,8.029,8.29c2.033,4.039,5.29,6.018,8.229,6.26c1.31-5.359,1.777-13.202,1.702-18.439
			C623.351,106.026,620.003,100.238,613.459,98.747z"/>
	</g>
	<g id="XMLID_194_">
		<g>
			
				<ellipse id="XMLID_15_" transform="matrix(0.9922 -0.1244 0.1244 0.9922 -5.8603 85.8609)" class="st18" cx="684.524" cy="89.851" rx="3.226" ry="5.327"/>
			
				<ellipse id="XMLID_14_" transform="matrix(0.9922 -0.1244 0.1244 0.9922 -6.9979 82.5307)" class="st18" cx="657.291" cy="97.294" rx="3.226" ry="5.327"/>
		</g>
		<g>
			
				<ellipse id="XMLID_13_" transform="matrix(0.9922 -0.1244 0.1244 0.9922 -5.8603 85.8609)" class="st18" cx="684.524" cy="89.851" rx="3.226" ry="5.327"/>
			
				<ellipse id="XMLID_12_" transform="matrix(0.9922 -0.1244 0.1244 0.9922 -6.9979 82.5307)" class="st18" cx="657.291" cy="97.294" rx="3.226" ry="5.327"/>
		</g>
	</g>
</g>
</svg>
